<svg xmlns="http://www.w3.org/2000/svg" viewBox="0 0 393.67 159.88"><defs><style>.a{fill:#231f20;}.b{fill:#f79838;}</style></defs><title>Asset 2</title><path class="a" d="M160.91,142H260a8.92,8.92,0,0,1,8.92,8.92h0a8.92,8.92,0,0,1-8.92,8.92H160.91a8.92,8.92,0,0,1-8.92-8.92h0A8.92,8.92,0,0,1,160.91,142Z"/><path class="a" d="M116.82,43.05A71.93,71.93,0,0,0,95.1,28.16a64.78,64.78,0,0,0-26.48-5.52,66.88,66.88,0,0,0-27.08,5.51,68.36,68.36,0,0,0-21.67,15A72.22,72.22,0,0,0,5.39,64.83,66,66,0,0,0,0,91.26V150a9.92,9.92,0,0,0,9.92,9.92H14.2A9.92,9.92,0,0,0,24.11,150V91.26a42.49,42.49,0,0,1,3.54-17.18,45.25,45.25,0,0,1,23.8-23.81,43.44,43.44,0,0,1,34.35,0,45.25,45.25,0,0,1,23.81,23.81,42.57,42.57,0,0,1,3.55,17.18V150a9.92,9.92,0,0,0,9.92,9.92h4.28a9.92,9.92,0,0,0,9.92-9.92V91.26a64.77,64.77,0,0,0-5.58-26.49A71.93,71.93,0,0,0,116.82,43.05Z"/><path class="a" d="M254.82,18.52A66,66,0,0,0,235,5.17a59.94,59.94,0,0,0-24.16-5A62.07,62.07,0,0,0,153,38.68a64,64,0,0,0,13.31,69.68,62.7,62.7,0,0,0,19.81,13.41,61.87,61.87,0,0,0,24.71,4.95,59.94,59.94,0,0,0,24.16-5,65.94,65.94,0,0,0,19.84-13.34,63,63,0,0,0,13.7-20,64.05,64.05,0,0,0,0-49.79A62.78,62.78,0,0,0,254.82,18.52Zm-44,86a38.53,38.53,0,0,1-15.7-3.26,41.53,41.53,0,0,1-21.8-22,40.36,40.36,0,0,1,0-31.68,41.53,41.53,0,0,1,21.77-21.95,39.39,39.39,0,0,1,31.39,0,41.53,41.53,0,0,1,21.77,21.95,40.36,40.36,0,0,1,0,31.68,41.53,41.53,0,0,1-21.77,22A38.53,38.53,0,0,1,210.81,104.51Z"/><circle class="b" cx="221.29" cy="48.87" r="18.23" transform="translate(158.27 266.56) rotate(-86.31)"/><path class="a" d="M388.89,128.7a70.34,70.34,0,0,0-13.28-21.18,68.41,68.41,0,0,0-20-15.1q-2.29-1.15-4.68-2.12A5.75,5.75,0,0,1,349,80.89l38.4-37.59a8.56,8.56,0,0,0,.14-12.11l-.07-.07-4.83-4.83a8.56,8.56,0,0,0-12.08-.06l-55.11,54.2a5.76,5.76,0,0,1-9.8-4.11V8.56A8.56,8.56,0,0,0,297.12,0h-7a8.56,8.56,0,0,0-8.56,8.56V151.31a8.56,8.56,0,0,0,8.56,8.56h7a8.56,8.56,0,0,0,8.56-8.56V126.43a5.76,5.76,0,0,1,1.83-4.21l11.88-11.09a5.76,5.76,0,0,1,3.93-1.55H325a42.57,42.57,0,0,1,17.18,3.54A45.24,45.24,0,0,1,366,136.93a42.55,42.55,0,0,1,3.55,17.18h0a5.76,5.76,0,0,0,5.76,5.76H387.9a5.76,5.76,0,0,0,5.76-5.76h0A67.76,67.76,0,0,0,388.89,128.7Z"/></svg>