<svg xmlns="http://www.w3.org/2000/svg" viewBox="0 0 514.76 547.22"><defs><style>.a{fill:#f89938;}</style></defs><title>Asset 17</title><path d="M349.37,377.35a50.63,50.63,0,0,0-20.43-4.22H259.12a11.66,11.66,0,0,1-1.74-.18,11.65,11.65,0,0,1-1.74.18H185.81a50.63,50.63,0,0,0-20.43,4.22,53.81,53.81,0,0,0-28.32,28.32,51.66,51.66,0,0,0,0,40.85,53.81,53.81,0,0,0,28.32,28.3A50.53,50.53,0,0,0,185.81,479h69.82a11.7,11.7,0,0,1,1.74.18,11.7,11.7,0,0,1,1.74-.18h69.82a50.53,50.53,0,0,0,20.43-4.21,53.81,53.81,0,0,0,28.32-28.3,51.66,51.66,0,0,0,0-40.85A53.81,53.81,0,0,0,349.37,377.35Z"/><path d="M380.85,212.47a48,48,0,0,0-37.68,0,49.39,49.39,0,0,0-26.11,25.89,46.75,46.75,0,0,0,0,37.29,49.39,49.39,0,0,0,26.11,25.93,48,48,0,0,0,37.68,0A49.39,49.39,0,0,0,407,275.69a46.84,46.84,0,0,0,0-37.33A49.39,49.39,0,0,0,380.85,212.47Zm-.11,53.69a21.68,21.68,0,1,1,20.24-23A21.68,21.68,0,0,1,380.74,266.16Z"/><path d="M171.58,301.58a49.39,49.39,0,0,0,26.11-25.93,46.75,46.75,0,0,0,0-37.29,49.39,49.39,0,0,0-26.11-25.89,48,48,0,0,0-37.68,0,49.39,49.39,0,0,0-26.1,25.89,46.85,46.85,0,0,0,0,37.33,49.39,49.39,0,0,0,26.1,25.89A48,48,0,0,0,171.58,301.58Zm-57.81-58.45a21.68,21.68,0,1,1,20.24,23A21.68,21.68,0,0,1,113.77,243.13Z"/><path d="M344.51,0H170.25A170.25,170.25,0,0,0,0,170.25V377A170.25,170.25,0,0,0,170.25,547.22H344.51A170.25,170.25,0,0,0,514.76,377V170.25A170.25,170.25,0,0,0,344.51,0ZM83.42,286.38A73.6,73.6,0,0,1,77.54,257a71.29,71.29,0,0,1,5.9-28.73,78.54,78.54,0,0,1,15.88-23.61,74.67,74.67,0,0,1,23.92-16.28,76.18,76.18,0,0,1,59.22,0,75,75,0,0,1,23.77,16.29,78.41,78.41,0,0,1,15.87,23.6A71.28,71.28,0,0,1,228,257a73.57,73.57,0,0,1-5.89,29.39,74.57,74.57,0,0,1-15.95,23.55,76.13,76.13,0,0,1-82.86,15.83A73.5,73.5,0,0,1,83.42,286.38ZM404,458.3a81.3,81.3,0,0,1-17.79,25.77,85.89,85.89,0,0,1-25.83,17.22,78.54,78.54,0,0,1-31.43,6.41H259.12a11.66,11.66,0,0,1-1.74-.18,11.65,11.65,0,0,1-1.74.18H185.81a78.54,78.54,0,0,1-31.43-6.41,85.9,85.9,0,0,1-25.83-17.22,81.3,81.3,0,0,1-17.79-25.77,79.53,79.53,0,0,1-6.56-32.21,77,77,0,0,1,6.57-31.49,85.12,85.12,0,0,1,43.54-43.5,77,77,0,0,1,31.5-6.64h69.82a11.65,11.65,0,0,1,1.74.18,11.66,11.66,0,0,1,1.74-.18h69.82a77,77,0,0,1,31.5,6.64A85.12,85.12,0,0,1,404,394.6a77,77,0,0,1,6.57,31.49A79.54,79.54,0,0,1,404,458.3Zm-157.8-142V198.51a10.61,10.61,0,0,1,10.61-10.61c.2,0,.39,0,.58.06s.38-.06.58-.06a10.61,10.61,0,0,1,10.61,10.61V316.33A10.61,10.61,0,0,1,258,326.95c-.2,0-.39,0-.58-.06s-.38.06-.58.06A10.61,10.61,0,0,1,246.18,316.33Zm185.15-30a73.5,73.5,0,0,1-39.86,39.38,76.13,76.13,0,0,1-82.86-15.83,74.57,74.57,0,0,1-15.95-23.55A73.58,73.58,0,0,1,286.78,257a71.29,71.29,0,0,1,5.9-28.73,78.42,78.42,0,0,1,15.87-23.6,75,75,0,0,1,23.77-16.29,76.18,76.18,0,0,1,59.22,0,74.66,74.66,0,0,1,23.92,16.28,78.54,78.54,0,0,1,15.88,23.61,71.29,71.29,0,0,1,5.9,28.73A73.59,73.59,0,0,1,431.33,286.38Zm6.14-123.75a10.18,10.18,0,0,1-10.18,10.18H87.47a10.18,10.18,0,0,1-10.18-10.18v-8.28a10.18,10.18,0,0,1,10.18-10.18h80.59A6.85,6.85,0,0,0,173,132.51L108.49,67a10.18,10.18,0,0,1,.07-14.37l5.74-5.74.08-.08a10.18,10.18,0,0,1,14.4.16l44.71,45.67a6.84,6.84,0,0,0,11.2-2.21q1.15-2.84,2.52-5.57a81.35,81.35,0,0,1,18-23.83,83.66,83.66,0,0,1,25.18-15.8A80.56,80.56,0,0,1,251.72,40a6.82,6.82,0,0,1,2.48-.48c1.06,0,2.12.1,3.18.13s2.12-.14,3.18-.13A6.82,6.82,0,0,1,263,40a80.56,80.56,0,0,1,21.37,5.2A83.66,83.66,0,0,1,309.59,61a81.35,81.35,0,0,1,18,23.83q1.36,2.73,2.52,5.57a6.84,6.84,0,0,0,11.2,2.21L386,46.94a10.18,10.18,0,0,1,14.4-.16l.08.08,5.74,5.74A10.18,10.18,0,0,1,406.27,67L341.8,132.51a6.85,6.85,0,0,0,4.89,11.65h80.59a10.18,10.18,0,0,1,10.18,10.18Z"/><path d="M274.62,72.39a50.54,50.54,0,0,0-17.24-4.06,50.54,50.54,0,0,0-17.24,4.06,53.8,53.8,0,0,0-28.32,28.32,50.63,50.63,0,0,0-4.21,20.43v2a6.85,6.85,0,0,0,1.84,4.67L222.64,142a6.85,6.85,0,0,0,5,2.18h59.46a6.85,6.85,0,0,0,5-2.18l13.19-14.12a6.85,6.85,0,0,0,1.84-4.67v-2a50.63,50.63,0,0,0-4.21-20.43A53.8,53.8,0,0,0,274.62,72.39Z"/><path class="a" d="M257.38,326.89c.2,0,.38.06.58.06a10.61,10.61,0,0,0,10.61-10.61V198.51A10.61,10.61,0,0,0,258,187.9c-.2,0-.39,0-.58.06s-.38-.06-.58-.06a10.61,10.61,0,0,0-10.61,10.61V316.33a10.61,10.61,0,0,0,10.61,10.61C257,326.95,257.18,326.9,257.38,326.89Z"/><path class="a" d="M206.15,309.93a74.57,74.57,0,0,0,15.95-23.55A73.57,73.57,0,0,0,228,257a71.28,71.28,0,0,0-5.9-28.73,78.41,78.41,0,0,0-15.87-23.6,75,75,0,0,0-23.77-16.29,76.18,76.18,0,0,0-59.22,0,74.67,74.67,0,0,0-23.92,16.28,78.54,78.54,0,0,0-15.88,23.61A71.29,71.29,0,0,0,77.54,257a73.81,73.81,0,0,0,45.75,68.77A76.13,76.13,0,0,0,206.15,309.93ZM107.8,275.69a46.85,46.85,0,0,1,0-37.33,49.39,49.39,0,0,1,26.1-25.89,48,48,0,0,1,37.68,0,49.39,49.39,0,0,1,26.11,25.89,46.75,46.75,0,0,1,0,37.29,49.39,49.39,0,0,1-26.11,25.93,48,48,0,0,1-37.68,0A49.39,49.39,0,0,1,107.8,275.69Z"/><circle class="a" cx="135.41" cy="244.52" r="21.68" transform="translate(-117.32 363.91) rotate(-86.31)"/><path class="a" d="M386.27,368.76a85.54,85.54,0,0,0-25.83-17.67,77,77,0,0,0-31.5-6.64H259.12a11.66,11.66,0,0,0-1.74.18,11.65,11.65,0,0,0-1.74-.18H185.81a77,77,0,0,0-31.5,6.64,85.12,85.12,0,0,0-43.54,43.5,77,77,0,0,0-6.57,31.49,79.53,79.53,0,0,0,6.56,32.21,81.3,81.3,0,0,0,17.79,25.77,85.9,85.9,0,0,0,25.83,17.22,78.54,78.54,0,0,0,31.43,6.41h69.82a11.65,11.65,0,0,0,1.74-.18,11.66,11.66,0,0,0,1.74.18h69.82a78.54,78.54,0,0,0,31.43-6.41,85.89,85.89,0,0,0,25.83-17.22A81.3,81.3,0,0,0,404,458.3a79.54,79.54,0,0,0,6.56-32.21A77,77,0,0,0,404,394.6,85.54,85.54,0,0,0,386.27,368.76Zm-8.57,77.75a53.81,53.81,0,0,1-28.32,28.3A50.53,50.53,0,0,1,328.94,479H259.12a11.7,11.7,0,0,0-1.74.18,11.7,11.7,0,0,0-1.74-.18H185.81a50.53,50.53,0,0,1-20.43-4.21,53.81,53.81,0,0,1-28.32-28.3,51.66,51.66,0,0,1,0-40.85,53.81,53.81,0,0,1,28.32-28.32,50.63,50.63,0,0,1,20.43-4.22h69.82a11.65,11.65,0,0,0,1.74-.18,11.66,11.66,0,0,0,1.74.18h69.82a50.63,50.63,0,0,1,20.43,4.22,53.81,53.81,0,0,1,28.32,28.32A51.66,51.66,0,0,1,377.69,446.51Z"/><path class="a" d="M415.45,204.65a74.66,74.66,0,0,0-23.92-16.28,76.18,76.18,0,0,0-59.22,0,75,75,0,0,0-23.77,16.29,78.42,78.42,0,0,0-15.87,23.6,71.29,71.29,0,0,0-5.9,28.73,73.58,73.58,0,0,0,5.89,29.39,74.57,74.57,0,0,0,15.95,23.55,76.13,76.13,0,0,0,82.86,15.83A73.81,73.81,0,0,0,437.22,257a71.29,71.29,0,0,0-5.9-28.73A78.54,78.54,0,0,0,415.45,204.65Zm-8.49,71a49.39,49.39,0,0,1-26.1,25.89,48,48,0,0,1-37.68,0,49.39,49.39,0,0,1-26.11-25.93,46.75,46.75,0,0,1,0-37.29,49.39,49.39,0,0,1,26.11-25.89,48,48,0,0,1,37.68,0A49.39,49.39,0,0,1,407,238.36,46.84,46.84,0,0,1,407,275.69Z"/><circle class="a" cx="379.35" cy="244.52" r="21.68" transform="translate(-14.96 24.93) rotate(-3.69)"/><path class="a" d="M427.29,144.16H346.69a6.85,6.85,0,0,1-4.89-11.65L406.27,67a10.18,10.18,0,0,0-.07-14.37l-5.74-5.74-.08-.08a10.18,10.18,0,0,0-14.4.16L341.26,92.61a6.84,6.84,0,0,1-11.2-2.21q-1.15-2.84-2.52-5.57a81.35,81.35,0,0,0-18-23.83,83.66,83.66,0,0,0-25.18-15.8A80.56,80.56,0,0,0,263,40a6.82,6.82,0,0,0-2.48-.48c-1.06,0-2.12.1-3.18.13s-2.12-.14-3.18-.13a6.82,6.82,0,0,0-2.48.48,80.56,80.56,0,0,0-21.37,5.2A83.66,83.66,0,0,0,205.16,61a81.35,81.35,0,0,0-18,23.83q-1.36,2.73-2.52,5.57a6.84,6.84,0,0,1-11.2,2.21L128.79,46.94a10.18,10.18,0,0,0-14.4-.16l-.08.08-5.74,5.74A10.18,10.18,0,0,0,108.49,67L173,132.51a6.85,6.85,0,0,1-4.89,11.65H87.47a10.18,10.18,0,0,0-10.18,10.18v8.28a10.18,10.18,0,0,0,10.18,10.18H427.29a10.18,10.18,0,0,0,10.18-10.18v-8.28A10.18,10.18,0,0,0,427.29,144.16Zm-120.14-21a6.85,6.85,0,0,1-1.84,4.67L292.12,142a6.85,6.85,0,0,1-5,2.18H227.65a6.85,6.85,0,0,1-5-2.18l-13.19-14.12a6.85,6.85,0,0,1-1.84-4.67v-2a50.63,50.63,0,0,1,4.21-20.43,53.8,53.8,0,0,1,28.32-28.32,50.54,50.54,0,0,1,17.24-4.06,50.54,50.54,0,0,1,17.24,4.06,53.8,53.8,0,0,1,28.32,28.32,50.63,50.63,0,0,1,4.21,20.43Z"/></svg>