<svg xmlns="http://www.w3.org/2000/svg" xmlns:xlink="http://www.w3.org/1999/xlink" viewBox="0 0 1452.2 1513.3"><defs><style>.cls-1{isolation:isolate;}.cls-10,.cls-11,.cls-12,.cls-13,.cls-14,.cls-15,.cls-16,.cls-17,.cls-18,.cls-19,.cls-2,.cls-20,.cls-21,.cls-22,.cls-23,.cls-24,.cls-25,.cls-26,.cls-27,.cls-28,.cls-29,.cls-3,.cls-30,.cls-31,.cls-32,.cls-33,.cls-34,.cls-35,.cls-36,.cls-37,.cls-38,.cls-39,.cls-4,.cls-40,.cls-41,.cls-42,.cls-43,.cls-44,.cls-45,.cls-46,.cls-47,.cls-48,.cls-49,.cls-5,.cls-50,.cls-51,.cls-52,.cls-53,.cls-54,.cls-55,.cls-56,.cls-57,.cls-58,.cls-59,.cls-6,.cls-60,.cls-61,.cls-62,.cls-63,.cls-64,.cls-65,.cls-66,.cls-67,.cls-68,.cls-69,.cls-7,.cls-70,.cls-71,.cls-72,.cls-73,.cls-74,.cls-75,.cls-76,.cls-77,.cls-78,.cls-79,.cls-8,.cls-80,.cls-81,.cls-82,.cls-83,.cls-84,.cls-85,.cls-9{fill-rule:evenodd;}.cls-2{fill:url(#linear-gradient);}.cls-3{fill:url(#linear-gradient-2);}.cls-4{fill:url(#linear-gradient-3);}.cls-5{fill:#fc8fd9;}.cls-6{fill:#6970fc;}.cls-7{fill:url(#linear-gradient-4);}.cls-8{fill:#6d6afd;}.cls-24,.cls-31,.cls-38,.cls-43,.cls-68,.cls-69,.cls-71,.cls-8{opacity:0.5;}.cls-9{fill:url(#GradientFill_18);}.cls-10{fill:url(#linear-gradient-5);}.cls-11{fill:url(#linear-gradient-6);}.cls-12{fill:#00cedc;}.cls-13{fill:url(#linear-gradient-7);}.cls-14{fill:#fff;}.cls-15{fill:url(#linear-gradient-8);}.cls-16{fill:#0a3c5f;}.cls-17{fill:#1466a0;}.cls-18{fill:#daeafa;}.cls-19{fill:#b4cce5;}.cls-20{fill:url(#linear-gradient-9);}.cls-21{fill:#bf7dec;}.cls-22{fill:url(#linear-gradient-10);}.cls-23{fill:url(#linear-gradient-11);}.cls-24,.cls-31,.cls-38,.cls-43,.cls-48,.cls-52,.cls-63,.cls-68,.cls-69,.cls-71,.cls-73{mix-blend-mode:multiply;}.cls-24{fill:url(#linear-gradient-12);}.cls-25{fill:#d0e7ff;}.cls-26{fill:url(#linear-gradient-13);}.cls-27,.cls-32{fill:#1c8df3;}.cls-27,.cls-35,.cls-41{opacity:0.2;}.cls-28{fill:url(#linear-gradient-14);}.cls-29{fill:#f2f4ff;}.cls-30{fill:url(#linear-gradient-15);}.cls-31{fill:url(#linear-gradient-16);}.cls-33{fill:url(#linear-gradient-17);}.cls-34{fill:url(#linear-gradient-18);}.cls-35{fill:#54edff;}.cls-36{fill:#02c9de;}.cls-36,.cls-52,.cls-63{opacity:0.25;}.cls-37{fill:url(#linear-gradient-19);}.cls-38{fill:url(#linear-gradient-20);}.cls-39{fill:url(#linear-gradient-21);}.cls-40{fill:url(#linear-gradient-22);}.cls-41{fill:#955cf1;}.cls-42{fill:#93e599;}.cls-43{fill:url(#linear-gradient-23);}.cls-44{fill:#ffbeaa;}.cls-45{fill:#7662e3;}.cls-46{fill:#16193b;}.cls-47{fill:url(#linear-gradient-24);}.cls-48{fill:#1e2353;opacity:0.3;}.cls-49{fill:url(#linear-gradient-25);}.cls-50{fill:url(#linear-gradient-26);}.cls-51{fill:#9789e9;}.cls-52{fill:url(#linear-gradient-27);}.cls-53{fill:url(#linear-gradient-28);}.cls-54{fill:url(#linear-gradient-29);}.cls-55{fill:#ffa698;}.cls-56{fill:url(#linear-gradient-30);}.cls-57{fill:url(#linear-gradient-31);}.cls-58{fill:#562e65;}.cls-59{fill:url(#linear-gradient-32);}.cls-60{fill:#ffb79d;}.cls-61{fill:#ff9989;}.cls-62{fill:url(#linear-gradient-33);}.cls-63{fill:url(#linear-gradient-34);}.cls-64{fill:url(#linear-gradient-35);}.cls-65{fill:#0965b4;}.cls-66{fill:#071a3b;}.cls-67{fill:url(#linear-gradient-36);}.cls-68{fill:url(#linear-gradient-37);}.cls-69{fill:url(#linear-gradient-38);}.cls-70{fill:url(#linear-gradient-39);}.cls-71{fill:url(#linear-gradient-40);}.cls-72{fill:url(#linear-gradient-41);}.cls-73{fill:#f969ac;opacity:0.35;}.cls-74{fill:url(#linear-gradient-42);}.cls-75{fill:#20234a;}.cls-76{fill:url(#linear-gradient-43);}.cls-77{fill:url(#linear-gradient-44);}.cls-78{fill:url(#linear-gradient-45);}.cls-79{fill:#d8fff7;}.cls-80{fill:#9fd2fb;}.cls-81{fill:url(#linear-gradient-46);}.cls-82{fill:url(#linear-gradient-47);}.cls-83{fill:url(#linear-gradient-48);}.cls-84{fill:url(#linear-gradient-49);}.cls-85{fill:url(#linear-gradient-50);}</style><linearGradient id="linear-gradient" x1="803.67" y1="1329.17" x2="828.32" y2="1386.69" gradientUnits="userSpaceOnUse"><stop offset="0" stop-color="#6d6afe"/><stop offset="1" stop-color="#3fb0f7"/></linearGradient><linearGradient id="linear-gradient-2" x1="479.51" y1="28.91" x2="377.7" y2="111.68" gradientUnits="userSpaceOnUse"><stop offset="0" stop-color="#1c8ef4"/><stop offset="1" stop-color="#00cfdd"/></linearGradient><linearGradient id="linear-gradient-3" x1="79.29" y1="547.2" x2="76.78" y2="612.36" gradientUnits="userSpaceOnUse"><stop offset="0" stop-color="#94e69a"/><stop offset="1" stop-color="#17adc9"/></linearGradient><linearGradient id="linear-gradient-4" x1="1224.39" y1="714.89" x2="1246.85" y2="787.75" gradientUnits="userSpaceOnUse"><stop offset="0" stop-color="#fd90da"/><stop offset="1" stop-color="#8e6dfd"/></linearGradient><linearGradient id="GradientFill_18" x1="491.65" y1="454.67" x2="674.51" y2="1141.79" gradientUnits="userSpaceOnUse"><stop offset="0" stop-color="#c4e0f5"/><stop offset="1" stop-color="#e1e8f6"/></linearGradient><linearGradient id="linear-gradient-5" x1="698.29" y1="484.35" x2="266.08" y2="1209.51" xlink:href="#linear-gradient-2"/><linearGradient id="linear-gradient-6" x1="498.8" y1="268.05" x2="507.47" y2="285.94" xlink:href="#linear-gradient"/><linearGradient id="linear-gradient-7" x1="633.17" y1="1032.43" x2="644.79" y2="1144.51" xlink:href="#linear-gradient-3"/><linearGradient id="linear-gradient-8" x1="735.45" y1="647.36" x2="749.34" y2="758.8" xlink:href="#linear-gradient-4"/><linearGradient id="linear-gradient-9" x1="544.19" y1="334.06" x2="534.71" y2="407.3" xlink:href="#linear-gradient-4"/><linearGradient id="linear-gradient-10" x1="537.27" y1="928.61" x2="670.47" y2="861.58" gradientUnits="userSpaceOnUse"><stop offset="0" stop-color="#fa79b6"/><stop offset="1" stop-color="#ffbfab"/></linearGradient><linearGradient id="linear-gradient-11" x1="553.16" y1="958.31" x2="686.18" y2="891.37" xlink:href="#linear-gradient-10"/><linearGradient id="linear-gradient-12" x1="700.19" y1="344.25" x2="788.76" y2="462.06" xlink:href="#linear-gradient-2"/><linearGradient id="linear-gradient-13" x1="794.05" y1="277.57" x2="781.52" y2="242.78" xlink:href="#linear-gradient-2"/><linearGradient id="linear-gradient-14" x1="895" y1="324.56" x2="888.03" y2="287.76" xlink:href="#linear-gradient-2"/><linearGradient id="linear-gradient-15" x1="1043.51" y1="32.57" x2="1049.25" y2="166.02" xlink:href="#linear-gradient"/><linearGradient id="linear-gradient-16" x1="1046.34" y1="50.49" x2="1049.78" y2="154.45" xlink:href="#linear-gradient"/><linearGradient id="linear-gradient-17" x1="1044.47" y1="78.02" x2="1061.36" y2="121.96" xlink:href="#linear-gradient-2"/><linearGradient id="linear-gradient-18" x1="1049.64" y1="65.88" x2="1059.08" y2="97.53" xlink:href="#linear-gradient-2"/><linearGradient id="linear-gradient-19" x1="74.41" y1="206.97" x2="80.15" y2="340.42" xlink:href="#linear-gradient"/><linearGradient id="linear-gradient-20" x1="66.77" y1="233.41" x2="86.94" y2="326.17" xlink:href="#linear-gradient"/><linearGradient id="linear-gradient-21" x1="75.29" y1="290.54" x2="56.6" y2="335.47" gradientUnits="userSpaceOnUse"><stop offset="0" stop-color="#965cf2"/><stop offset="1" stop-color="#ff8adc"/></linearGradient><linearGradient id="linear-gradient-22" x1="80.66" y1="249.8" x2="71.36" y2="228.07" xlink:href="#linear-gradient-21"/><linearGradient id="linear-gradient-23" x1="379.02" y1="615.14" x2="416.8" y2="669.79" xlink:href="#linear-gradient-2"/><linearGradient id="linear-gradient-24" x1="982.97" y1="687.34" x2="1052.89" y2="894.47" gradientUnits="userSpaceOnUse"><stop offset="0" stop-color="#40457f"/><stop offset="1" stop-color="#1e2353"/></linearGradient><linearGradient id="linear-gradient-25" x1="1020.11" y1="699.65" x2="1145.11" y2="938.07" xlink:href="#linear-gradient-24"/><linearGradient id="linear-gradient-26" x1="1062.33" y1="450.71" x2="1015.84" y2="624.09" gradientUnits="userSpaceOnUse"><stop offset="0" stop-color="#a77ef7"/><stop offset="1" stop-color="#5e65d6"/></linearGradient><linearGradient id="linear-gradient-27" x1="1084.63" y1="480.46" x2="1041.53" y2="622.37" xlink:href="#linear-gradient-26"/><linearGradient id="linear-gradient-28" x1="1103.28" y1="662.74" x2="1099.67" y2="648.59" gradientUnits="userSpaceOnUse"><stop offset="0" stop-color="#ff8a78"/><stop offset="1" stop-color="#ffa799"/></linearGradient><linearGradient id="linear-gradient-29" x1="1161.56" y1="490.83" x2="1129.23" y2="629.96" xlink:href="#linear-gradient-26"/><linearGradient id="linear-gradient-30" x1="1061.19" y1="388.07" x2="1069.27" y2="403.28" xlink:href="#linear-gradient-28"/><linearGradient id="linear-gradient-31" x1="1044.09" y1="344.36" x2="1042.9" y2="383.11" gradientUnits="userSpaceOnUse"><stop offset="0" stop-color="#ffb89e"/><stop offset="1" stop-color="#ffa799"/></linearGradient><linearGradient id="linear-gradient-32" x1="1047.76" y1="316.57" x2="1060.95" y2="311.77" gradientUnits="userSpaceOnUse"><stop offset="0" stop-color="#8a4791"/><stop offset="1" stop-color="#562e65"/></linearGradient><linearGradient id="linear-gradient-33" x1="982.6" y1="450.26" x2="951.13" y2="533.94" xlink:href="#linear-gradient-26"/><linearGradient id="linear-gradient-34" x1="986.59" y1="447.5" x2="957.66" y2="537.93" xlink:href="#linear-gradient-26"/><linearGradient id="linear-gradient-35" x1="1326.63" y1="1355.4" x2="1403.02" y2="1347.19" xlink:href="#linear-gradient-2"/><linearGradient id="linear-gradient-36" x1="1265.65" y1="1085.39" x2="1344.47" y2="1277.72" xlink:href="#linear-gradient-3"/><linearGradient id="linear-gradient-37" x1="1260.5" y1="1179.87" x2="1330.67" y2="1230.27" xlink:href="#linear-gradient-3"/><linearGradient id="linear-gradient-38" x1="1269.86" y1="1103.32" x2="1343.79" y2="1286.18" xlink:href="#linear-gradient-3"/><linearGradient id="linear-gradient-39" x1="1370.81" y1="963.99" x2="1375.21" y2="1276.7" xlink:href="#linear-gradient-3"/><linearGradient id="linear-gradient-40" x1="1367.21" y1="993.79" x2="1369.88" y2="1280.27" xlink:href="#linear-gradient-3"/><linearGradient id="linear-gradient-41" x1="289.61" y1="791.27" x2="363.47" y2="856.17" xlink:href="#linear-gradient-10"/><linearGradient id="linear-gradient-42" x1="443.07" y1="844.67" x2="433.18" y2="825.89" xlink:href="#linear-gradient-28"/><linearGradient id="linear-gradient-43" x1="276.46" y1="1053.47" x2="211.52" y2="1263.29" xlink:href="#linear-gradient-24"/><linearGradient id="linear-gradient-44" x1="238.88" y1="1066.39" x2="118.07" y2="1309.47" xlink:href="#linear-gradient-24"/><linearGradient id="linear-gradient-45" x1="203.59" y1="802.27" x2="233.59" y2="997.04" xlink:href="#linear-gradient-10"/><linearGradient id="linear-gradient-46" x1="248.66" y1="1007.32" x2="244.86" y2="1020.5" xlink:href="#linear-gradient-31"/><linearGradient id="linear-gradient-47" x1="153.81" y1="838.56" x2="175.15" y2="996.83" xlink:href="#linear-gradient-10"/><linearGradient id="linear-gradient-48" x1="222.54" y1="748.02" x2="211.45" y2="760.46" xlink:href="#linear-gradient-28"/><linearGradient id="linear-gradient-49" x1="259.89" y1="711.44" x2="246.13" y2="745.4" xlink:href="#linear-gradient-31"/><linearGradient id="linear-gradient-50" x1="266.73" y1="685.7" x2="256.59" y2="675.98" xlink:href="#linear-gradient-32"/></defs><title>gdp</title><g class="cls-1"><g id="Layer_2" data-name="Layer 2"><g id="Layer_1-2" data-name="Layer 1"><path class="cls-2" d="M817.21,1298a62.75,62.75,0,1,1-62.75,62.75A62.75,62.75,0,0,1,817.21,1298Zm0,21.69a41.06,41.06,0,1,0,41.06,41.06A41.06,41.06,0,0,0,817.21,1319.71Z"/><path class="cls-3" d="M431.37,5.3a62.75,62.75,0,1,1-62.75,62.75A62.75,62.75,0,0,1,431.37,5.3Zm0,21.69a41.06,41.06,0,1,0,41.06,41.06A41.06,41.06,0,0,0,431.37,27Z"/><path class="cls-4" d="M79.15,527.28c25.9,0,45.09,21,45.09,46.89s-19.19,46.89-45.09,46.89a46.89,46.89,0,0,1,0-93.78Zm0,16.21a30.68,30.68,0,1,0,30.68,30.68A30.68,30.68,0,0,0,79.15,543.49Z"/><path class="cls-5" d="M848.48,24.72A10.26,10.26,0,1,1,838.23,35,10.26,10.26,0,0,1,848.48,24.72Z"/><path class="cls-6" d="M1326.38,442.92a10.26,10.26,0,1,1-10.26,10.26A10.25,10.25,0,0,1,1326.38,442.92Z"/><path class="cls-7" d="M1238.31,698.76A61.31,61.31,0,1,1,1177,760.07a61.31,61.31,0,0,1,61.31-61.31Zm0,21.19a40.12,40.12,0,1,0,40.12,40.12A40.12,40.12,0,0,0,1238.31,720Z"/><path class="cls-8" d="M344.66,1277.94l471.87-261c11.58-5.3,28.61-10.29,40-3.37l29.07,17.71c5.84,3.57,25.07,15.39,12.21,22.39-37.84,20.57-439.38,244.53-477.8,265.43-7.27,3.95-17.9,5.38-29.06,4.46s-22.65-3.93-31.48-9.38l-11.61-7.16c-8.2-5.06-12.75-10.59-13.19-15.9S337.54,1281.19,344.66,1277.94Z"/><path class="cls-9" d="M706.68,101.16c6.8-3.86,14.78-5.3,22.25-2.49l16.7,6.53C751.69,136.59,399.76,1287.11,392,1295.09l-14.91-5.63c-9.78-3.85-14.92-14-16.35-23.94L234.88,406.37a.34.34,0,0,1,0-.1c-2.05-14.45,2.29-29.49,10.24-41.56,4.27-6.5,9.9-12.46,16.81-16.21Z"/><path class="cls-10" d="M278.39,354.86,723.15,107.52c18.13-10.06,35.4-.41,38.61,21.47L887.62,988.14c3.21,21.88-8.85,47.79-27,57.84L415.88,1293.33c-18.14,10.05-35.45.42-38.66-21.45L251.36,412.72C248.15,390.85,260.26,364.91,278.39,354.86Z"/><path class="cls-11" d="M278.39,354.86,723.15,107.52c18.13-10.06,35.4-.41,38.61,21.47l6.44,44L257.82,456.83l-6.46-44.11C248.15,390.85,260.26,364.91,278.39,354.86Z"/><path class="cls-12" d="M846.93,874.77,695.26,957.93l-.66-4.59,151.67-83.15-18.5-126L676.09,827.26l-.66-4.58,151.68-83.11-18.46-126L656.93,696.69l-.66-4.58L807.94,609,789.49,482.87,637.83,566l-.73-4.58,151.73-83.1-18.5-126.09L618.66,435.39l-.66-4.57,151.67-83.14-18.5-126L599.49,304.8l18.51,126,.66,4.58L637.1,561.45l.73,4.58,18.44,126.08.66,4.58,18.5,126,.66,4.58L694.6,953.34l.66,4.59,18.5,126h0l151.68-83.16-18.51-126ZM443.81,390.14,595.48,307,614,433,462.31,516.13l.66,4.59L614.65,437.6h0l18.5,126L481.43,646.8l.71,4.58,151.67-83.15,18.44,126.08-151.66,83.1.71,4.58L653,698.84h0l18.44,126L519.76,908l.66,4.58,151.66-83.15h0l18.5,126.08-151.66,83.1.66,4.59,151.66-83.1h0l18.51,126-151.67,83.15h0l-18.5-126.08-.66-4.59-18.5-126-.66-4.58L501.3,782l-.71-4.58-18.45-126-.71-4.58L463,520.72l-.66-4.59-18.5-126ZM288.13,475.47l18.51,126,.66,4.59,18.5,126,.65,4.58L344.9,862.76l.72,4.59,18.45,126,.66,4.59L383.23,1124l.66,4.58,18.51,126h0l151.67-83.1-18.5-126.08h0l-151.68,83.15-.66-4.58,151.68-83.16-18.5-126h0L364.73,997.92l-.66-4.59,151.67-83.1-18.45-126h0L345.62,867.35l-.72-4.59,151.68-83.15-18.46-126L326.45,736.68l-.65-4.58L477.46,649,459,522.91h0L307.3,606.07l-.66-4.59,151.67-83.15-18.51-126h0L288.13,475.47ZM754.52,214.89l115.59,788.3-471,258.18L283.76,472.93Z"/><path class="cls-13" d="M599.76,1057.31l16.48-9.11c2.66-1.47,4.57-4.9,4.73-8.49l.88-22.27a10.07,10.07,0,0,1,4.7-8.48,4.79,4.79,0,0,1,7,2l9.25,16.62a4.87,4.87,0,0,0,7,2l16.47-9.16c6-3.34,10.47,4.72,6.56,11.73L662,1051.59c-1.73,3.11-1.9,7.05-.39,9.72l9.29,16.59c2.56,4.55.14,11.1-3.69,13.23a5,5,0,0,1-3.92.5l-15.9-4.67a5.06,5.06,0,0,0-3.92.54,8.77,8.77,0,0,0-3.3,3.46l-10.74,19.43a8.56,8.56,0,0,1-3.27,3.49c-3.84,2.13-8.26-.63-8-6.74l1-22.28c.14-3.58-1.5-6.52-4.07-7.24L599.1,1073C593.37,1071.38,593.8,1060.61,599.76,1057.31Z"/><path class="cls-14" d="M568.89,647.47c9.28-5.15,19.13,1.79,19,15.22a26.92,26.92,0,0,1-7.65,18.59,18.19,18.19,0,0,1-3.76,2.82c-9.26,5.13-19.06-1.8-19-15.17a26.79,26.79,0,0,1,7.58-18.62,18.37,18.37,0,0,1,3.79-2.84Zm9,42.94a24.93,24.93,0,0,0,5-3.78c6.27-6,10.2-15.66,10.29-25,.11-18-13.1-27.37-25.58-20.46a24,24,0,0,0-5.11,3.85c-6.25,6-10.18,15.64-10.22,25-.07,18,13.12,27.31,25.58,20.41Zm-42.5-15.31a6.81,6.81,0,0,0-2.87,7.09l2.26,10.55c.58,2.69,2.81,3.89,5,2.69l1.11-.62a3.11,3.11,0,0,1,4.39,1.22,34,34,0,0,0,2,3,6.23,6.23,0,0,1,.45,6l-.58,1.43c-1.12,2.72-.45,5.83,1.48,6.87l7.64,4.13a3.13,3.13,0,0,0,3.09-.11,5.9,5.9,0,0,0,2.48-3l.59-1.4a5.79,5.79,0,0,1,2.46-2.94,3.47,3.47,0,0,1,1.83-.47c1.08,0,2.18,0,3.27-.14,1.75-.17,3.2,1.07,3.65,3.13l.29,1.38c.58,2.69,2.81,3.89,5,2.69l8.52-4.72a6.81,6.81,0,0,0,2.89-7.06l-.3-1.37a7.2,7.2,0,0,1,1.67-6.08c.92-1,1.77-2.05,2.62-3.12a5.24,5.24,0,0,1,1.63-1.45,3.1,3.1,0,0,1,3.06-.12l1,.52a3.18,3.18,0,0,0,3.1-.11,6,6,0,0,0,2.48-3L610,679.28c1.12-2.72.45-5.84-1.48-6.88l-1-.54c-1.49-.81-2.26-2.86-1.94-5.15.2-1.45.35-2.9.44-4.36a6.6,6.6,0,0,1,3-5.3l1.11-.62a6.8,6.8,0,0,0,2.89-7l-2.27-10.55c-.59-2.73-2.82-3.93-5-2.73l-1.11.62a3.11,3.11,0,0,1-4.39-1.21,32.78,32.78,0,0,0-2-3,6.17,6.17,0,0,1-.44-5.94l.59-1.43c1.1-2.76.44-5.84-1.49-6.91l-7.64-4.13a3.18,3.18,0,0,0-3.1.11,5.94,5.94,0,0,0-2.48,3l-.58,1.43a5.86,5.86,0,0,1-2.46,3,3.55,3.55,0,0,1-1.83.47,25.47,25.47,0,0,0-3.27.11c-1.74.19-3.2-1-3.64-3.11l-.3-1.37c-.58-2.72-2.81-3.93-5-2.72L558,619.67c-2.17,1.2-3.46,4.36-2.88,7.08l.3,1.38a7.09,7.09,0,0,1-1.65,6c-.92,1-1.8,2.07-2.64,3.17a5.3,5.3,0,0,1-1.62,1.44,3.12,3.12,0,0,1-3.07.12l-1-.55a3.16,3.16,0,0,0-3.09.12,5.86,5.86,0,0,0-2.48,3l-4.43,10.81c-1.11,2.76-.44,5.84,1.49,6.91l1,.54c1.49.81,2.26,2.87,1.94,5.12-.2,1.45-.35,2.91-.45,4.36a6.58,6.58,0,0,1-3,5.31Z"/><path class="cls-14" d="M751.5,992.71c5.06,23.52,24.66,34.14,43.68,23.6s30.35-38.32,25.29-61.83-24.69-34.12-43.68-23.6-30.35,38.31-25.29,61.83Zm30.65-9.63a7.67,7.67,0,0,1-3.63-5.34,13.4,13.4,0,0,1,3.43-11.8l-4.54-21.11A3.73,3.73,0,0,1,779,941c1.16-.64,2.37,0,2.68,1.48l4.54,21.11c3.33-.6,6.34,1.71,7.24,5.88,1.1,5.11-1.36,11.07-5.46,13.34a7.42,7.42,0,0,1-2.58.89L776.81,1015a2.3,2.3,0,0,1-1.11,1.49,1.93,1.93,0,0,1-1.06.25c-.92,0-1.34-1.4-1-2.6l8.5-31Zm-7-59.78c22.39-12.41,45.47.06,51.44,27.79s-7.4,60.43-29.78,72.84-45.51-.09-51.47-27.81S752.78,935.7,775.16,923.3Z"/><path class="cls-15" d="M689.35,682.67l95.34-52.42c3.62-1.91,6.95,0,7.45,4.2L804.38,739c.49,4.25-2,9.23-5.65,11.14l-95.35,52.41c-3.62,1.91-6.92,0-7.42-4.26L683.73,693.74C683.23,689.49,685.73,684.56,689.35,682.67Z"/><path class="cls-14" d="M701.34,692.91c-2.27,1.19-3.36,4.76-2,6.51l46.45,59.87a2.13,2.13,0,0,0,2.82.43,5,5,0,0,0,2.19-2.65L779,683.35c1.18-3-.62-5.55-3-4.26l-13.46,7.07a5.15,5.15,0,0,0-2.24,2.7l-11.65,30.5a5,5,0,0,1-2.22,2.66,2.09,2.09,0,0,1-2.8-.43l-27.06-34.78a2.16,2.16,0,0,0-2.81-.41Z"/><path class="cls-16" d="M327.46,372.57C320,376,316.67,384.25,320,391s12,9.35,19.41,5.9,10.79-11.68,7.51-18.39S334.9,369.12,327.46,372.57Z"/><path class="cls-17" d="M326.66,376.3c-8.88,9.11,1.48,22.48,13.27,17.22-7.36,5.21-15.42,1.74-18.08-3.94C319.92,385.44,321,380.08,326.66,376.3Z"/><path class="cls-18" d="M280.35,285.19c-19.6,8.54-24.51,34.11-14.58,60.85l12.87-7.15c-5.24-17.5-5.31-32.85,8.67-38.94s39.51,6.55,50.45,27.61,9.09,42.16-6.33,48.88c-4.24,1.85-5.21,5.68-3.93,9.66,1.46,4.53,6.35,5.88,10,4.6.72-.26,1.43-.55,2.13-.85,22.22-9.68,27.14-37.75,11.38-68.1S302.57,275.51,280.35,285.19Z"/><path class="cls-19" d="M268.76,344.38l9.88-5.49c-5.24-17.5-5.31-32.85,8.67-38.94s39.51,6.55,50.45,27.61,9.09,42.16-6.33,48.88a6.82,6.82,0,0,0-4.42,5.74c6.28-.08,16.38-6,20.37-18.89,6.75-21.8-5.94-45.36-22.79-59.57-16.3-13.76-34.72-14.85-44.11-10C257.8,305.49,265.43,334.07,268.76,344.38Z"/><path class="cls-16" d="M402.73,331.51c-7.43,3.45-10.79,11.68-7.51,18.39s12,9.35,19.42,5.91,10.79-11.68,7.5-18.39S410.16,328.06,402.73,331.51Z"/><path class="cls-17" d="M401.93,335.25c-8.88,9.1,1.48,22.48,13.27,17.21-7.37,5.22-15.43,1.74-18.08-3.94C395.19,344.38,396.25,339,401.93,335.25Z"/><path class="cls-18" d="M355.62,244.13C336,252.67,331.1,278.24,341,305l12.87-7.15c-5.24-17.51-5.3-32.86,8.68-38.95s39.51,6.55,50.44,27.61,9.1,42.17-6.32,48.88c-4.24,1.85-5.21,5.68-3.93,9.67,1.45,4.52,6.34,5.87,10,4.59.72-.25,1.43-.54,2.13-.85,22.22-9.68,27.14-37.74,11.38-68.1S377.84,234.46,355.62,244.13Z"/><path class="cls-19" d="M344,303.32l9.87-5.48c-5.24-17.51-5.3-32.86,8.68-38.95s39.51,6.55,50.44,27.61,9.1,42.17-6.32,48.88a6.82,6.82,0,0,0-4.42,5.75c6.28-.08,16.38-6,20.37-18.9,6.75-21.79-5.94-45.36-22.79-59.57-16.3-13.75-34.72-14.85-44.11-10C333.06,264.44,340.7,293,344,303.32Z"/><path class="cls-16" d="M477.81,290.45c-7.43,3.44-10.79,11.68-7.51,18.39s12,9.35,19.42,5.9,10.79-11.68,7.5-18.39S485.24,287,477.81,290.45Z"/><path class="cls-17" d="M477,294.19c-8.88,9.1,1.48,22.47,13.27,17.21-7.37,5.21-15.43,1.74-18.08-3.94C470.27,303.32,471.33,298,477,294.19Z"/><path class="cls-18" d="M430.7,203.07c-19.6,8.54-24.52,34.11-14.59,60.85L429,256.77c-5.24-17.5-5.3-32.85,8.68-38.94s39.5,6.55,50.44,27.61,9.1,42.16-6.32,48.88c-4.24,1.85-5.21,5.68-3.93,9.66,1.45,4.53,6.34,5.88,10,4.6.72-.26,1.43-.55,2.13-.85,22.22-9.68,27.14-37.75,11.38-68.1S452.92,193.39,430.7,203.07Z"/><path class="cls-19" d="M419.11,262.26l9.87-5.49c-5.24-17.5-5.3-32.85,8.68-38.94s39.5,6.55,50.44,27.61,9.1,42.16-6.32,48.88a6.82,6.82,0,0,0-4.42,5.75c6.28-.09,16.38-6,20.37-18.9,6.75-21.8-5.94-45.36-22.79-59.57-16.3-13.75-34.73-14.85-44.11-10C408.14,223.38,415.78,252,419.11,262.26Z"/><path class="cls-16" d="M552.71,249.55c-7.43,3.45-10.79,11.69-7.5,18.39s12,9.36,19.41,5.91,10.79-11.68,7.5-18.39S560.14,246.11,552.71,249.55Z"/><path class="cls-17" d="M551.91,253.29c-8.88,9.11,1.48,22.48,13.27,17.22-7.36,5.21-15.43,1.74-18.08-3.94C545.17,262.43,546.24,257.06,551.91,253.29Z"/><path class="cls-18" d="M505.6,162.18C486,170.71,481.08,196.29,491,223l12.88-7.15c-5.24-17.5-5.31-32.85,8.67-38.95s39.51,6.56,50.45,27.62,9.09,42.16-6.33,48.88c-4.24,1.84-5.21,5.68-3.93,9.66,1.46,4.53,6.35,5.88,10,4.6.72-.26,1.43-.55,2.13-.85,22.22-9.68,27.14-37.75,11.38-68.1S527.82,152.5,505.6,162.18Z"/><path class="cls-19" d="M494,221.37l9.88-5.49c-5.24-17.5-5.31-32.85,8.67-38.95s39.51,6.56,50.45,27.62,9.09,42.16-6.33,48.88a6.8,6.8,0,0,0-4.42,5.74c6.28-.08,16.38-6,20.37-18.89,6.75-21.8-5.94-45.36-22.79-59.57-16.3-13.76-34.72-14.85-44.11-10C483,182.48,490.68,211.06,494,221.37Z"/><path class="cls-16" d="M627.74,208.51c-7.43,3.45-10.79,11.68-7.5,18.39s12,9.35,19.41,5.9,10.79-11.68,7.5-18.38S635.18,205.06,627.74,208.51Z"/><path class="cls-17" d="M626.94,212.25c-8.88,9.1,1.48,22.48,13.27,17.21-7.37,5.22-15.43,1.74-18.08-3.94C620.2,221.38,621.27,216,626.94,212.25Z"/><path class="cls-18" d="M580.63,121.13C561,129.67,556.11,155.24,566,182l12.88-7.16c-5.24-17.5-5.31-32.85,8.67-38.94s39.51,6.55,50.45,27.62,9.09,42.16-6.33,48.87c-4.24,1.85-5.21,5.68-3.93,9.67,1.46,4.52,6.35,5.87,10,4.59.72-.25,1.43-.54,2.13-.85,22.22-9.68,27.14-37.74,11.38-68.1S602.85,111.45,580.63,121.13Z"/><path class="cls-19" d="M569,180.32l9.88-5.49c-5.24-17.5-5.31-32.85,8.67-38.94s39.51,6.55,50.45,27.62,9.09,42.16-6.33,48.87a6.82,6.82,0,0,0-4.42,5.75c6.28-.08,16.38-6,20.37-18.9,6.75-21.79-5.94-45.35-22.79-59.57-16.3-13.75-34.72-14.85-44.11-10C558.07,141.44,565.71,170,569,180.32Z"/><path class="cls-16" d="M702.69,167.62c-7.43,3.45-10.79,11.68-7.5,18.39s12,9.35,19.41,5.9,10.79-11.68,7.51-18.39S710.13,164.17,702.69,167.62Z"/><path class="cls-17" d="M701.89,171.36c-8.88,9.1,1.48,22.47,13.27,17.21-7.36,5.21-15.42,1.74-18.08-3.94C695.15,180.49,696.22,175.13,701.89,171.36Z"/><path class="cls-18" d="M655.58,80.24C636,88.78,631.07,114.35,641,141.1l12.88-7.16c-5.24-17.5-5.31-32.85,8.68-38.94s39.5,6.55,50.44,27.61,9.09,42.16-6.33,48.88c-4.24,1.85-5.21,5.68-3.93,9.66,1.46,4.53,6.35,5.88,10,4.6.73-.25,1.43-.54,2.13-.85,22.22-9.68,27.14-37.74,11.38-68.1S677.8,70.56,655.58,80.24Z"/><path class="cls-19" d="M644,139.43l9.88-5.49c-5.24-17.5-5.31-32.85,8.68-38.94s39.5,6.55,50.44,27.61,9.09,42.16-6.33,48.88a6.83,6.83,0,0,0-4.42,5.75c6.28-.08,16.38-6,20.37-18.9,6.76-21.79-5.94-45.36-22.79-59.57-16.3-13.75-34.72-14.85-44.11-10C633,100.55,640.66,129.13,644,139.43Z"/><path class="cls-20" d="M577.37,380.34c3.26,29.28-13,65.06-36.32,79.85s-45.72-4.26-48.17-26.3,1.67-31.22,8.34-45.76c4.06,2.24,8.12,4.48,12.18,6.68-4.33,9.34-7,15.32-5.42,29.5s16,26.4,30.95,16.9,25.43-32.49,23.33-51.3C567.25,386.73,572.32,383.54,577.37,380.34Z"/><path class="cls-21" d="M560.78,350.66c8.73,4.73,15,15,16.59,29.68-5,3.2-10.12,6.39-15.11,9.57-1-9.4-5-16-10.64-19.07C554.69,364.13,557.75,357.42,560.78,350.66Z"/><path class="cls-5" d="M529.19,354c11.68-7.4,22.89-8.13,31.59-3.4-3,6.75-6.09,13.51-9.16,20.22-5.61-3-12.82-2.58-20.28,2.16s-13.88,12.88-18.09,22.15c-4.06-2.2-8.12-4.39-12.18-6.64C507.63,374.05,517.51,361.41,529.19,354Z"/><path class="cls-22" d="M530.16,924.13l133-72.15c1.92-1.05,3.74,0,4.1,2.24l1.8,11.52a6.12,6.12,0,0,1-2.81,6l-133,72.16c-1.88,1-3.69,0-4-2.27l-1.81-11.51A6.2,6.2,0,0,1,530.16,924.13Z"/><path class="cls-23" d="M597.47,931.25l70.78-38.73c1.93-1,3.75,0,4.11,2.24l.54,3.45a6.21,6.21,0,0,1-2.81,6L599.31,943c-1.89,1-3.71,0-4.07-2.26l-.54-3.46A6.18,6.18,0,0,1,597.47,931.25Z"/><path class="cls-24" d="M777.15,239.38,667.36,303.55c-18.67,10.81-31.35,38.53-28.29,61.86L655,482.51c3.06,23.32,20.72,33.49,39.39,22.68l112.86-66-24-142.36Z"/><path class="cls-25" d="M920.34,193.05c-1-7.21,1-11.56-2.56-15.64-2.28-2.59-9.46-5.93-12.47-7.07-5.81-2.18-12.75-1.5-19.86,2.62L680.09,293c-16.54,9.58-27.78,34.13-25.07,54.79L669.1,451.51c.84,6.41,3.23,14.67,8.69,19.38,3.89,3.36,10.4,6.84,15,7.42s6-3.66,11.22-6.71l205.36-120c16.56-9.58,27.78-34.13,25.07-54.79Z"/><path class="cls-14" d="M925.9,196.34c-2.7-20.66-18.32-29.68-34.88-20.09l-205.36,120c-16.54,9.57-27.78,34.13-25.07,54.79L674.67,454.8c2.71,20.66,18.35,29.67,34.89,20.09l205.36-120c16.56-9.59,27.78-34.14,25.07-54.79Z"/><path class="cls-26" d="M925.9,196.34c-2.7-20.66-18.32-29.68-34.88-20.09l-205.36,120c-16.54,9.57-27.78,34.13-25.07,54.79l1.32,9.73a54.49,54.49,0,0,1,5.54-3.7L927.12,205.33Z"/><path class="cls-27" d="M889.65,259.86c-20.91,4.78-37,29.69-35.88,55.63s19,43.08,39.86,38.29,37-29.69,35.89-55.62S910.57,255.07,889.65,259.86Z"/><path class="cls-28" d="M890.57,281.5c-11.28,2.58-19.94,16-19.35,30s10.22,23.23,21.5,20.65,19.94-16,19.34-30-10.21-23.23-21.49-20.65Zm.5,11.87c6-1.37,11.1,3.54,11.42,11s-4.29,14.56-10.28,15.93-11.1-3.54-11.41-11S885.08,294.74,891.07,293.37Z"/><path class="cls-27" d="M841.23,309.77c-.72-5.51-4.88-7.85-9.29-5.21l-134.1,76c-4.41,2.64-7.4,9.25-6.67,14.77l1.4,10.9c.72,5.52,4.89,7.86,9.29,5.22l134.1-76c4.41-2.64,7.4-9.25,6.67-14.77Z"/><path class="cls-27" d="M846.38,349.89c-.43-3.25-2.88-4.64-5.49-3.08l-79.19,44.9c-2.59,1.56-4.36,5.46-3.93,8.72l.82,6.44c.43,3.26,2.89,4.64,5.49,3.08l79.19-44.9c2.6-1.56,4.37-5.46,3.94-8.72Z"/><path class="cls-14" d="M903.5,187.24c-4.56,1-8.06,6.47-7.82,12.12s4.13,9.39,8.69,8.35,8.06-6.47,7.82-12.12S908.06,186.19,903.5,187.24Z"/><path class="cls-14" d="M882.74,199.16c-4.56,1-8.06,6.47-7.82,12.13s4.13,9.39,8.69,8.34,8.06-6.47,7.82-12.12S887.3,198.12,882.74,199.16Z"/><path class="cls-14" d="M860.28,212.26c-4.56,1-8.06,6.47-7.83,12.12s4.13,9.39,8.69,8.35,8.06-6.47,7.82-12.13S864.83,211.21,860.28,212.26Z"/><path class="cls-29" d="M979.8,87.65l5.92,40.14c1.28,11.25,4.91,70.76,12,79.19-3.32-1.94-8.86-4.47-11.3-7.38a14.32,14.32,0,0,1-2.73-7L969.27,82.32c-1.22-9.43,4.12-20.4,11.06-24.27l96.55-56.37a9.88,9.88,0,0,1,10-.57l8.67,5.05c-.28-.12-22.37,12.15-22.8,12.38L990.49,64.67C986.14,70.46,982.1,79.6,979.8,87.65Z"/><path class="cls-30" d="M989,63.11l96.55-56.37c7.28-4.25,14.24-.28,15.43,8.8l14.45,110.25c1.2,9.1-3.75,20-11.05,24.27l-96.56,56.34c-7.25,4.25-14.2.31-15.41-8.77L978,87.37C976.76,78.27,981.74,67.36,989,63.11Z"/><path class="cls-31" d="M992.85,86.91c38.21-22.3,61.82-35.67,97.72-56.62a3.22,3.22,0,0,1,3.19-.25,3.93,3.93,0,0,1,1.86,3.13l10.07,76.08,1.55,11.75a8.57,8.57,0,0,1-3.63,7.95l-97.68,57c-2.39,1.39-4.67.09-5.06-2.89L989.23,94.86C988.84,91.88,990.46,88.3,992.85,86.91Z"/><path class="cls-12" d="M1093.13,30.19l1.71,1,.2.32c-1.94,1.08.35,1.34-1.37.9q-44.06,25.71-88.24,51.13a7.75,7.75,0,0,0-3.27,7.18l-2.29-.27-.77-.94-1-.11-1.64-2a8.46,8.46,0,0,1,.7-4.15,8,8,0,0,1,2.58-3q44.22-25.51,88.28-51.16a2.91,2.91,0,0,1,3-.17l2.08,1.26Z"/><path class="cls-32" d="M1000.44,89.13v.64l1.71,1c1.2,9.07,12.48,79.85,10.39,81.55l-2.21-1.34-.08-.06-1.64-1a3.81,3.81,0,0,1-1.56-2.56c0-.18,0-.36-.07-.53l-10.48-79.4Z"/><path class="cls-33" d="M1003.53,82.53c34.51-20.15,55.84-32.23,88.28-51.16a2.9,2.9,0,0,1,2.88-.22,3.53,3.53,0,0,1,1.68,2.82l9.1,68.74,1.4,10.61a7.75,7.75,0,0,1-3.27,7.19L1015.34,172c-2.16,1.27-4.22.09-4.57-2.6l-10.51-79.72A7.73,7.73,0,0,1,1003.53,82.53Z"/><polygon class="cls-32" points="1000.17 89.05 1067.95 122 1096.34 33.95 1000.17 89.05"/><path class="cls-34" d="M1003.53,82.53c34.51-20.15,55.84-32.23,88.28-51.16a2.9,2.9,0,0,1,2.88-.22,3.41,3.41,0,0,1,1.64,2.56l-30,79.05L1000.2,89A7.74,7.74,0,0,1,1003.53,82.53Z"/><path class="cls-35" d="M1084.85,35.43q-8.28,4.83-16.55,9.72l11.43,88.55,16.57-9.6Z"/><path class="cls-14" d="M1053.77,121.76c-.25-1.9-1.69-2.72-3.21-1.83l-35.41,20.51a5.44,5.44,0,0,0-2.31,5.06l2,16c.25,1.9,1.69,2.72,3.22,1.83l35.41-20.52a5.43,5.43,0,0,0,2.3-5.05Z"/><path class="cls-36" d="M1050.58,130.44c-.11-.83-.73-1.17-1.38-.78l-14.9,8.49a2.37,2.37,0,0,0-1,2.2l.21,1.63c.1.82.73,1.16,1.38.77l14.9-8.48a2.4,2.4,0,0,0,1-2.21Z"/><path class="cls-36" d="M1051.5,137.56c-.09-.72-.64-1-1.22-.68-8.44,4.81-22.29,12.66-30.74,17.47a2.12,2.12,0,0,0-.87,1.94l.18,1.43c.1.73.65,1,1.22.68,8.45-4.81,22.3-12.66,30.74-17.47a2.12,2.12,0,0,0,.88-1.94Z"/><path class="cls-29" d="M10.7,262.05l5.93,40.14c1.28,11.25,4.9,70.76,12,79.19-3.32-1.94-8.85-4.47-11.29-7.38a14.13,14.13,0,0,1-2.73-7L.17,256.72C-1,247.3,4.3,236.32,11.23,232.45l96.56-56.37a9.88,9.88,0,0,1,10-.57c2.91,1.69,5.8,3.39,8.67,5.05-.29-.12-22.37,12.15-22.8,12.38L21.4,239.07C17,244.87,13,254,10.7,262.05Z"/><path class="cls-37" d="M19.9,237.51l96.55-56.37c7.28-4.25,14.23-.28,15.43,8.8l14.45,110.25c1.2,9.1-3.76,20-11.06,24.27L38.71,380.8c-7.25,4.25-14.2.31-15.4-8.77L8.87,261.77C7.66,252.67,12.65,241.76,19.9,237.51Z"/><path class="cls-38" d="M124.65,217.09c-1.9-14.4-12.8-20.64-24.34-13.9l-61.87,37c-11.53,6.73-19.35,23.9-17.45,38.3l9.87,72.31c1.9,14.41,12.81,20.64,24.35,13.9l61.86-37c11.55-6.74,19.36-23.9,17.46-38.3Z"/><path class="cls-39" d="M124.06,218.58c-.6-4.5.63-7.23-1.61-9.77a18.72,18.72,0,0,0-5.09-3.21,37.3,37.3,0,0,0-5.54-2.67c-3.64-1.36-8-.91-12.42,1.69L44,237.76c-10.33,6-17.35,21.42-15.64,34.33l8.85,64.81c.53,4,2,9.16,5.44,12.1a23.92,23.92,0,0,0,5.45,3.39,18.6,18.6,0,0,0,6.75,2.7c2.94.36,3.72-2.3,7-4.23l55.45-33.13c10.35-6.05,17.35-21.43,15.65-34.34Z"/><path class="cls-14" d="M127.54,220.62c-1.71-12.91-11.48-18.5-21.82-12.46L50.27,241.3c-10.34,6-17.35,21.42-15.65,34.34l8.85,64.81c1.7,12.91,11.49,18.49,21.82,12.46l55.45-33.14c10.35-6,17.35-21.43,15.65-34.33Z"/><path class="cls-40" d="M128,220.68c-1.71-13-11.53-18.74-21.9-12.68L50.29,241.28c-10.85,6-17.34,21.7-15.63,34.65l1.63,12.26,93.34-55.09Z"/><path class="cls-41" d="M126.54,246.74c-.4-3-2.67-4.28-5.08-2.83L48.13,285.85a8.79,8.79,0,0,0-3.64,8.1l.77,6c.39,3,2.67,4.28,5.08,2.83l73.33-41.94a8.8,8.8,0,0,0,3.64-8.1Z"/><path class="cls-41" d="M129.59,270.35c-.4-3-2.67-4.28-5.08-2.83L51.18,309.46a8.79,8.79,0,0,0-3.64,8.1l.77,6c.39,3,2.67,4.28,5.08,2.83l73.33-41.94a8.8,8.8,0,0,0,3.64-8.1Z"/><path class="cls-41" d="M132.48,292.69c-.4-3-2.68-4.28-5.09-2.83L54.06,331.8a8.82,8.82,0,0,0-3.64,8.1l.77,6c.4,3,2.68,4.28,5.09,2.83l73.32-41.94a8.78,8.78,0,0,0,3.65-8.1Z"/><path class="cls-42" d="M393.26,738.1l74.35-40.53c1.84-1,3.56,0,3.9,2.13l1.72,10.95a5.84,5.84,0,0,1-2.67,5.72l-74.35,40.54c-1.8,1-3.52,0-3.86-2.16l-1.72-11A5.89,5.89,0,0,1,393.26,738.1Z"/><path class="cls-42" d="M345,748.33a2.17,2.17,0,0,0-.88,2.86l20.37,26.24a.92.92,0,0,0,1.23.19,2.2,2.2,0,0,0,1-1.16l12.36-32.32c.52-1.33-.27-2.43-1.34-1.87l-5.9,3.11a2.24,2.24,0,0,0-1,1.18l-5.11,13.37a2.27,2.27,0,0,1-1,1.17.93.93,0,0,1-1.23-.19l-11.86-15.25a1,1,0,0,0-1.23-.18Z"/><path class="cls-42" d="M400,789.34l74.36-40.53c1.83-1,3.56,0,3.9,2.13l1.71,11a5.8,5.8,0,0,1-2.67,5.71L403,808.15c-1.79,1-3.52,0-3.86-2.15l-1.72-11A5.9,5.9,0,0,1,400,789.34Z"/><path class="cls-42" d="M351.75,799.57a2.17,2.17,0,0,0-.87,2.86l20.36,26.25a1,1,0,0,0,1.24.19,2.25,2.25,0,0,0,1-1.17l12.36-32.32c.52-1.33-.27-2.43-1.34-1.87l-5.9,3.11a2.24,2.24,0,0,0-1,1.18l-5.11,13.37a2.22,2.22,0,0,1-1,1.17.93.93,0,0,1-1.23-.19L358.41,796.9a1,1,0,0,0-1.23-.18Z"/><polygon class="cls-43" points="438.58 549.01 441.05 652.63 340.41 711.58 340.81 607.53 438.58 549.01"/><path class="cls-44" d="M438.43,548.86c-.22,30.54,7.89,61.2,21.06,79.18L361.84,689.7c-11.3-13.41-21.68-54.2-20.8-82.22Z"/><path class="cls-8" d="M1198.47,1071.15l-161.35-91.89c-17.59-8-42.76-14.43-60.68-5.11-16.33,8.5-43.23,25.89-55.12,32.68-9,5.15-40.39,23.94-20.86,34.56,57.45,31.24,114.32,66.38,172.66,98.12,11,6,27.18,8.17,44.12,6.76S1151.42,1140,1165,1132l28.61-16.65c12.66-7.37,19.37-16.09,20-24.14C1214.32,1083.38,1209.27,1076.08,1198.47,1071.15Z"/><path class="cls-45" d="M965.55,538.76c12.12-7,55.15-68.84,78-102.84,13-19.29,10.17-37.38-9.74-44.29C994.38,378,983,427.25,970.46,450.77c-14,26.28-29.5,47.13-32.89,67.37C935.08,533,952.94,546,965.55,538.76Z"/><path class="cls-46" d="M1125,1014.75c1,3.21.56,5.9,2.26,10.11a121,121,0,0,1,5.65,16.24c3,11.32-.26,26.47,3.78,42.48,2,6.4,2,11.52-2.06,17.18s-11.61,14.42-21.84,14.09a15.8,15.8,0,0,1-10.94-5.24,26.5,26.5,0,0,1-7-19c.14-3.05,1.64-12.88,1.08-21.83-.48-7.84-2-12.16-2.1-20.76-.06-9.08.29-21.59.27-27.45Z"/><path class="cls-46" d="M1033.35,968.2c3.19,8,5.24,11.49,5.69,22.72-1.65,5.94-5.76,8.35-10.31,12.44l-3.26.72c-8,4.41-10.56,19.85-17.91,26.88-5.19,5-15.72,7.66-26.19,9.7-11.19,2.17-22-1.05-19.28-9.9,6.66-22,37.41-46.8,37.44-71.36Z"/><path class="cls-47" d="M981.77,811.54c2,42.11,13.37,120.91,13.12,162.4,11.06,10.79,32.51,7.45,39.2-3.59,3.3-38.18,6.88-92.42,6.79-113.37-.07-17.44-2.08-33.47-7-49.13,5-46.08,29.81-108.94,22.26-152.29-3.32-19-16.37-39.53-20.44-55.24C1005.43,639,981,620.45,967.92,617.1c.44,13.35-.62,11.57.21,25.61,2.79,47.48,6.42,98.18,10.41,147.44C978.65,797.51,979.54,805.6,981.77,811.54Z"/><path class="cls-48" d="M1039.27,896.92c1-16.58,1.65-31,1.61-39.94-.07-17.44-2.08-33.47-7-49.13,5-46.08,29.81-108.94,22.26-152.29-3.32-19-16.37-39.53-20.44-55.24C1005.43,639,981,620.45,967.92,617.1c.05,1.48.08,2.78.09,3.94l42,30.39-10.19-2.29c1.91,54.72,10.08,104.6,12.61,158.55,11.47,30.6,18.44,56.73,26.66,88.27Z"/><path class="cls-49" d="M1052.52,842.17c8.74,42.1,33.67,144.29,40.09,185.78,13.8,7.55,31,3.6,35.53-7.44-.91-38.18-3-106.85-6.43-127.8-2.87-17.43-9.79-44.33-17.2-60,0-98.38,10.29-124.6-4.22-168-6.37-19-22.16-37.41-28.75-53.11-8.06,12.93-20.54,31.29-48.45,29-2.73-.22-26.41-16.81-34.12-18.71,11.35,58.53,41.48,135,56.89,198.81C1047.16,828.14,1049.34,836.23,1052.52,842.17Z"/><path class="cls-50" d="M1017,395.57a22.81,22.81,0,0,0-8.68,2.26c-21,9.81-28.8,42.34-34.06,71-4.56,24.89-3.11,45.48-3.92,68.5-.63,18.35-4.18,35.13-4.56,52.52-.12,5.15-1.25,10.43.26,16.34a80.4,80.4,0,0,1,.84,13.08c16.65,36.56,105.73,41.93,121.19,20.17a32.8,32.8,0,0,1-2.59-10c8-7.29,2.85-27.78,5.24-41.63,1.8-10.41,4-21,7.68-28.42,15.23-31.12,35.1-54.51,40.42-78.85,3.66-16.76-16.51-39.35-43.86-58.42C1068.6,403.87,1032,392.3,1017,395.57Z"/><path class="cls-51" d="M974.51,486.07a231.68,231.68,0,0,0,21.5,20.6l-14,18.27-7.47-38.87Zm109.1,79.25a2.7,2.7,0,0,0-2.6,2.52,2.27,2.27,0,0,0,2.25,2.51,2.71,2.71,0,0,0,2.61-2.52,2.29,2.29,0,0,0-2.26-2.51Zm-13.54-15.8a2.68,2.68,0,0,0-2.6,2.51,2.26,2.26,0,0,0,2.25,2.51,2.69,2.69,0,0,0,2.6-2.52,2.26,2.26,0,0,0-2.25-2.5Zm-17.79,9.77a2.7,2.7,0,0,0-2.6,2.52,2.27,2.27,0,0,0,2.25,2.51,2.7,2.7,0,0,0,2.6-2.52,2.27,2.27,0,0,0-2.25-2.51ZM1039.2,539.2a2.71,2.71,0,0,0-2.61,2.52,2.28,2.28,0,0,0,2.26,2.51,2.7,2.7,0,0,0,2.6-2.52,2.27,2.27,0,0,0-2.25-2.51Zm-18.56,5.9a2.7,2.7,0,0,0-2.6,2.52,2.27,2.27,0,0,0,2.25,2.51,2.69,2.69,0,0,0,2.6-2.52,2.27,2.27,0,0,0-2.25-2.51Zm-9.3-21.84a2.7,2.7,0,0,0-2.6,2.52,2.27,2.27,0,0,0,2.25,2.51,2.69,2.69,0,0,0,2.6-2.52,2.27,2.27,0,0,0-2.25-2.51Zm-18.52,3.21a2.7,2.7,0,0,0-2.61,2.52,2.27,2.27,0,0,0,2.26,2.51,2.71,2.71,0,0,0,2.6-2.52,2.27,2.27,0,0,0-2.25-2.51Zm-8.07-23.58a2.69,2.69,0,0,0-2.6,2.52,2.27,2.27,0,0,0,2.25,2.51,2.7,2.7,0,0,0,2.6-2.52,2.27,2.27,0,0,0-2.25-2.51Zm-14,5.31a2.7,2.7,0,0,0,.56-1.46,2.4,2.4,0,0,0-.49-1.66l-.07,3.12Zm130,43.95a2.69,2.69,0,0,0-2.6,2.52,2.31,2.31,0,0,0,1.42,2.35c.77-1.54,1.56-3,2.35-4.55a2.1,2.1,0,0,0-1.17-.32ZM1000,509.94a209.24,209.24,0,0,0,24.31,17l-18.94,17.78L1000,509.94Zm28.5,19.42a159.36,159.36,0,0,0,24.09,11l-17.65,20.48-6.44-31.52Zm29.68,12.91a121.16,121.16,0,0,0,26,5.1l-16.27,23.54-9.74-28.64Zm29.32,5.32a107.14,107.14,0,0,0,17.39-.53c1-1.74,1.93-3.47,2.91-5.16-18.23,2.66-35.66.06-51.56-5.36l-.09-.27-.16.19c-48.05-16.49-82.09-58.65-82.22-58.81l-.75-1.17c-.52,3.67-.92,7.25-1.23,10.77l7,36.34c-3.31-3.25-6-6.12-8.09-8.37l-.07,7.16c18.45,19.15,65.59,61.11,121.6,57.43.33-1.63.68-3.25,1-4.84a104,104,0,0,1-24.08-1l16.26-23.53L1094,572c.42-1.6.86-3.16,1.33-4.65l-7.84-19.73Zm-21.86,25.78a132,132,0,0,1-29.63-9.49l18.94-22,10.69,31.46Zm-33.45-11.28a181.52,181.52,0,0,1-25.3-15l18.66-17.52,6.64,32.52Zm-29.91-18.35L997,509.93l-13.78,17.94A226.11,226.11,0,0,0,1002.25,543.74Z"/><path class="cls-52" d="M1069.57,649.64c8.54-2.13,15.17-5.53,18.46-10.16a32.8,32.8,0,0,1-2.59-10c8-7.29,2.85-27.77,5.24-41.63,1.8-10.41,4-21,7.68-28.42,15.23-31.12,35.1-54.51,40.42-78.85,1.94-8.86-2.8-19.36-11.73-30.1-9.22-1.51-18-.34-23.72,4.5-15.22,12.88-18.79,43-23.49,63.49-7.12,31-28.07,20.22-43.32,12.12,6.67,7.63,16.71,12,26.78,14.49,3.55.88,6.42,7.84,5.9,15-1.58,21.31-3.82,48.42-3.82,70.11-29.06,10.53-63,2-79.16-5,25,15.6,53.94,17,79.57,13.4C1069.05,641.59,1069.69,645.44,1069.57,649.64Z"/><path class="cls-53" d="M1125.65,632.89c-4.62,1.69-12.61,2.64-16,3.85-1.75.62-14.35,5.4-21.49,8.39-7.65,3.21-10.84,9.38-16.3,15.86-4.06,5.36-6.14,9.4-7.14,12.28s5.59,10.41,9,10.33c7.84-.18,17.33-7.9,19.52-8.53,18.56-5.42,26.79-4.69,34.24-10.44,3.19-2.45,6.48-10.82,13.38-17.56l-8.48-11.38Z"/><path class="cls-54" d="M1141.29,458.62c23.07,22.55,46.39,62.13,69.09,91.3,8.14,10.47,3.73,19.14-2.71,28.61-13,19.1-28.05,40.07-55.82,63.68-2.08,1.77-4.39,1.9-7.49,2.75-1.74,1.44-4.18,4-6,5.55,2.31-3-10.13-17.87-16.39-16.88,1.61-2,2-2.8,3.7-5.09.21-2.86.27-4.7,1.34-7.14,6.57-14.88,23.55-39.55,37.9-55.27-18.54-15-35.26-32.11-49.8-48.9-3.8-4.38-5.84-6.51-9.58-11.06-15.84-19.3-11.26-46.5,2.77-55.77C1116.52,444.94,1127.17,444.81,1141.29,458.62Z"/><path class="cls-55" d="M1039.89,408.9c.09-1.56.09-3.14.17-4.82.2-4.79,3.55-13.37,4.89-24.12l43.69-7.06c-4.77,22.4-2.25,27.88-2.59,47-4.79,17.71-51,14.86-46.81-6.29A32.53,32.53,0,0,0,1039.89,408.9Z"/><path class="cls-56" d="M1039.89,408.9c.09-1.56.09-3.14.17-4.82.2-4.79,3.55-13.37,4.89-24.12l43.69-7.06c-1.08,5.09-1.79,9.32-2.25,13-2.19,15.08-22.58,37.28-47.15,27.67A32.53,32.53,0,0,0,1039.89,408.9Z"/><path class="cls-55" d="M1036,401.65c5.91-1,21.77-3.08,27.19-4.28,11.87-2.62,14.49-11.49,22.89-23.5,11-2.29,16-5.8,19.07-10.84,7.41-12,6.21-28.94-.22-40.75-5.62-10.33-14.6-16.49-26.68-18.94-23.47-4.76-39.43,7.54-48.73,25.55a13.47,13.47,0,0,0-1.43,4.87,63.06,63.06,0,0,1-1.06,7.74c-1.29,6-5.88,6.35-7.41,13.82-2.09,10.17-2.38,31.67-.56,36.09C1020.44,394.81,1030.91,400.33,1036,401.65Z"/><path class="cls-57" d="M1034.09,321.28a65.64,65.64,0,0,0-4.59,7.61,13.47,13.47,0,0,0-1.43,4.87,63.06,63.06,0,0,1-1.06,7.74c-1.29,6-5.88,6.35-7.41,13.82a120,120,0,0,0-1.74,19.61c9.16,16.56,26.85,9.08,29.74,7.52,13.55-7.33,21.57-23.69,21.9-42.13C1058.09,339.27,1042.13,331.43,1034.09,321.28Z"/><path class="cls-58" d="M1113.78,359.64c-3.69,6.82-17.25,22.55-24.42,27.44-6.77,4.62-2.66-1.39-2-6.87a6.51,6.51,0,0,0,3.92-3c3.36-5.66,6.61-15.74-3.07-15.64-5,.05-8.88,4.87-10.75,9.53a6.15,6.15,0,0,1-3.07,1.31c-1.64.13-4.75-.06-3.18-3.9,5.43-13.3-.38-16.95,5-23.95,4.08-5.25,4.84-7.95,4.34-10.71-4.55-1.3-9.25,1.88-15.23,1.83-4.15,0-20.28-5.2-28.59-16-8-10.45-3.33-23.78,9.22-28.13,7-2.43,13-1.15,23.1-2.92,19.19-3.37,36.14,8.32,41.29,23.71C1128.12,324.85,1122,344.38,1113.78,359.64Z"/><path class="cls-59" d="M1077.87,325c-1.64,5.83-11.54,9.17-21.71,5.33-9.42-3.56-20.93-11.24-20.6-24.44.11-4.65,5.14-10.78,10.92-11.67,4-.61,7.77,1.39,11,4.92,5.48,6,7.8,16.1,11.84,20.11C1073.17,323.11,1078,324.42,1077.87,325Z"/><path class="cls-55" d="M1088.2,361.56c9.68-.1,6.43,10,3.07,15.64-2.31,3.88-5.67,2.43-8,5.33-2.79,3.45-6.46,4.28-9,3.34-5.25-1.89.62-8.69,2.28-11.61C1077.56,368.94,1082.05,361.62,1088.2,361.56Z"/><path class="cls-60" d="M991.38,442.56c2.76-4.52,10.08-11.86,16.38-17.6,8-7.31,11.82-15.14,13.61-27.72.38-2.67-2.33-7-5.52-7.67a37.25,37.25,0,0,0-5.38-.65,21.66,21.66,0,0,0-5.25-6.47c-2.21-2.09-3.73-2.4-6.71-1.44-4.56,1.46-8.51,3.06-10.37,4.59s-5.3,6.36-8.29,11.1c-2.58,4.1-6.05,11.91-5.29,15.16,1.69,7.13,3.71,8.81,2.29,13.12L973,436.58Z"/><path class="cls-60" d="M1014.73,389c-1.54-3.7-1.28-4-3.84-7.2-2-2.52-3.55-3.05-6.81-2.48-5,.87-9.34,2-11.51,3.3s-6.46,5.89-10.27,10.42c-3.29,3.91-4.15,5.76-6.65,11.63l4.23,1,9.62-2.1C1004.5,403.66,1012.33,389.83,1014.73,389Z"/><path class="cls-61" d="M986.91,406.52c2.79.16,1.94.74,4.49-.36.05,2.44,1.75,5,2.82,4.67A4.35,4.35,0,0,0,997,407.6a8,8,0,0,0-3.31-7.88c-1.1-.73-5.14-.81-10.58-.87-2.83,0-4.08-.24-5.21,1a12.81,12.81,0,0,0-2.14,4.17c-1.29,3.81-1.78,7.06-.62,9.2C978.62,410.74,982,404.44,986.91,406.52Z"/><path class="cls-61" d="M1015.46,389.35a23.13,23.13,0,0,0-4.57-7.52,8.47,8.47,0,0,0-2-1.95l-14.63,20c1.26,1.67,5.06,9-.25,11C998.7,409.17,1008.14,402,1015.46,389.35Z"/><path class="cls-60" d="M1019,406.43c2.29-4.05,1.94-7.21,3-11.1.76-2.75-.27-6.23-3.63-7a40.25,40.25,0,0,0-5.68-.68l-3.69.64c-2.65,5.81,1.23,9.78,4.63,10.07.66.66-2.43,13-3.78,17.57C1009.48,417.34,1016,412.92,1019,406.43Z"/><path class="cls-61" d="M1009,388.16c0,3.89,3.53,8.58,10.35,8.38a8,8,0,0,1-8.44.94C1007.46,395.71,1005.78,391.41,1009,388.16Z"/><path class="cls-62" d="M999.07,433.34c-2.87,3.88-21.79-2.72-23.19-6.45l-3.46,6.86c-2.12,1.61-5.77,4.86-6.95,6.66-17,25.93-23.12,50.28-30.56,80.57-4.82,19.57,14.91,30.53,27.54,24.29,24.34-12,31.77-74.41,34.76-96.29.21-1.51-1.45-5.81-1.05-7.27C997,439.53,998.47,434.67,999.07,433.34Z"/><path class="cls-63" d="M999.07,433.34c-.68.92-2.25,1.25-4.28,1.17-.68,3.87-1.25,6.05-2.73,7.33-9.21-2.09-11.36-3.53-19.64-8.09a39,39,0,0,0,16.14,13.05c-1.19,13.67-17.08,88.94-42.22,98.44a19.25,19.25,0,0,0,16.11,0c24.34-12,31.77-74.41,34.76-96.29.21-1.51-1.44-5.81-1.05-7.27C997,439.53,998.47,434.67,999.07,433.34Z"/><path class="cls-8" d="M1352.28,1374.49c-33.29,0-60.27,15.63-60.27,34.91s27,34.91,60.27,34.91,60.26-15.63,60.26-34.91S1385.56,1374.49,1352.28,1374.49Z"/><path class="cls-64" d="M1282,1294.74c3,0,127.6-.42,139-.39,0,2.58-.38,5.32-.61,7.89a249.07,249.07,0,0,1-5.32,34.24l-.06.26c-5.2,22.07-14.3,43.13-28.89,60.62-3.78,4.59-11.52,13.15-16.62,16.2-9.49,5.67-25.09,5.82-34.85.35a20,20,0,0,1-3.36-2.33,127,127,0,0,1-19.71-21.66c-11.63-16.24-19.28-35.11-23.72-54.52C1284.68,1321.93,1283.22,1308.46,1282,1294.74Z"/><path class="cls-65" d="M1351.51,1255.36c-36.82,0-66.67,16.84-66.67,37.61s29.85,37.61,66.67,37.61,66.68-16.84,66.68-37.61S1388.33,1255.36,1351.51,1255.36Z"/><path class="cls-66" d="M1351.51,1265.63c-35.74,0-64.71,16.35-64.71,36.51,0,9.85,23.43,27.15,64.9,29.06s63.19-20.36,64.52-29.06C1416.22,1282,1387.25,1265.63,1351.51,1265.63Z"/><path class="cls-12" d="M1351.51,1253.65c-38.42,0-69.56,18-69.56,40.3s31.14,40.29,69.56,40.29,69.56-18,69.56-40.29-31.14-40.3-69.56-40.3Zm0,2.81c35.74,0,64.71,16.35,64.71,36.51s-29,36.51-64.71,36.51-64.71-16.35-64.71-36.51S1315.77,1256.46,1351.51,1256.46Z"/><path class="cls-12" d="M1283.4,1302.18c6.56,18.3,34.56,32.06,68.11,32.06,32.7,0,60.13-13.07,67.57-30.68l.06-.13-1.26-.12-3.83-.68-.13,0c-7.52,15.46-32.61,26.83-62.41,26.83-30.47,0-56-11.88-62.89-27.88l-3.64.17-1.58.41Zm135.94.74-1.17-.54,1.22.41Z"/><path class="cls-67" d="M1271.62,1003.68a219.72,219.72,0,0,0-24.42,34.42c2.07,3.7,3.9,7.49,6,11.23-4-1.75-6.92-3-9.84-4-17.67,35.24-17.44,67.2-5.25,95.65,9.58,4.1,12.11,4.68,24.08,6l-17.37,7.32c15.24,26,42.38,39.28,34.11,80.57-.33,1.6-.63,3.22-.91,4.85q10.62,6.88,21.27,13.73c-11.1-.73-15.38-.8-22.47.55.62,19.22,12.39,39.45,64,58.08,5-.4,17.47-6.46,20.07-10-2.28-17.9,3.1-49.23,7.7-73.86,3.74-20,2.48-34.08-2-44.88-6.42,3.18-13.05,5.48-19.65,8.37,5.32-9.49,7.92-14.09,10-23.37-16.2-17.8-43.19-26.94-61.79-56.52-1.12-1.78-2.27-3.66-3.43-5.63-3.63,1.56-7.31,2.93-11,4.54,3-5.36,4.89-8.7,6.31-12.91C1275,1074.82,1263.85,1042.4,1271.62,1003.68Z"/><path class="cls-68" d="M1276.84,1200.59c3.59,9.23,4.92,20.1,2.08,34.26-.33,1.6-.63,3.22-.91,4.85q10.62,6.88,21.27,13.73c-11.1-.73-15.38-.8-22.47.55.62,19.22,12.39,39.45,64,58.08,5-.4,17.47-6.46,20.07-10-2.28-17.9,3.1-49.23,7.7-73.86,3.74-20,2.48-34.08-2-44.88-6.42,3.18-13.05,5.48-19.65,8.37,5.32-9.49,7.92-14.09,10-23.37-10.22-11.23-24.74-19-38.73-30.66C1311,1161.64,1290.14,1176.49,1276.84,1200.59Z"/><path class="cls-69" d="M1265.49,1134.76c-8.25-3.38-20.09-12.17-27.18-20.63,8.43,5.37,15.45,10.88,23.39,13.75a87.68,87.68,0,0,1-3.9-9.1c-10.4-28.79-3.85-54.3,4.27-81.87-5.38,21.91-10,42.74-5.72,64.41,2.05-6.76,6.23-11.86,11.73-19.93-4.23,9.83-8.84,18.38-9.51,28.66q1.15,3.66,2.68,7.38c5.24,12.61,13.12,22.62,21.69,31.79-.88-8.8,1.72-16.21,5.51-26.39-1.58,9.52-3.22,21.11-1,31,11.92,12.15,24.53,23.33,32.93,38,4.36-18.74,3.29-15.34,7.54-33.88,1.43,20.29.79,28-3.4,42.27a72.11,72.11,0,0,1,5.16,20.3c2,18.89,1.89,30.64,3.08,40.83,10.59-21.43,5.72-11.36,19.93-41.81-1.32,17.76-.76,19.72-17.48,54.27,2.69,9.12,7.75,18.91,17.93,33.78a52.16,52.16,0,0,1-9.78,4c-18.58-27.73-18.62-38.5-18.94-59.32-8.08-14.14-18.35-30.13-29.35-40.85,10,3.81,18,9.51,28.94,26.36-.23-5-.62-10.51-1.29-16.8-1.78-16.8-9.75-29.57-19.71-41.44-19.37-8-23.39-7.9-32.14-10.14,11.13-1.16,18-.38,24.65,1.66C1285.13,1159.8,1273.87,1148.66,1265.49,1134.76Z"/><path class="cls-70" d="M1420.52,873.34a307,307,0,0,0-49.33,32.24c.8,5.86,1.23,11.72,2,17.66-4.3-4.33-7.44-7.5-10.74-10.24-41,36.77-57,78.41-55.72,121.61,10.34,10.23,13.34,12.27,28.22,20.08l-26.31.63c6.54,41.51,35,72.72,3.12,122.13-1.23,1.92-2.46,3.86-3.66,5.84q10.29,14.37,20.62,28.72c-14-6.63-19.58-8.9-29.48-10.77-9,25.28-4.06,57.59,53.53,108.22,6.75,2,26,.53,31.22-2.79,6.19-24.43,29.2-62.4,47.77-92.05,15.11-24.12,20.66-43,20.39-59.32-10,.85-19.76.44-29.81.82,11.76-9.6,17.49-14.26,24.93-25.25-12-31.41-42.36-57.09-51.39-105-.55-2.88-1.08-5.91-1.59-9.07-5.51.18-11,.07-16.59.28,6.64-5.42,10.79-8.8,14.79-13.55C1388.53,967.5,1390.63,919.69,1420.52,873.34Z"/><path class="cls-71" d="M1345.52,1040.53c-9-8.61-19.87-26.08-24.76-40.69,8.21,11.27,14.51,22,23.37,29.82a121.34,121.34,0,0,1-.42-13.82c1.2-42.73,22.76-72.54,47.41-104.2-18.2,25.71-34.9,50.4-40.37,80.77,6.12-7.74,14.17-12.22,25.44-19.9-10.52,10.61-20.9,19.37-27,32.38-.26,3.56-.36,7.22-.29,11,.35,19.06,5.47,36.09,11.93,52.39,3.35-11.88,10.52-20.18,20.64-31.47-6.92,11.57-15,25.78-17.22,39.79,9.27,21.9,19.93,42.86,23.37,66.16,15.26-22.13,12.12-18.26,27.12-40.17-8.5,27.09-13.3,36.81-26,53.19a101,101,0,0,1-3.68,29c-7,25.57-13.21,40.78-16.88,54.62,24.73-22.43,13.25-11.83,47.27-44.13-10.79,22.39-11.06,25.23-50.45,61.58-1.17,13.22.39,28.53,6,53.05a72.28,72.28,0,0,1-14.75.22c-10-45.53-4.52-59.55,5.72-86.77-3.27-22.5-8.44-48.54-17.25-68.09,11.1,10.09,18.48,21.54,24.13,49.06,2.23-6.58,4.56-14,6.91-22.49,6.28-22.75,2.45-43.41-4.43-63.93-21.08-20.29-26.35-22.23-36.57-29.61,15,4.19,23.52,8.69,31.18,14.77C1358.25,1083.12,1349.31,1062.88,1345.52,1040.53Z"/><path class="cls-8" d="M77.83,1437.07l162.83-92.74c17.75-8.11,43.16-14.56,61.24-5.15,16.48,8.58,43.63,26.13,55.63,33,9.11,5.2,40.76,24.16,21.05,34.88-58,31.53-115.37,67-174.25,99-11.14,6.06-27.43,8.25-44.53,6.83s-34.49-6.38-48.22-14.36L82.7,1481.71c-12.77-7.44-19.54-16.23-20.21-24.36C61.83,1449.41,66.94,1442.05,77.83,1437.07Z"/><path class="cls-72" d="M333,857.74c24.12-13.31,56.49-22.68,71.54-26.76,2.2-.6,18-4.6,20.13-5.33,1.18-.59,6.47-2.77,7.41-3.28.49,11,4,19.48,10.39,26.15-1.1.44-6.87,3.48-8.05,4-1.76,1-4.24,5.94-5.55,7.44-13.06,15-54.92,37.93-87.91,50.53l-.12,0c-8.12,4-20.15,2-26-5.35-3.74-2.58-7.37-5.39-9.79-7-18.71-12.22-53.62-56.28-81-126.13,4.65-5.32,19.94-12.22,22.73-13.28,12.14-4.64,23.94.17,28.34,3.87,8,6.75,17.35,20,25.49,42.34,5.49,15.06,20.64,33.84,31.75,51.7Z"/><path class="cls-73" d="M314.84,905.17c-3.74-2.58-7.37-5.39-9.79-7-18.71-12.22-53.62-56.28-81-126.13,27.68-31.69,65.89,6.26,76.13,34.35,13.27,36.4,25.45,67.31,32.45,106.06C325.58,913.38,319.57,911.12,314.84,905.17Z"/><path class="cls-55" d="M452.83,808l4.88-8.11c1.14-1.28,3-2.4,4.82-1.45,6.64,3.5,5,16-3.7,22.62,10.42.37,14,2.85,14.48,7.54.77,7.34-.63,34.72-5.35,36.68-3.89,1.62-23,3.43-26.59.36-2.65-2.25.19-4.1-3.36-7.84-1.18-1.25-6.21-1.27-10-4.28-4.91-3.91-6-17.39-2.63-25.14.12-4.7.64-7.77,2.22-10.18C433.73,808.8,446.72,818.14,452.83,808Z"/><path class="cls-74" d="M450.46,827.77c2.53.59,1.85,1.49,5.3,1.79-.83,1.22-3.95,2.25-7.3,3.42-3.91-1.26-5.4-1.46-6.88.91-4.3,6.9-2.77,21.44-2.43,25.55-1.59-3.71-11.28-3-13.6-8.93-1.66-5.1-3.11-17.65-.3-20.19a9.74,9.74,0,0,0,9.64,3.84C440.84,832.9,448.82,827.39,450.46,827.77Z"/><path class="cls-75" d="M141.19,1386.81c-.9,3.27-.39,6-2,10.3a120.18,120.18,0,0,0-5.29,16.54c-2.71,11.52,1,26.95-2.64,43.25-1.88,6.52-1.74,11.74,2.59,17.5s12.23,14.69,22.65,14.35a15.61,15.61,0,0,0,11-5.33,26.28,26.28,0,0,0,6.57-19.33c-.23-3.1-2-13.11-1.72-22.23.27-8,1.73-12.38,1.55-21.13-.2-9.26-.91-22-1.05-28Z"/><path class="cls-75" d="M233.2,1339.4c-3,8.2-5,11.7-5.15,23.14,1.85,6,6.11,8.5,10.85,12.67l3.34.73c8.29,4.49,11.32,20.22,19,27.38,5.43,5,16.23,7.8,26.95,9.87,11.46,2.21,22.34-1.06,19.36-10.07-7.41-22.38-39.44-47.67-40.17-72.68Z"/><path class="cls-76" d="M281.26,1179.85c-.82,42.88-10.16,123.14-8.74,165.4-10.95,11-32.89,7.58-40-3.66-4.45-38.88-9.63-94.12-10.15-115.46-.42-17.76,1.17-34.09,5.7-50-6.36-46.92-33.46-110.94-27-155.09,2.84-19.39,15.54-40.26,19.24-56.26,32,39.38,56.32,20.51,69.54,17.09-.07,13.6,1,11.79.52,26.09-1.49,48.35-3.74,100-6.4,150.15C284,1165.57,283.36,1173.8,281.26,1179.85Z"/><path class="cls-48" d="M225.14,1266.81c-1.5-16.89-2.57-31.59-2.79-40.68-.42-17.76,1.17-34.09,5.71-50-6.37-46.92-33.47-110.94-27-155.09,2.84-19.39,15.54-40.26,19.24-56.26,32,39.38,56.32,20.51,69.54,17.09,0,1.51,0,2.84,0,4l-41.89,31,10.32-2.33c-.39,55.72-7.29,106.52-8.32,161.47-10.81,31.16-17.17,57.77-24.64,89.89Z"/><path class="cls-77" d="M210.08,1211c-7.7,42.89-30.18,147-35.53,189.21-13.84,7.69-34.17,5-39.06-6.24-.16-38.88,0-108.82,2.91-130.15,2.42-17.76,8.7-45.16,15.8-61.11-2.84-100.19-11.37-128.22,2.17-172.37,5.94-19.39,21.5-38.1,27.76-54.09,8.58,13.17,21.82,31.87,50.17,29.56,2.78-.23,26.42-17.12,34.22-19.06-9.89,59.61-38.4,137.47-52.27,202.48C215.14,1196.76,213.15,1205,210.08,1211Z"/><path class="cls-78" d="M254.28,754.09a23.87,23.87,0,0,1,8.85,3c21.09,11.71,28.45,46.18,31.83,76.38,2.94,26.2.71,47.94-.12,71.9-.66,19.12,1.8,36.82,1,54.91-.26,5.36-2.29,11.18-2.84,16.88-1.65,4.08-1.44,8.15-1.39,11.29C281,1028.7,181.19,1032,166.66,1004.77a80.58,80.58,0,0,0,2.56-12.19c-9.4-8.56-4-29.42-5.45-44-1.11-10.94-2.68-22.1-5.92-30.08-13.58-33.44-32.53-59.18-36.3-84.85-2.59-17.68,20-39.69,49.8-57.52C200,759,238.93,749.62,254.28,754.09Z"/><path class="cls-44" d="M171.51,912.91a2.84,2.84,0,0,1,2.54,2.83,2.38,2.38,0,0,1-2.54,2.46,2.84,2.84,0,0,1-2.54-2.83,2.38,2.38,0,0,1,2.54-2.46Zm-14,4.68.38.92c.4,1,.77,2,1.13,3.1l11.73-24.4L186,923a109.73,109.73,0,0,1-26.88-1c.53,1.67,1,3.43,1.43,5.27,62.21,9,117.81-37.37,135.69-54.21.07-2.46.13-4.92.16-7.4-2.3,2.3-6.46,6.31-12.17,11.18l11-41.28-.13-1.24h0v0h0v0h0v0h0v0h0v0h0v0h0v0h0v0h0v0h0v0h0v0h0v0h0v0h0v0h0v0h0v0h0v0h0v-.1h0v-.1h0v-.08h0v-.1h0V833h0v-.1h0v-.08h0v-.1h0v-.08h0v-.1h0v-.07h0v-.1h0v-.18h0V832h0v-.09h0v-.08h0v-.09h0v-.08h0v-.18h0v-.1h0v-.07h0v-.1h0v-.08h0V831h0c-.14-1.21-.3-2.44-.45-3.67l-.69,2.58-.72-.68c-.15.16-38.83,41.77-90.28,55.51l-.15-.2-.12.28c-17.14,4.54-35.68,6-54.69,1.76l-.74,4.92a111.12,111.12,0,0,0,21.93,2.59l-11.3,23.51Zm14.78-23.5,15.3,25.82,12.27-29.26a126.11,126.11,0,0,1-27.57,3.44Zm33.56-5a166.64,166.64,0,0,0,26-9.8l-9,32.5-17-22.7Zm30.56-12a218.74,218.74,0,0,0,26.66-16l-8.15,36-18.51-20Zm31-19.15a243,243,0,0,0,24-20l-10.65,40.11-13.34-20.13Zm11.81,23.11a237.77,237.77,0,0,1-21,15.22l7.93-35,13.1,19.78Zm-26.11,18.38a190,190,0,0,1-27.55,13.85l9.31-33.53,18.24,19.68Zm-31.67,15.44a138.09,138.09,0,0,1-31.69,7.77l13.48-32.13,18.21,24.36Zm-66.91-17a2.83,2.83,0,0,1,2.54,2.82,2.38,2.38,0,0,1-2.54,2.46,2.83,2.83,0,0,1-2.54-2.82,2.38,2.38,0,0,1,2.54-2.46Zm141.25-40.53a2.61,2.61,0,0,1,.63.13c0,1.71,0,3.42,0,5.11a2.35,2.35,0,0,1-.65,0,2.82,2.82,0,0,1-2.54-2.82,2.38,2.38,0,0,1,2.54-2.46Zm-16.32-2.54a2.82,2.82,0,0,1,2.54,2.82,2.38,2.38,0,0,1-2.54,2.46,2.82,2.82,0,0,1-2.53-2.82,2.37,2.37,0,0,1,2.53-2.46Zm-10.15,24.08a2.83,2.83,0,0,1,2.54,2.82,2.38,2.38,0,0,1-2.54,2.46,2.84,2.84,0,0,1-2.54-2.83,2.38,2.38,0,0,1,2.54-2.45Zm-19.15-4.71A2.83,2.83,0,0,1,252.7,877a2.38,2.38,0,0,1-2.54,2.46,2.83,2.83,0,0,1-2.53-2.83,2.37,2.37,0,0,1,2.53-2.46Zm-11.31,22.17a2.82,2.82,0,0,1,2.53,2.82,2.37,2.37,0,0,1-2.53,2.46,2.82,2.82,0,0,1-2.54-2.82,2.38,2.38,0,0,1,2.54-2.46Zm-19-7.52a2.83,2.83,0,0,1,2.54,2.82,2.38,2.38,0,0,1-2.54,2.46,2.83,2.83,0,0,1-2.54-2.82,2.38,2.38,0,0,1,2.54-2.46Zm-15.15,20a2.84,2.84,0,0,1,2.54,2.83,2.38,2.38,0,0,1-2.54,2.46,2.84,2.84,0,0,1-2.54-2.83,2.38,2.38,0,0,1,2.54-2.46Zm-17.9-11.52a2.83,2.83,0,0,1,2.54,2.83,2.38,2.38,0,0,1-2.54,2.46,2.83,2.83,0,0,1-2.53-2.83A2.37,2.37,0,0,1,186.82,897.36Z"/><path class="cls-73" d="M292.92,978.1c-2,4.59-1.4,7.43-1.36,10.33C281,1028.7,181.19,1032,166.66,1004.77a80.58,80.58,0,0,0,2.56-12.19c-9.4-8.56-4-29.42-5.45-44-1.11-10.94-2.68-22.1-5.92-30.08-10.94-27-25.37-48.89-32.53-69.83l14.23-13.09,28.63-8.66c6,14.83,9,29.78,11.07,44.82,2.52,18.68,3.53,37.49,6.91,56.39C190.18,978.7,197.93,1012.8,292.92,978.1Z"/><path class="cls-79" d="M231.36,1038.88c.44.33,3,2.59,5.39,3.24a4.53,4.53,0,0,0,2.54-.26l73.92-49.52,12.17-10.87,86.48-71.35c2.31-2,7.2-5,7.56-6.27.12-.4-5-2.93-5.16-3.12-.62-.65-3,0-8.09,3l-74.78,43.67c-4.84,2.89-6.24,3.58-7.87,5.37l-91.6,82.46C230.67,1036.32,230.2,1038,231.36,1038.88Z"/><path class="cls-80" d="M236.3,1038.82c-.29.91-2.06,5,4.38,2.69l77.53-46.17,12.16-10.87L415,910c5.55-4.89,7.5-10-3.81-3.23l-74.78,43.66c-4.85,2.89-6.25,3.59-7.88,5.38Z"/><path class="cls-81" d="M214.49,980.83a44.72,44.72,0,0,0,6.63,3.22c0-.2,0-.4.08-.59a11.26,11.26,0,0,0,2.11,1.45c1.33.51,2.65,1,3.92,1.5A76.88,76.88,0,0,0,237,988c3.87.61,13,1.95,17,2.92,5.1,1.27,9.16,5.87,16.25,9.89l-7.76,7a9.49,9.49,0,0,0,5,1c7.06-.71,25.17-9.75,24.43-6.13-.52,2.58-5.4,11.69-7.57,14.47-4.47,5.7-9.09,9.22-16,13.58s-14.35,8.78-19,10.2c-5.11,1.56-22.12-10.54-25.3-14.33-10.15-12.13-6.09-18.33-16.27-23.19Z"/><path class="cls-82" d="M119.1,826.69c-7,30.72-2.43,80.58-5.64,116.54a21.53,21.53,0,0,0,.4,7q0,.75.12,1.47c.63,7.91,6.69,12.72,14.06,17.5,18.94,12.28,34.58,27.89,68.53,38.64,2.54.8,7.75-.13,10.86-.53,2.12.63,4.88,2.22,7.13,2.87-.37-7.13,7.91-21.42,14.26-23.9-2.2-1.18-4.83-3.18-7.21-4.61a21.54,21.54,0,0,0-4.41-6.24c-11.84-11.19-37.63-30.11-57.13-41,2.57-8.93,4.29-18.13,6-25.1A429.81,429.81,0,0,0,174.44,866c.8-5.61,1.35-8.44,2-14.15C181.36,809.45,127.61,789.44,119.1,826.69Z"/><path class="cls-55" d="M239.85,773.64c.3-1.61.69-3.22,1-4.95,1-4.93-.29-14.5,1-25.79l-42.74-18.06c-.71,24-4.64,28.95-9.06,48.51.47,19.23,48.24,27.83,49.24,5.25A34.17,34.17,0,0,1,239.85,773.64Z"/><path class="cls-83" d="M239.85,773.64c.3-1.61.69-3.22,1-4.95,1-4.93-.29-14.5,1-25.79l-42.74-18.06c-.16,5.45-.49,9.94-.95,13.85-1.53,15.89,13.71,43.58,41.13,39.91A34.17,34.17,0,0,1,239.85,773.64Z"/><path class="cls-55" d="M242.3,772.57C237.06,769.11,222.72,760.4,218,757c-10.28-7.55-9-17.16-12-32.23-9.61-6.87-12.84-12.32-13.7-18.48-2-14.63,6.3-30.38,17.47-39,9.76-7.53,21-9.64,33.61-6.87,24.53,5.37,34.63,23.93,35.92,45.14a14,14,0,0,1-.69,5.27,66.87,66.87,0,0,0-2.26,7.88c-1.3,6.29,3,8.57,1.26,16.39-2.31,10.63-11.13,31.39-14.74,34.85C260.11,772.59,247.72,773.45,242.3,772.57Z"/><path class="cls-84" d="M278.14,696.28a68.37,68.37,0,0,1,1.18,9.25,14.24,14.24,0,0,1-.69,5.27,66.87,66.87,0,0,0-2.26,7.88c-1.3,6.29,3,8.57,1.26,16.39A127,127,0,0,1,271,754.61c-15.79,12-29.6-2.66-31.71-5.38-9.89-12.76-10.65-31.85-3.17-49.68C247.5,703.38,266.13,702.62,278.14,696.28Z"/><path class="cls-58" d="M185.46,699.33c.65,8.11,7,28.94,11.81,36.67,5,8,2.81-1.81,5.43-7.28,2-4.22,8.54-4.71,10.52-9.05,1,3.69,2.26,7.29,4.64,8.59,1.51.82,4.58,2,4.7-2.4.41-15.05,7.53-16.09,5.29-25.11-1.69-6.76-1.28-9.67.37-12.11,4.91.69,8.07,5.72,13.83,8.2,4,1.73,21.66,3.6,34.2-3.25,12.13-6.62,13.26-21.4,3.08-30.89-5.67-5.28-12-6.62-20.93-12.57-17-11.36-38.19-7.32-49.64,5.26C186.43,659.9,184,681.21,185.46,699.33Z"/><path class="cls-55" d="M209.19,712c-9.25-4.2-10.4,6.85-9.57,13.69.57,4.71,4.41,4.73,5.43,8.5,1.21,4.5,4.38,6.84,7.26,7,5.84.41,3.08-8.59,2.73-12.1C216.26,723.59,215.06,714.68,209.19,712Z"/><path class="cls-85" d="M234.56,681.36c-.9,6.28,7.18,13.67,18.56,14.3,10.54.57,24.83-1.92,30.11-14.72,1.86-4.51-.37-12.52-5.54-15.82-3.52-2.25-8-2-12.64.06-7.79,3.43-14.29,12.13-19.87,14.28C239.88,681.49,234.65,680.69,234.56,681.36Z"/></g></g></g></svg>