<svg xmlns="http://www.w3.org/2000/svg" xmlns:xlink="http://www.w3.org/1999/xlink" viewBox="0 0 373.27 257.16"><defs><style>.cls-1,.cls-27,.cls-28,.cls-29,.cls-30,.cls-31,.cls-32,.cls-33,.cls-34{fill:none;}.cls-2{isolation:isolate;}.cls-3{fill:#c6c6c6;}.cls-4{fill:#352e35;}.cls-5{fill:#49404a;}.cls-6{fill:#61b9d9;}.cls-7{fill:#9fb6c4;}.cls-22,.cls-24,.cls-7{mix-blend-mode:multiply;}.cls-8{fill:#574c59;}.cls-9{fill:#615564;}.cls-10{fill:#1f191e;}.cls-11{fill:#0e0709;}.cls-12,.cls-26{fill:#fff;}.cls-13{fill:#b0d3e6;}.cls-14{fill:#f08123;}.cls-15{fill:#454f56;}.cls-16{fill:#4d5961;}.cls-17,.cls-24,.cls-25{fill:#bac7cf;}.cls-17{opacity:0.3;}.cls-17,.cls-25,.cls-26{mix-blend-mode:soft-light;}.cls-18{fill:#e37a08;}.cls-19{fill:#fab400;}.cls-20{fill:#ffda3d;}.cls-21{fill:#929292;}.cls-22{fill:#b8c4cb;}.cls-23{fill:#00acd5;}.cls-26{opacity:0.5;}.cls-27,.cls-28,.cls-29,.cls-30,.cls-31,.cls-32,.cls-33,.cls-34{stroke:#093b59;stroke-linecap:round;stroke-linejoin:round;}.cls-27{stroke-width:0.92px;}.cls-28,.cls-29,.cls-30,.cls-31,.cls-32,.cls-33,.cls-34{stroke-width:0.69px;}.cls-29{stroke-dasharray:2.11 2.11;}.cls-30{stroke-dasharray:2.11 2.11;}.cls-31{stroke-dasharray:2.11 2.11;}.cls-32{stroke-dasharray:2.11 2.11;}.cls-33{stroke-dasharray:2.11 2.11;}.cls-34{stroke-dasharray:2.11 2.11;}.cls-35,.cls-37{fill:#689f63;}.cls-36{fill:#343434;}.cls-36,.cls-37{fill-rule:evenodd;}.cls-38{clip-path:url(#clip-path);}.cls-39{fill:url(#linear-gradient);}.cls-40{clip-path:url(#clip-path-2);}.cls-41{fill:url(#linear-gradient-2);}.cls-42{clip-path:url(#clip-path-3);}.cls-43{fill:url(#linear-gradient-3);}.cls-44{fill:#75cbed;}.cls-45{fill:#3655a2;}.cls-46{fill:#3c61ab;}.cls-47{fill:#ebebeb;}.cls-48{fill:#e44e28;}.cls-49{fill:#ec662b;}.cls-50{fill:#734e9a;}</style><clipPath id="clip-path"><path class="cls-1" d="M142.29,72.32l-3.73,2.15a.44.44,0,0,0-.22.39v4.31a.44.44,0,0,0,.22.39l3.73,2.16a.45.45,0,0,0,.45,0l3.73-2.16a.45.45,0,0,0,.23-.39V74.86a.45.45,0,0,0-.23-.39l-3.73-2.15a.43.43,0,0,0-.22-.06.46.46,0,0,0-.23.06"/></clipPath><linearGradient id="linear-gradient" x1="-773.74" y1="679.4" x2="-773.63" y2="679.4" gradientTransform="matrix(-50.75, 103.54, 103.54, 50.75, -109466.93, 45699.19)" gradientUnits="userSpaceOnUse"><stop offset="0.3" stop-color="#40873e"/><stop offset="0.5" stop-color="#55934f"/><stop offset="0.8" stop-color="#5cae45"/></linearGradient><clipPath id="clip-path-2"><path class="cls-1" d="M138.43,79.45a.47.47,0,0,0,.13.11l3.2,1.85.54.31a.58.58,0,0,0,.26.06l.08,0,3.94-7.2a.48.48,0,0,0-.11-.09L144,73.06l-1.29-.74-.12,0Z"/></clipPath><linearGradient id="linear-gradient-2" x1="-771.94" y1="668.86" x2="-771.87" y2="668.86" gradientTransform="matrix(142.41, -105.22, -105.22, -142.41, 180446.57, 14106.23)" gradientUnits="userSpaceOnUse"><stop offset="0.57" stop-color="#40873e"/><stop offset="0.72" stop-color="#619858"/><stop offset="1" stop-color="#77ac64"/></linearGradient><clipPath id="clip-path-3"><path class="cls-1" d="M142.47,72.26a.64.64,0,0,0-.18.06l-3.72,2.15,4,7.3a.28.28,0,0,0,.16,0l3.74-2.16a.43.43,0,0,0,.21-.3l-4.09-7h-.12"/></clipPath><linearGradient id="linear-gradient-3" x1="-768.19" y1="670.16" x2="-768.12" y2="670.16" gradientTransform="matrix(129.89, 0, 0, -129.89, 99917.61, 87123.3)" gradientUnits="userSpaceOnUse"><stop offset="0.16" stop-color="#71b74a"/><stop offset="0.38" stop-color="#7ab561"/><stop offset="0.47" stop-color="#77ad64"/><stop offset="0.7" stop-color="#659e5a"/><stop offset="0.9" stop-color="#40873e"/></linearGradient></defs><title>homePic</title><g class="cls-2"><g id="Layer_2" data-name="Layer 2"><g id="Capa_1" data-name="Capa 1"><path class="cls-3" d="M250.39,249.92a7.24,7.24,0,0,1-7.24,7.24H73.08a7.24,7.24,0,0,1-7.24-7.24h0a7.24,7.24,0,0,1,7.24-7.23H243.15a7.24,7.24,0,0,1,7.24,7.23Z"/><path class="cls-3" d="M341.75,229.06a7.23,7.23,0,0,1-7.23,7.23l-91.37,20.87s-85.94-24.11-85.94-28.1h0a7.24,7.24,0,0,1,7.23-7.24H334.52a7.24,7.24,0,0,1,7.23,7.24Z"/><path class="cls-4" d="M344.2,210.5a12.73,12.73,0,0,1-11.78,9.31h-153c-5.26,0-8.57-4.19-7.36-9.31l22.36-94.23A12.75,12.75,0,0,1,206.19,107l149.9-5.75c9,0,11.69,9.94,10.47,15.06Z"/><path class="cls-5" d="M338.46,210.5a12.72,12.72,0,0,1-11.77,9.31h-153c-5.27,0-8.58-4.19-7.37-9.31l23.95-100A12.73,12.73,0,0,1,202,101.16h153c5.26,0,8.58,4.18,7.36,9.31Z"/><path class="cls-6" d="M334.63,206.79c-1.15,4.72-6.18,8.58-11.17,8.58H178.27c-5,0-8.13-3.86-7-8.58L192.5,120c1.16-4.72,6.19-8.58,11.18-8.58H348.87c5,0,8.13,3.86,7,8.58Z"/><path class="cls-7" d="M327,213H181.78c-5,0-8.14-3.86-7-8.58L196,117.59a10.82,10.82,0,0,1,3.1-5.15A11.86,11.86,0,0,0,192.5,120l-21.21,86.81c-1.15,4.72,2,8.58,7,8.58H323.46a12,12,0,0,0,8.07-3.43A11.09,11.09,0,0,1,327,213Z"/><path class="cls-4" d="M335.55,225.55a4.89,4.89,0,0,1-5,4.78l-95.63,18.49s-5.51-16-5.51-18.65l8.65-5.58a4.89,4.89,0,0,1,5-4.78h87.49a4.89,4.89,0,0,1,5,4.78Z"/><path class="cls-5" d="M239.92,244a4.89,4.89,0,0,1-5,4.78H79.22a4.89,4.89,0,0,1-5-4.78v-1a4.89,4.89,0,0,1,5-4.78h155.7a4.89,4.89,0,0,1,5,4.78Z"/><polygon class="cls-8" points="237.27 238.3 79.22 238.3 171.05 219.81 332.42 219.81 237.27 238.3"/><polygon class="cls-9" points="262.62 230.74 310.69 221.4 177.02 221.4 130.63 230.74 262.62 230.74"/><rect class="cls-4" x="131.84" y="238.3" width="45.67" height="5.26"/><path class="cls-10" d="M329.73,226.3a3.39,3.39,0,1,1-3.38-3.38A3.39,3.39,0,0,1,329.73,226.3Z"/><path class="cls-11" d="M328.14,226.3a1.79,1.79,0,1,1-1.79-1.79A1.8,1.8,0,0,1,328.14,226.3Z"/><path class="cls-10" d="M316,229.06a3.39,3.39,0,1,1-3.38-3.39A3.38,3.38,0,0,1,316,229.06Z"/><path class="cls-11" d="M314.43,229.06a1.79,1.79,0,1,1-1.79-1.79A1.79,1.79,0,0,1,314.43,229.06Z"/><polygon class="cls-10" points="300.09 232.6 248.6 242.69 248.6 239.18 300.09 229.09 300.09 232.6"/><path class="cls-4" d="M278.57,106.32a4.64,4.64,0,1,1-4.63-4.3A4.48,4.48,0,0,1,278.57,106.32Z"/><path class="cls-10" d="M276.82,106.32a2.88,2.88,0,1,1-2.88-2.67A2.78,2.78,0,0,1,276.82,106.32Z"/><path class="cls-12" d="M329.23,196.45a13.27,13.27,0,1,0-15.31-21.25,6,6,0,0,0-3.24-.95c-.23,0-.44,0-.66,0v0a6,6,0,0,0-9.75-4.74,2.92,2.92,0,0,0-2.3-1.12h-.09a3.86,3.86,0,0,0,.09-.84,4.24,4.24,0,0,0-4.24-4.23,4.17,4.17,0,0,0-1.8.41c-2-9.48-12.91-9.56-14.74-.81a5.11,5.11,0,0,0-2-.41,5,5,0,0,0-4.88,3.78,6.1,6.1,0,0,0-2.46-.53,6,6,0,0,0-5,9.41,6,6,0,0,0-2.39,2.87A8.49,8.49,0,0,0,248,186.35c-.39,0-.79-.06-1.19-.06a13.35,13.35,0,0,0,0,26.69h77.73a8.93,8.93,0,0,0,4.67-16.53Z"/><path class="cls-13" d="M311.73,184.21a10.91,10.91,0,0,1,10.86,9.94c0-.32.05-.65.05-1a10.91,10.91,0,1,0-21.82,0c0,.32,0,.65,0,1A10.91,10.91,0,0,1,311.73,184.21Z"/><path class="cls-13" d="M302.48,188.1a4,4,0,0,1,.27-.34l.09-.11a7,7,0,0,0-12.55,4.4,6.33,6.33,0,0,0,0,.76,7,7,0,0,1,11.86-4.34C302.29,188.34,302.39,188.22,302.48,188.1Z"/><path class="cls-13" d="M276.4,176.47a8.75,8.75,0,0,1,10.71,5c-.06-.25-.12-.5-.2-.76A8.75,8.75,0,0,0,270.22,186c.08.25.17.49.27.73A8.74,8.74,0,0,1,276.4,176.47Z"/><path class="cls-13" d="M270.27,181.68l.12-.33a1.17,1.17,0,0,0,.05-.11,5.66,5.66,0,0,0-8.54,6.4c.06.19.14.38.22.57a5.65,5.65,0,0,1,8-6.18Z"/><path class="cls-12" d="M186.74,199.52a10.8,10.8,0,1,1,12.46-17.3,4.86,4.86,0,0,1,2.64-.77,4.58,4.58,0,0,1,.53,0v0a4.9,4.9,0,0,1,7.93-3.86,2.4,2.4,0,0,1,1.88-.91h.06a3.82,3.82,0,0,1-.06-.68,3.45,3.45,0,0,1,3.44-3.45,3.28,3.28,0,0,1,1.47.34c1.65-7.72,10.51-7.79,12-.66a4,4,0,0,1,1.63-.34,4.1,4.1,0,0,1,4,3.08,4.9,4.9,0,0,1,6.91,4.48,4.84,4.84,0,0,1-.85,2.75,4.89,4.89,0,0,1,2,2.34,6.75,6.75,0,0,1,3.28-.84,6.88,6.88,0,0,1,6.89,6.89,5.53,5.53,0,0,1,0,.71c.32,0,.65-.05,1-.05a10.87,10.87,0,0,1,0,21.73H190.54a7.26,7.26,0,0,1-3.8-13.46Z"/><path class="cls-13" d="M201,189.56a8.88,8.88,0,0,0-8.84,8.09c0-.26,0-.53,0-.79a8.88,8.88,0,0,1,17.76,0c0,.26,0,.53,0,.79A8.88,8.88,0,0,0,201,189.56Z"/><path class="cls-13" d="M208.51,192.73a3,3,0,0,0-.22-.28l-.07-.09a5.73,5.73,0,0,1,10.21,3.58c0,.21,0,.42,0,.62a5.74,5.74,0,0,0-5.71-5.12,5.67,5.67,0,0,0-3.95,1.59Z"/><path class="cls-13" d="M229.74,183.25a7.13,7.13,0,0,0-8.71,4.06,6.06,6.06,0,0,1,.16-.61A7.12,7.12,0,0,1,234.77,191a6.13,6.13,0,0,1-.22.6A7.12,7.12,0,0,0,229.74,183.25Z"/><path class="cls-13" d="M234.73,187.5c0-.09-.06-.18-.1-.27l0-.09a4.61,4.61,0,0,1,7,5.21c-.06.16-.11.31-.18.46a4.6,4.6,0,0,0-6.54-5C234.8,187.69,234.77,187.59,234.73,187.5Z"/><path class="cls-12" d="M292.41,167,285,165.62s4.33-32.52-51.06-62.71c-5.18-7.75.08-22.67,16.42-16.33C306.26,103.13,292.41,167,292.41,167Z"/><path class="cls-14" d="M223,44.92c-35.05-35.25-62.15-31.25-62.15-31.25S156,43.2,192.29,75.42c19.65,17.43,37.65,23.44,37.65,23.44l8.12-8.07,8.3-8.26S243.08,65.15,223,44.92Z"/><path class="cls-14" d="M216.62,51.23C181.57,16,160.89,13.59,160.89,13.59s2.22,22.49,37.67,55.6c19.17,17.9,34.68,26.39,34.68,26.39L238,90.83,242.91,86S236.73,71.46,216.62,51.23Z"/><path class="cls-15" d="M211.7,89.8a99.39,99.39,0,0,0,18.24,9.06l16.42-16.33S244.9,74.81,238,63.68Z"/><path class="cls-16" d="M216.87,84.66a147.5,147.5,0,0,0,16.42,10.88l10-9.9s-2.7-6.5-10.44-16.82Z"/><path class="cls-15" d="M184.47,18.09c-14.52-5.77-23.66-4.42-23.66-4.42s-1.59,9.71,3.89,24.07Z"/><path class="cls-16" d="M180,22.5c-12.54-7.74-19.31-8.75-19.31-8.75s.95,7.19,8.42,19.58Z"/><path class="cls-17" d="M245.6,83.29c-9.11-23.48-38.8-63.71-81.49-68.66,29.76,3.66,67.55,42.89,79.08,71.06Z"/><path class="cls-18" d="M264.31,95.69a5.66,5.66,0,0,0-4.73-.94c7.63,4.77,7.17,12.43,7,21.2a5.7,5.7,0,0,0,3.31,5.48s-12.88,4.63-25.66-7.1c-.68,1.85.66,5.08.66,5.08s-8-5.58-9.43-12.53c-1.2-5.82-1-10.07,3.87-14.94S255,83.54,264.31,95.69Z"/><path class="cls-19" d="M258.53,93.26a10.18,10.18,0,0,0-4.72-.62c6.3,4.89,6.47,13.58,5.45,19.94-.47,3,2.74,5.75,2.74,5.75s-12.39-2.28-21.31-11.61a7.14,7.14,0,0,0,.27,5.08c-6.74-9.67-3.65-15.19-.3-18.52S250.75,86.94,258.53,93.26Z"/><path class="cls-20" d="M249.87,92.52C258,99.08,255.28,112,255.28,112a28.41,28.41,0,0,1-14.76-9.08c-2-2.34-1.17-5.86,1.37-8.39S247.47,90.58,249.87,92.52Z"/><rect class="cls-21" x="228.59" y="89.87" width="23.16" height="5.71" transform="translate(4.48 196.31) rotate(-44.84)"/><path class="cls-15" d="M203.53,35a14.62,14.62,0,1,1-20.26-4.12A14.62,14.62,0,0,1,203.53,35Z"/><path class="cls-22" d="M200.54,37a11,11,0,1,1-15.28-3.1A11,11,0,0,1,200.54,37Z"/><path class="cls-23" d="M199.27,37.82a9.5,9.5,0,1,1-13.17-2.67A9.52,9.52,0,0,1,199.27,37.82Z"/><path class="cls-24" d="M195.72,49.67a9.5,9.5,0,0,1-12.7-2c.13.22.26.45.4.67a9.5,9.5,0,0,0,15.85-10.49c-.15-.22-.31-.43-.47-.64A9.51,9.51,0,0,1,195.72,49.67Z"/><path class="cls-24" d="M197.89,52.83a13.79,13.79,0,0,1-18.43-2.95c.19.33.38.66.59,1a13.79,13.79,0,0,0,23-15.22c-.22-.32-.44-.63-.68-.93A13.78,13.78,0,0,1,197.89,52.83Z"/><path class="cls-25" d="M180.39,34.32c.24-.29.48-.59.74-.87a13.8,13.8,0,0,1,18.26-1.73C192.49,28.88,185.27,29.88,180.39,34.32Z"/><path class="cls-26" d="M192.6,34.91c3,.66,5.07,2.86,4.62,4.9S194,43,191,42.3s-5.07-2.85-4.62-4.89S189.6,34.25,192.6,34.91Z"/><path class="cls-15" d="M251.4,101.31l-3,3S215.89,78,220.3,73.65,251.4,101.31,251.4,101.31Z"/><polygon class="cls-16" points="251.06 101.64 248.68 104.01 226.12 79.45 251.06 101.64"/><path class="cls-16" d="M227,97.7c-8.63,10.84,1.07,23,1.07,23l-1.71,1.7s-11.73-11.8-16.56-22.47a34.25,34.25,0,0,1-2.7-13.13S219.82,91.64,227,97.7Z"/><path class="cls-15" d="M227,97.7c-8.63,10.84,1.07,23,1.07,23l-1.71,1.7a27.93,27.93,0,0,1-5.48-29A45,45,0,0,1,227,97.7Z"/><path class="cls-16" d="M245.71,79.06c10.88-8.57,23,1.2,23,1.2l1.71-1.7s-11.73-11.8-22.38-16.69A34.19,34.19,0,0,0,235,59.09S239.68,71.89,245.71,79.06Z"/><path class="cls-15" d="M245.71,79.06c10.88-8.57,23,1.2,23,1.2l1.71-1.7a28,28,0,0,0-29-5.65A45,45,0,0,0,245.71,79.06Z"/><line class="cls-27" x1="362.66" y1="189.43" x2="362.66" y2="201.42"/><line class="cls-27" x1="368.66" y1="195.42" x2="356.66" y2="195.42"/><line class="cls-27" x1="366.91" y1="191.18" x2="358.42" y2="199.67"/><line class="cls-27" x1="366.91" y1="199.67" x2="358.42" y2="191.18"/><line class="cls-28" x1="360.75" y1="87.47" x2="362.11" y2="87.47"/><line class="cls-29" x1="364.22" y1="87.47" x2="367.38" y2="87.47"/><line class="cls-28" x1="368.43" y1="87.47" x2="369.79" y2="87.47"/><line class="cls-28" x1="363.89" y1="83.9" x2="365.24" y2="83.9"/><line class="cls-30" x1="367.36" y1="83.9" x2="370.52" y2="83.9"/><line class="cls-28" x1="371.57" y1="83.9" x2="372.92" y2="83.9"/><line class="cls-28" x1="345.63" y1="32.62" x2="346.99" y2="32.62"/><line class="cls-31" x1="349.09" y1="32.62" x2="352.26" y2="32.62"/><line class="cls-28" x1="353.31" y1="32.62" x2="354.66" y2="32.62"/><line class="cls-28" x1="348.77" y1="29.05" x2="350.13" y2="29.05"/><line class="cls-32" x1="352.23" y1="29.05" x2="355.4" y2="29.05"/><line class="cls-28" x1="356.45" y1="29.05" x2="357.81" y2="29.05"/><line class="cls-27" x1="260.1" y1="6.79" x2="260.1" y2="18.79"/><line class="cls-27" x1="266.1" y1="12.79" x2="254.1" y2="12.79"/><line class="cls-27" x1="264.34" y1="8.55" x2="255.86" y2="17.03"/><line class="cls-27" x1="264.34" y1="17.03" x2="255.86" y2="8.55"/><line class="cls-27" x1="129.76" y1="20.32" x2="129.76" y2="32.32"/><line class="cls-27" x1="135.76" y1="26.32" x2="123.76" y2="26.32"/><line class="cls-27" x1="134" y1="22.08" x2="125.52" y2="30.56"/><line class="cls-27" x1="134" y1="30.56" x2="125.52" y2="22.08"/><line class="cls-28" x1="191.71" y1="3.91" x2="193.06" y2="3.91"/><line class="cls-32" x1="195.17" y1="3.91" x2="198.33" y2="3.91"/><line class="cls-28" x1="199.38" y1="3.91" x2="200.74" y2="3.91"/><line class="cls-28" x1="194.84" y1="0.35" x2="196.2" y2="0.35"/><line class="cls-32" x1="198.3" y1="0.35" x2="201.47" y2="0.35"/><line class="cls-28" x1="202.52" y1="0.35" x2="203.88" y2="0.35"/><line class="cls-27" x1="309.25" y1="56.2" x2="309.25" y2="68.2"/><line class="cls-27" x1="303.25" y1="62.2" x2="315.25" y2="62.2"/><line class="cls-27" x1="305.01" y1="57.95" x2="313.5" y2="66.44"/><line class="cls-27" x1="305.01" y1="66.44" x2="313.5" y2="57.95"/><line class="cls-27" x1="6.46" y1="116.33" x2="6.46" y2="128.33"/><line class="cls-27" x1="0.46" y1="122.33" x2="12.46" y2="122.33"/><line class="cls-27" x1="2.22" y1="118.09" x2="10.7" y2="126.57"/><line class="cls-27" x1="2.22" y1="126.57" x2="10.7" y2="118.09"/><line class="cls-28" x1="46.71" y1="199.43" x2="45.36" y2="199.43"/><line class="cls-32" x1="43.25" y1="199.43" x2="40.08" y2="199.43"/><line class="cls-28" x1="39.03" y1="199.43" x2="37.68" y2="199.43"/><line class="cls-28" x1="43.57" y1="195.86" x2="42.22" y2="195.86"/><line class="cls-32" x1="40.11" y1="195.86" x2="36.95" y2="195.86"/><line class="cls-28" x1="35.89" y1="195.86" x2="34.54" y2="195.86"/><line class="cls-28" x1="147.65" y1="56.37" x2="146.3" y2="56.37"/><line class="cls-33" x1="144.19" y1="56.37" x2="141.02" y2="56.37"/><line class="cls-28" x1="139.97" y1="56.37" x2="138.62" y2="56.37"/><line class="cls-28" x1="144.51" y1="52.8" x2="143.16" y2="52.8"/><line class="cls-34" x1="141.05" y1="52.8" x2="137.89" y2="52.8"/><line class="cls-28" x1="136.83" y1="52.8" x2="135.48" y2="52.8"/><line class="cls-27" x1="19.38" y1="37.95" x2="19.38" y2="49.95"/><line class="cls-27" x1="13.38" y1="43.95" x2="25.38" y2="43.95"/><line class="cls-27" x1="15.14" y1="39.71" x2="23.63" y2="48.19"/><line class="cls-27" x1="15.14" y1="48.19" x2="23.63" y2="39.71"/><line class="cls-28" x1="80.71" y1="18.73" x2="79.35" y2="18.73"/><line class="cls-32" x1="77.24" y1="18.73" x2="74.08" y2="18.73"/><line class="cls-28" x1="73.03" y1="18.73" x2="71.67" y2="18.73"/><line class="cls-28" x1="77.57" y1="15.16" x2="76.22" y2="15.16"/><line class="cls-32" x1="74.11" y1="15.16" x2="70.94" y2="15.16"/><line class="cls-28" x1="69.89" y1="15.16" x2="68.54" y2="15.16"/></g><g id="Layer_2-2" data-name="Layer 2"><path class="cls-35" d="M147.42,90.77a.69.69,0,0,1-.37-.1l-1.18-.7c-.18-.1-.09-.13,0-.15a2.09,2.09,0,0,0,.53-.25.1.1,0,0,1,.09,0l.91.54a.11.11,0,0,0,.11,0l3.53-2a.11.11,0,0,0,.06-.1V83.9a.11.11,0,0,0-.06-.1l-3.53-2a.11.11,0,0,0-.11,0l-3.54,2a.12.12,0,0,0-.05.1V88a.09.09,0,0,0,.05.09l1,.56c.53.27.85,0,.85-.35v-4a.1.1,0,0,1,.1-.11h.45a.11.11,0,0,1,.1.11v4a1,1,0,0,1-1.05,1.1,1.52,1.52,0,0,1-.81-.22l-.93-.53a.77.77,0,0,1-.37-.65V83.9a.74.74,0,0,1,.37-.65l3.54-2a.75.75,0,0,1,.74,0l3.54,2a.76.76,0,0,1,.37.65V88a.76.76,0,0,1-.37.65l-3.54,2a.79.79,0,0,1-.37.1"/><path class="cls-35" d="M148.52,88c-1.55,0-1.88-.71-1.88-1.31a.1.1,0,0,1,.11-.1h.45a.11.11,0,0,1,.1.08c.07.47.28.71,1.21.71.75,0,1.07-.17,1.07-.57,0-.23-.09-.4-1.25-.51-1-.09-1.57-.31-1.57-1.08s.6-1.14,1.61-1.14,1.69.39,1.77,1.24a.13.13,0,0,1,0,.08.11.11,0,0,1-.08,0h-.46a.12.12,0,0,1-.1-.08c-.11-.49-.37-.65-1.1-.65s-.91.29-.91.5.11.33,1.21.48,1.6.34,1.6,1.11S149.63,88,148.51,88m4.31-4.33h.12a.1.1,0,0,0,.11-.11c0-.1-.07-.1-.11-.1h-.12Zm-.15-.33h.27c.09,0,.27,0,.27.2a.19.19,0,0,1-.15.19c.11,0,.11.07.13.17a.54.54,0,0,0,0,.2h-.16s0-.23,0-.24a.07.07,0,0,0-.08-.06h-.14v.3h-.15Zm-.31.38a.57.57,0,1,0,.57-.57.57.57,0,0,0-.57.57m1.25,0a.68.68,0,0,1-1.36,0,.68.68,0,0,1,1.36,0"/><path class="cls-36" d="M136.47,74.8a.46.46,0,0,0-.23-.4l-3.75-2.16a.46.46,0,0,0-.21,0h0a.46.46,0,0,0-.2,0l-3.75,2.16a.46.46,0,0,0-.23.4v5.81a.23.23,0,0,0,.11.2.24.24,0,0,0,.23,0l2.23-1.28a.46.46,0,0,0,.22-.39V76.42a.45.45,0,0,1,.23-.39l.95-.55a.46.46,0,0,1,.22-.06.46.46,0,0,1,.23.06l.95.55a.45.45,0,0,1,.23.39v2.71a.46.46,0,0,0,.22.4l2.23,1.27a.2.2,0,0,0,.23,0,.21.21,0,0,0,.11-.19Zm17.7,3a.13.13,0,0,1-.06.1l-1.29.74a.11.11,0,0,1-.11,0l-1.29-.74a.11.11,0,0,1-.06-.1V76.34a.1.1,0,0,1,.06-.1l1.29-.75a.11.11,0,0,1,.11,0l1.29.75a.12.12,0,0,1,.06.1Zm.34-11a.22.22,0,0,0-.22,0,.21.21,0,0,0-.11.19v5.76a.16.16,0,0,1-.08.14.15.15,0,0,1-.16,0l-.94-.54a.45.45,0,0,0-.45,0l-3.75,2.16a.45.45,0,0,0-.23.39v4.34a.45.45,0,0,0,.23.39l3.75,2.16a.41.41,0,0,0,.45,0l3.75-2.16a.46.46,0,0,0,.23-.4V68.45a.46.46,0,0,0-.23-.4ZM167,76.3a.45.45,0,0,0,.22-.4V74.85a.44.44,0,0,0-.22-.39l-3.73-2.16a.45.45,0,0,0-.45,0l-3.76,2.16a.46.46,0,0,0-.22.4v4.33a.45.45,0,0,0,.23.39l3.72,2.12a.48.48,0,0,0,.45,0l2.25-1.26a.22.22,0,0,0,.12-.19.22.22,0,0,0-.12-.2l-3.77-2.17a.21.21,0,0,1-.11-.19V76.34a.23.23,0,0,1,.11-.2l1.17-.67a.24.24,0,0,1,.23,0l1.17.67a.24.24,0,0,1,.12.2v1.07a.21.21,0,0,0,.11.19.24.24,0,0,0,.23,0Z"/><path class="cls-37" d="M163,76.09a.14.14,0,0,1,.09,0l.72.42a.08.08,0,0,1,0,.07v.84a.08.08,0,0,1,0,.07l-.72.42a.14.14,0,0,1-.09,0l-.72-.42a.08.08,0,0,1-.05-.07v-.84a.08.08,0,0,1,.05-.07Z"/><g class="cls-38"><path class="cls-39" d="M150.47,74.11,140,69l-5.39,11,10.51,5.15Z"/></g><g class="cls-40"><path class="cls-41" d="M133.88,75.63l7.43,10.05,9.81-7.25L143.7,68.38Z"/></g><g class="cls-42"><path class="cls-43" d="M138.57,72.26v9.51h8.12V72.26Z"/></g><path class="cls-44" d="M144,163.91c0-2.11-2.64-4.11-6.69-5.35.94-4.12.52-7.4-1.31-8.46a2.89,2.89,0,0,0-1.45-.36v1.45a1.5,1.5,0,0,1,.74.17c.88.5,1.27,2.43,1,4.91-.07.61-.19,1.25-.33,1.9a31,31,0,0,0-4.12-.7,33.73,33.73,0,0,0-2.7-3.25c2.11-2,4.1-3,5.45-3v-1.44h0c-1.79,0-4.12,1.27-6.48,3.47-2.36-2.19-4.7-3.45-6.48-3.45v1.45c1.34,0,3.33,1.07,5.45,3a29.8,29.8,0,0,0-2.68,3.24,29.07,29.07,0,0,0-4.13.71c-.15-.65-.26-1.28-.34-1.88-.3-2.48.08-4.4.95-4.92a1.54,1.54,0,0,1,.75-.17v-1.44h0a2.86,2.86,0,0,0-1.47.36c-1.82,1.05-2.23,4.33-1.29,8.44-4,1.25-6.66,3.24-6.66,5.34s2.64,4.1,6.69,5.34c-.94,4.13-.52,7.41,1.31,8.46a2.81,2.81,0,0,0,1.46.37c1.78,0,4.11-1.28,6.48-3.48,2.36,2.19,4.69,3.45,6.48,3.45a3,3,0,0,0,1.46-.36c1.82-1.05,2.23-4.33,1.29-8.44C141.34,168,144,166,144,163.91Zm-8.44-4.33c-.24.84-.54,1.7-.88,2.56-.27-.51-.54-1-.85-1.55s-.62-1-.93-1.52C133.79,159.21,134.68,159.37,135.53,159.58Zm-3,6.91c-.51.88-1,1.71-1.57,2.48-1,.08-1.94.13-2.93.13s-2,0-2.92-.13c-.54-.77-1.06-1.59-1.57-2.46s-.94-1.71-1.35-2.58c.4-.87.86-1.74,1.34-2.59s1-1.71,1.57-2.48c1-.08,1.94-.13,2.93-.13s2,.05,2.92.13c.54.77,1.06,1.59,1.57,2.46s.94,1.71,1.35,2.58C133.49,164.77,133,165.64,132.56,166.49Zm2.09-.84c.35.87.65,1.74.9,2.58-.85.21-1.75.38-2.68.52.32-.5.64-1,.94-1.54S134.38,166.17,134.65,165.65Zm-6.58,6.92c-.6-.62-1.2-1.32-1.8-2.08.58,0,1.18,0,1.78,0s1.22,0,1.81,0A25.38,25.38,0,0,1,128.07,172.57Zm-4.82-3.82c-.92-.14-1.81-.31-2.66-.52.24-.83.54-1.69.87-2.56.27.52.55,1,.85,1.56S122.93,168.25,123.25,168.75Zm4.79-13.5a27,27,0,0,1,1.8,2.07c-.58,0-1.18,0-1.78,0s-1.21,0-1.8,0A24.87,24.87,0,0,1,128,155.25Zm-4.8,3.82c-.32.5-.64,1-.93,1.54s-.58,1-.85,1.55a25.49,25.49,0,0,1-.89-2.58Q121.85,159.28,123.24,159.07Zm-5.87,8.12c-2.3-1-3.78-2.26-3.78-3.28s1.48-2.31,3.78-3.28c.56-.24,1.17-.46,1.8-.66a30,30,0,0,0,1.46,3.95,30.05,30.05,0,0,0-1.44,3.93A18.29,18.29,0,0,1,117.37,167.19Zm3.49,9.27c-.88-.51-1.26-2.43-1-4.91.07-.61.19-1.25.33-1.91a32.67,32.67,0,0,0,4.12.71,32.39,32.39,0,0,0,2.7,3.24c-2.11,2-4.1,3-5.45,3A1.57,1.57,0,0,1,120.86,176.46Zm15.39-4.94c.3,2.48-.08,4.4-.95,4.91a1.44,1.44,0,0,1-.75.17c-1.34,0-3.33-1.07-5.45-3a29.8,29.8,0,0,0,2.68-3.24,29.07,29.07,0,0,0,4.13-.71C136.06,170.28,136.17,170.91,136.25,171.52Zm2.49-4.33c-.55.24-1.16.45-1.79.66a30.89,30.89,0,0,0-1.46-3.95,32.75,32.75,0,0,0,1.44-3.94c.64.21,1.25.43,1.82.67,2.3,1,3.78,2.26,3.78,3.28S141,166.22,138.74,167.19Z"/><circle class="cls-44" cx="128.05" cy="163.91" r="2.96"/><g id="layer1"><g id="g3013"><polygon id="polygon2989" class="cls-45" points="290.29 36.5 288.64 54.99 281.22 57.05 273.82 55 272.17 36.5 290.29 36.5"/><polygon id="polygon2991" class="cls-46" points="287.23 53.82 288.64 38.01 281.23 38.01 281.23 55.48 287.23 53.82"/><polygon id="polygon2993" class="cls-47" points="275.95 44.87 276.15 47.14 281.23 47.14 281.23 44.87 275.95 44.87"/><polygon id="polygon2995" class="cls-47" points="281.23 40.28 281.22 40.28 275.54 40.28 275.75 42.55 281.23 42.55 281.23 40.28"/><polygon id="polygon2997" class="cls-47" points="281.23 53.13 281.23 50.76 281.22 50.77 278.69 50.09 278.53 48.27 277.3 48.27 276.25 48.27 276.57 51.84 281.22 53.13 281.23 53.13"/><polygon id="polygon3005" class="cls-12" points="284.02 47.14 283.75 50.08 281.22 50.77 281.22 53.13 285.88 51.84 285.91 51.45 286.44 45.48 286.5 44.87 286.91 40.28 281.22 40.28 281.22 42.55 284.42 42.55 284.21 44.87 281.22 44.87 281.22 47.14 284.02 47.14"/></g></g><path class="cls-48" d="M325.47,82.35,324,65.49h16.53L339,82.34l-6.77,1.88"/><path class="cls-49" d="M332.23,82.78V66.87H339l-1.29,14.39"/><path class="cls-47" d="M327,68.93h5.2V71H329.3l.19,2.12h2.74v2.06H327.6m.09,1h2.08l.14,1.65,2.32.62v2.16L328,79.46"/><path class="cls-12" d="M337.4,68.93h-5.18V71h5M337,73.12h-4.8v2.06h2.55l-.25,2.69-2.3.62v2.15l4.23-1.18"/><path class="cls-50" d="M93.65,93.45a14.49,14.49,0,1,0,14.49,14.49A14.49,14.49,0,0,0,93.65,93.45ZM82.27,108.09,93.5,119.31A11.37,11.37,0,0,1,82.27,108.09ZM96.19,119,82.56,105.39a11.38,11.38,0,0,1,20.29-4.15l-1.58,1.39a9.29,9.29,0,0,0-16.36,2.15l11.9,11.89a9.3,9.3,0,0,0,5.86-6.5H97.73v-2.23H105A11.38,11.38,0,0,1,96.19,119Z"/></g></g></g></svg>