<svg xmlns="http://www.w3.org/2000/svg" xmlns:xlink="http://www.w3.org/1999/xlink" viewBox="0 0 1009.76 1493"><defs><style>.cls-1{isolation:isolate;}.cls-10,.cls-11,.cls-12,.cls-13,.cls-14,.cls-15,.cls-16,.cls-17,.cls-18,.cls-19,.cls-2,.cls-20,.cls-21,.cls-22,.cls-23,.cls-24,.cls-25,.cls-26,.cls-27,.cls-28,.cls-29,.cls-3,.cls-30,.cls-31,.cls-32,.cls-33,.cls-34,.cls-35,.cls-36,.cls-37,.cls-38,.cls-39,.cls-4,.cls-40,.cls-41,.cls-42,.cls-43,.cls-44,.cls-45,.cls-46,.cls-47,.cls-48,.cls-49,.cls-5,.cls-50,.cls-51,.cls-52,.cls-53,.cls-54,.cls-55,.cls-56,.cls-57,.cls-58,.cls-59,.cls-6,.cls-60,.cls-61,.cls-62,.cls-63,.cls-64,.cls-65,.cls-66,.cls-67,.cls-68,.cls-69,.cls-7,.cls-70,.cls-71,.cls-72,.cls-73,.cls-74,.cls-75,.cls-76,.cls-77,.cls-78,.cls-79,.cls-8,.cls-80,.cls-81,.cls-82,.cls-9{fill-rule:evenodd;}.cls-2{fill:url(#linear-gradient);}.cls-3{fill:#4e79fb;}.cls-3,.cls-40,.cls-42,.cls-44,.cls-48,.cls-50,.cls-55,.cls-57,.cls-80{opacity:0.5;}.cls-4{fill:#303a7d;}.cls-5{fill:#3e4992;}.cls-6{fill:url(#linear-gradient-2);}.cls-7{fill:url(#GradientFill_24);}.cls-8{fill:url(#linear-gradient-3);}.cls-9{fill:url(#linear-gradient-4);}.cls-10{fill:url(#linear-gradient-5);}.cls-11{opacity:0.35;fill:url(#linear-gradient-6);}.cls-11,.cls-13,.cls-40,.cls-50,.cls-55,.cls-57,.cls-74{mix-blend-mode:multiply;}.cls-12{fill:url(#linear-gradient-7);}.cls-13,.cls-74{opacity:0.3;}.cls-13{fill:url(#linear-gradient-8);}.cls-14{fill:url(#linear-gradient-9);}.cls-15{fill:url(#linear-gradient-10);}.cls-16{fill:url(#linear-gradient-11);}.cls-17{fill:#ffa698;}.cls-18{fill:#ff9080;}.cls-19,.cls-48{fill:#fff;}.cls-20{fill:#f2f4ff;}.cls-21{fill:#ff7ccf;}.cls-21,.cls-25,.cls-26,.cls-29,.cls-32,.cls-60,.cls-62,.cls-63,.cls-66{opacity:0.2;}.cls-22{fill:url(#GradientFill_11);}.cls-23{fill:url(#linear-gradient-12);}.cls-24{fill:#ffdb59;}.cls-25{fill:url(#linear-gradient-13);}.cls-26{fill:#bc6de9;}.cls-27{fill:url(#linear-gradient-14);}.cls-28{fill:url(#linear-gradient-15);}.cls-29{fill:url(#linear-gradient-16);}.cls-30{fill:url(#linear-gradient-17);}.cls-31{fill:url(#linear-gradient-18);}.cls-32{fill:url(#linear-gradient-19);}.cls-33{fill:url(#linear-gradient-20);}.cls-34{fill:url(#linear-gradient-21);}.cls-35{fill:#161f69;}.cls-36{fill:url(#linear-gradient-22);}.cls-37{fill:#ff8f7f;}.cls-38{fill:url(#linear-gradient-23);}.cls-39{fill:url(#linear-gradient-24);}.cls-40{fill:url(#linear-gradient-25);}.cls-41{fill:url(#linear-gradient-26);}.cls-42{fill:#24053e;}.cls-43{fill:url(#linear-gradient-27);}.cls-44,.cls-45{fill:#22043d;}.cls-46{fill:url(#linear-gradient-28);}.cls-47{fill:url(#linear-gradient-29);}.cls-49{fill:blue;}.cls-50{fill:url(#linear-gradient-30);}.cls-51{fill:url(#linear-gradient-31);}.cls-52{fill:#ffbaa7;}.cls-53{fill:#ff29a1;}.cls-54{fill:url(#linear-gradient-32);}.cls-55{fill:url(#linear-gradient-33);}.cls-56{fill:url(#linear-gradient-34);}.cls-57{fill:url(#linear-gradient-35);}.cls-58{fill:url(#linear-gradient-36);}.cls-59{fill:#147cf0;}.cls-60{fill:url(#linear-gradient-37);}.cls-61{fill:url(#linear-gradient-38);}.cls-62{fill:url(#linear-gradient-39);}.cls-63{fill:url(#linear-gradient-40);}.cls-64{fill:url(#linear-gradient-41);}.cls-65{fill:#fdebbb;}.cls-66{fill:url(#linear-gradient-42);}.cls-67{fill:url(#linear-gradient-43);}.cls-68{fill:#00cedc;}.cls-69{fill:#8d6dfc;}.cls-70{fill:url(#linear-gradient-44);}.cls-71{fill:#1f202b;}.cls-72{fill:#161a40;}.cls-73{fill:url(#linear-gradient-45);}.cls-74{fill:#1e2353;}.cls-75{fill:url(#linear-gradient-46);}.cls-76{fill:#107cce;}.cls-77{fill:url(#linear-gradient-47);}.cls-78{fill:url(#linear-gradient-48);}.cls-79{fill:url(#linear-gradient-49);}.cls-80{fill:#0960ac;}.cls-81{fill:url(#linear-gradient-50);}.cls-82{fill:url(#linear-gradient-51);}</style><linearGradient id="linear-gradient" x1="453.67" y1="189.66" x2="468.25" y2="282.05" gradientUnits="userSpaceOnUse"><stop offset="0" stop-color="#3e4795"/><stop offset="1" stop-color="#273088"/></linearGradient><linearGradient id="linear-gradient-2" x1="335.27" y1="510.73" x2="698.48" y2="993.64" gradientUnits="userSpaceOnUse"><stop offset="0" stop-color="#fa5db1"/><stop offset="1" stop-color="#febfbf"/></linearGradient><linearGradient id="GradientFill_24" x1="527.6" y1="209.43" x2="527.86" y2="582.61" gradientUnits="userSpaceOnUse"><stop offset="0" stop-color="#324179"/><stop offset="1" stop-color="#0c124d"/></linearGradient><linearGradient id="linear-gradient-3" x1="587.27" y1="13.5" x2="588.9" y2="170.3" gradientUnits="userSpaceOnUse"><stop offset="0" stop-color="#5a2d68"/><stop offset="1" stop-color="#22043d"/></linearGradient><linearGradient id="linear-gradient-4" x1="575.93" y1="280.46" x2="585.43" y2="278.86" gradientUnits="userSpaceOnUse"><stop offset="0" stop-color="#ff8a78"/><stop offset="1" stop-color="#ffa799"/></linearGradient><linearGradient id="linear-gradient-5" x1="571.63" y1="182.84" x2="630.13" y2="115.74" gradientUnits="userSpaceOnUse"><stop offset="0" stop-color="#6d6afe"/><stop offset="1" stop-color="#3fb0f7"/></linearGradient><linearGradient id="linear-gradient-6" x1="561.88" y1="152.01" x2="627.84" y2="112.25" xlink:href="#linear-gradient-5"/><linearGradient id="linear-gradient-7" x1="437.24" y1="170.28" x2="659.09" y2="114.65" xlink:href="#linear-gradient-5"/><linearGradient id="linear-gradient-8" x1="490.36" y1="164.32" x2="548.92" y2="122.47" xlink:href="#linear-gradient-5"/><linearGradient id="linear-gradient-9" x1="558.09" y1="307.37" x2="563.76" y2="304.75" xlink:href="#linear-gradient-4"/><linearGradient id="linear-gradient-10" x1="520.85" y1="197.43" x2="573.21" y2="153.02" xlink:href="#linear-gradient-5"/><linearGradient id="linear-gradient-11" x1="573.8" y1="84.81" x2="565.61" y2="94.77" xlink:href="#linear-gradient-4"/><linearGradient id="GradientFill_11" x1="487.55" y1="1104.12" x2="488.81" y2="1091.27" gradientUnits="userSpaceOnUse"><stop offset="0" stop-color="#e46aa8"/><stop offset="0.43" stop-color="#d985b8"/><stop offset="1" stop-color="#f9b29d"/></linearGradient><linearGradient id="linear-gradient-12" x1="507.95" y1="1126.33" x2="526.81" y2="1182.55" gradientUnits="userSpaceOnUse"><stop offset="0" stop-color="#ff66bc"/><stop offset="0.56" stop-color="#ff8adc"/><stop offset="1" stop-color="#ffbba8"/></linearGradient><linearGradient id="linear-gradient-13" x1="512.85" y1="1147.53" x2="550.43" y2="1162.97" xlink:href="#linear-gradient-12"/><linearGradient id="linear-gradient-14" x1="341.29" y1="1188.54" x2="345.77" y2="1178.18" gradientUnits="userSpaceOnUse"><stop offset="0" stop-color="#965cf2"/><stop offset="1" stop-color="#ff8adc"/></linearGradient><linearGradient id="linear-gradient-15" x1="365.02" y1="1230.31" x2="376.73" y2="1255.81" xlink:href="#linear-gradient-14"/><linearGradient id="linear-gradient-16" x1="363.72" y1="1278.49" x2="411.33" y2="1152.98" xlink:href="#linear-gradient-14"/><linearGradient id="linear-gradient-17" x1="629.29" y1="1021.05" x2="633.78" y2="1010.69" xlink:href="#linear-gradient-14"/><linearGradient id="linear-gradient-18" x1="653.03" y1="1062.82" x2="664.74" y2="1088.32" xlink:href="#linear-gradient-14"/><linearGradient id="linear-gradient-19" x1="651.72" y1="1111.02" x2="699.33" y2="985.5" xlink:href="#linear-gradient-14"/><linearGradient id="linear-gradient-20" x1="540.57" y1="767.59" x2="441.15" y2="424.79" gradientUnits="userSpaceOnUse"><stop offset="0" stop-color="#a77ef7"/><stop offset="1" stop-color="#5e65d6"/></linearGradient><linearGradient id="linear-gradient-21" x1="535.36" y1="780.17" x2="499.46" y2="839.16" xlink:href="#linear-gradient-4"/><linearGradient id="linear-gradient-22" x1="487.32" y1="868.05" x2="526.15" y2="770.98" gradientUnits="userSpaceOnUse"><stop offset="0" stop-color="#ffb89e"/><stop offset="1" stop-color="#ffa799"/></linearGradient><linearGradient id="linear-gradient-23" x1="568.97" y1="612.25" x2="577.12" y2="583.33" gradientUnits="userSpaceOnUse"><stop offset="0" stop-color="#1c8ef4"/><stop offset="1" stop-color="#00cfdd"/></linearGradient><linearGradient id="linear-gradient-24" x1="548.23" y1="708.77" x2="560.82" y2="593.11" xlink:href="#linear-gradient-23"/><linearGradient id="linear-gradient-25" x1="521.19" y1="713.72" x2="527.01" y2="607.24" xlink:href="#linear-gradient-23"/><linearGradient id="linear-gradient-26" x1="493.19" y1="533.16" x2="456.74" y2="564.81" xlink:href="#linear-gradient-3"/><linearGradient id="linear-gradient-27" x1="538.53" y1="546.87" x2="548.86" y2="570.67" xlink:href="#linear-gradient-3"/><linearGradient id="linear-gradient-28" x1="543.23" y1="583.11" x2="542.46" y2="589.13" xlink:href="#linear-gradient-4"/><linearGradient id="linear-gradient-29" x1="488.76" y1="504.4" x2="523.43" y2="652.97" xlink:href="#linear-gradient-23"/><linearGradient id="linear-gradient-30" x1="751.45" y1="514.29" x2="738.21" y2="344.59" xlink:href="#linear-gradient-14"/><linearGradient id="linear-gradient-31" x1="863.94" y1="491.31" x2="893.59" y2="216.49" gradientUnits="userSpaceOnUse"><stop offset="0" stop-color="#ff66bc"/><stop offset="0.47" stop-color="#ff8adc"/><stop offset="1" stop-color="#ffbba8"/></linearGradient><linearGradient id="linear-gradient-32" x1="871.8" y1="353.6" x2="877.33" y2="381.99" gradientUnits="userSpaceOnUse"><stop offset="0" stop-color="#8e7bfd"/><stop offset="1" stop-color="#72a8f9"/></linearGradient><linearGradient id="linear-gradient-33" x1="740.46" y1="808.42" x2="716.43" y2="661.97" xlink:href="#linear-gradient-14"/><linearGradient id="linear-gradient-34" x1="831.66" y1="611.93" x2="879.88" y2="703.54" xlink:href="#linear-gradient-5"/><linearGradient id="linear-gradient-35" x1="326.77" y1="889.06" x2="283.33" y2="682.29" xlink:href="#linear-gradient-14"/><linearGradient id="linear-gradient-36" x1="226.17" y1="847.01" x2="274.56" y2="718.92" xlink:href="#linear-gradient-23"/><linearGradient id="linear-gradient-37" x1="118.06" y1="742.05" x2="104.42" y2="725.77" xlink:href="#linear-gradient-2"/><linearGradient id="linear-gradient-38" x1="115.43" y1="738.92" x2="108.08" y2="730.14" xlink:href="#linear-gradient-2"/><linearGradient id="linear-gradient-39" x1="167.17" y1="713.72" x2="185.16" y2="661.32" xlink:href="#linear-gradient-2"/><linearGradient id="linear-gradient-40" x1="156.04" y1="730.06" x2="166.67" y2="699.12" xlink:href="#linear-gradient-2"/><linearGradient id="linear-gradient-41" x1="210.91" y1="793.93" x2="169.61" y2="913.22" xlink:href="#linear-gradient-2"/><linearGradient id="linear-gradient-42" x1="149.38" y1="763.73" x2="199.64" y2="890.48" xlink:href="#linear-gradient-2"/><linearGradient id="linear-gradient-43" x1="210.61" y1="975.06" x2="288.34" y2="777.94" xlink:href="#linear-gradient-23"/><linearGradient id="linear-gradient-44" x1="276.57" y1="96.55" x2="184.61" y2="354.92" gradientUnits="userSpaceOnUse"><stop offset="0" stop-color="#fd90da"/><stop offset="1" stop-color="#8e6dfd"/></linearGradient><linearGradient id="linear-gradient-45" x1="818.57" y1="1075.37" x2="917.7" y2="1257.48" xlink:href="#linear-gradient"/><linearGradient id="linear-gradient-46" x1="778.65" y1="1100.9" x2="851.5" y2="1282.93" xlink:href="#linear-gradient"/><linearGradient id="linear-gradient-47" x1="835.17" y1="1026.72" x2="816.98" y2="918.96" xlink:href="#linear-gradient-23"/><linearGradient id="linear-gradient-48" x1="661.59" y1="804.12" x2="655.09" y2="810.28" xlink:href="#linear-gradient-22"/><linearGradient id="linear-gradient-49" x1="647.25" y1="863.73" x2="759.76" y2="896.73" xlink:href="#linear-gradient-23"/><linearGradient id="linear-gradient-50" x1="822.8" y1="870.92" x2="814.95" y2="894.2" xlink:href="#linear-gradient-4"/><linearGradient id="linear-gradient-51" x1="821.4" y1="811.69" x2="871.01" y2="965.19" xlink:href="#linear-gradient-3"/></defs><title>motion</title><g class="cls-1"><g id="Layer_2" data-name="Layer 2"><g id="Layer_1-2" data-name="Layer 1"><path class="cls-2" d="M409,404.72c-.62-70-17.86-114.51-20.38-145.56-3.38-41.64,11.9-61.86,33.41-74.23,7.64-4.4,15.87,2.65,19.75-2.06a254.25,254.25,0,0,1,13.23,31.67c17.85-7.26,30.42-21.36,34.66-26.25,5.82,8.52.05,28,5.94,37.16,19.92,30.84,33.81,62.61,53.79,95.09,3.28,4.64,6.41,10.07,7.71,14.75,3.68,10,.81,18.9-7.23,22.73l-.16.15-1,.34a19.37,19.37,0,0,1-2.64.83c-9.63,2.86-24,5.46-32.84,7.14-3.47.66-6.68,1.16-9.67,1.55C477.61,381.9,393.64,424.73,409,404.72Z"/><path class="cls-3" d="M252.19,1346.88l404.49-231c15-6.86,37.07-13.33,51.8-4.36l37.67,23c7.58,4.62,32.5,19.94,15.83,29-49,26.67-362.38,209.74-412.17,236.83-9.42,5.12-23.2,7-37.66,5.77s-29.35-5.09-40.79-12.14l-15.05-9.28c-10.63-6.57-16.53-13.73-17.09-20.61C238.66,1357.32,243,1351.09,252.19,1346.88Z"/><path class="cls-4" d="M262.92,1320.58c.05,19.69,7.07,33.55,18.3,40.07L299,1371.36c61.09-26.07,38.42-335.69,42.14-423.72L322.41,485.69c15.78-27.56,76.46-51.61,62.3-107.9L563.78,294c8-5.41,216.92-126.42,179.41-149.12-6.28-3.79-12.48-7.62-18.68-11.22-13.85-8.19-31.5-3.12-44.46,4.35h0L323.72,342.35c-35,20.15-62.4,68.91-62.29,107.9Z"/><path class="cls-5" d="M761.4,184.89c0-19.3-6.74-33-17.57-39.69-11.41-7-27.42-6.27-45.13,4L342.38,353.53c-34.49,19.91-62.41,68.27-62.3,107.9l1.49,870.34c.11,39.62,28.22,55.64,62.71,35.73l356.31-204.38c34.53-19.93,62.41-68.27,62.3-107.9Z"/><path class="cls-6" d="M749.49,204.85c-.1-37.66-26.78-52.9-59.59-34L351.26,365.12C318.49,384.05,292,430,292.06,467.68l1.41,844.12c.11,37.66,26.82,52.88,59.6,34L691.7,1151.53c32.82-19,59.32-64.89,59.21-102.56Z"/><path class="cls-7" d="M474,129.86c48.15,31.45,95.28,57.55,95.28,169.64V625.74h11.93V295.16c0-114.38-49-137.57-98.44-174.81Z"/><path class="cls-8" d="M641,23.45c20.93,12.29,10.9,40.67-8.12,70.68-27,42.58,38.33,90.51-50.45,114.76,9.25-26-29.22-35.5-48.13-71-21.81-40.94-9.72-82,18.3-117C575.4-7.56,617.14-7.2,641,23.45Z"/><path class="cls-9" d="M592.47,288.84,584.08,307c-2.3,3.8-3.45,4.73-8.83,1.06-2.92-2.11-.74-8.59,1-13.29a29.07,29.07,0,0,0,1.89-12,10,10,0,0,0-2.79-5.65c-3-3.42-6.76-6-2.67-14.49,2.13-4.42,2.42-8,3.37-12.77l12.33,1.35c-2.19,10.82,1.34,19,4.76,29C594.8,285,594.41,284.09,592.47,288.84Z"/><path class="cls-10" d="M555.48,170l.09-.61a10.43,10.43,0,0,1,.39-2.66c3.14-21,9.53-56.36,14.51-74.81,8.69-32.21,36.25-21.08,36-1.85-.27,18.18-17.19,57.57-21.08,74.63,1.38,12.44,6.57,74.53,4.78,85.37-.35,2.07-1.25,3.42-1.15,5.69.07,1.72.54,2.41,1,4.48-4.87.65-9.74,1.34-14.53,2.47a31.7,31.7,0,0,0-.72-4.84c-.83-2.33-3-3.53-3.94-5.5-4.76-9.73-12.61-60.77-14.77-77.38A20.92,20.92,0,0,1,555.48,170Z"/><path class="cls-11" d="M559.08,189.64c-1.85-4.46-3.93-18.36-3.91-24.52,0-12.79,4.88-23.38,6.38-31.5l44.69-44.49c-.28,8.33-10,30.53-14,46.91C586,161.61,572.5,183.63,559.08,189.64Z"/><path class="cls-12" d="M420.81,192.67c6.3,20.83,35.89,37.25,65.54,30.72,7.08-7.87,9.18-5.42,15.65-11.77,5.9-5.78,13.17-13.67,23.34-24,5.66-8.88,28-12.51,37.82-16.38,11.12-4.36,21-13.45,25.59-31.12,2.23-8.57,11.94-34.79,15.43-43.53,10.1-25.27-11.8-34.71-26.61-25.36-9.49,4-30.4,8.93-40.73,10.86a172.08,172.08,0,0,1-18.07,2.68C506.46,86,493.1,95,483.55,102.56,457.88,123,423.06,164.1,420.81,192.67Z"/><path class="cls-13" d="M491.41,218.25a5.35,5.35,0,0,0,.55.11c3.28-2.17,5.66-2.44,10-6.74,5.9-5.78,13.17-13.67,23.34-24,2.89-4.53,10.1-7.69,17.78-10.21-1.22-20.75-.68-68.15-7.48-74.32-9.39-8.51-22.3-14.17-33.08-3.09C482.2,120.92,502.46,198.31,491.41,218.25Z"/><path class="cls-14" d="M547,277.29c3.13,5.23,1.48,16.55,2.5,21.94A87.33,87.33,0,0,0,554.27,315c.66,1.4,21.44,19.85,22.64,18.92,2.74-2.11,4.52-16.68.93-20.92s-6.64-8.38-7.25-11.84-.41-15-1.91-16.77c-3.42-4-7-5.31-8.5-10.34Z"/><path class="cls-15" d="M506.55,206.78a31.36,31.36,0,0,1-.78-3.65c-5.41-22.38-10.91-60.67-10.2-82.85.54-16.94,8.78-31.28,28.66-25.76,6.11,1.7,13.17,6.34,14.08,14.38,1.08,9.63-.36,25.62-1.27,42-.72,13-.66,36.6-1.16,46.15.09.29.17.58.25.89,6.36,12.66,21.17,54,24.28,67.45.52,2.24,0,4.65.05,6.2a11.6,11.6,0,0,0,1.61,5,30.24,30.24,0,0,1-13.63,7,35.72,35.72,0,0,0-2.78-4.91c-.86-1.32-4.84-2.56-6.39-4.42-8.24-9.86-30-55-32.63-67Z"/><path class="cls-16" d="M569.43,61.05A62.75,62.75,0,0,1,551.8,90.79c3.14,11.21,24.55,19.3,31.36,11.72.53-1.5,1.24-4.86,2-6,1.12-3.29,2.24-6.17,3.2-8.48Z"/><path class="cls-17" d="M631.6,46.06c-1.05,8.52-3.76,15.71-11.12,23a10.69,10.69,0,0,0-3.09,5.15c-2.79,10.18-5,12.26-11.51,16.92-6.35,4.53-8.73,7.66-12.35,8s-7.16-1.63-9.88-3.57c-5.58-4-11.84-14.93-14.77-22.14-2.18-5.35-.83-6.7.55-11.77-1.61-9.34,4.85-9.93,7-8.78,6.17,3.31,2,10.15,4.07,14.08C602.18,71.83,624.61,52.39,631.6,46.06Z"/><path class="cls-18" d="M631.6,46.06c-12,20-38.56,25.11-51.1,21C602.18,71.83,624.61,52.39,631.6,46.06Z"/><path class="cls-19" d="M680.28,213.5a3.31,3.31,0,0,1-.63-6.59l34.46-3.36a3.31,3.31,0,0,1,2.9,5.36l-32.59,41a3.32,3.32,0,0,1-5.19-4.13L707,210.9Z"/><path class="cls-19" d="M352,396.92a2.91,2.91,0,0,0-.26-1.34.55.55,0,0,0-.18-.19.44.44,0,0,0-.26-.05,2.82,2.82,0,0,0-1.31.44L329.27,408a10.2,10.2,0,0,0-4.5,7.79l.13,26a2.79,2.79,0,0,0,.27,1.35.83.83,0,0,0,.17.19.62.62,0,0,0,.27.05,2.93,2.93,0,0,0,1.32-.45l20.71-12.21a9.26,9.26,0,0,0,3.15-3.39,9.08,9.08,0,0,0,1.35-4.4l-.14-26Zm-10.87,43.44,9-5.33a15.13,15.13,0,0,0,7-12.15l-.08-14.22,9.17-5.39a2.81,2.81,0,0,1,1.32-.46.68.68,0,0,1,.27.05.5.5,0,0,1,.16.2,2.72,2.72,0,0,1,.27,1.34l.14,26a9.34,9.34,0,0,1-1.34,4.42,9.21,9.21,0,0,1-3.16,3.37L343.2,450.37a2.89,2.89,0,0,1-1.32.45.44.44,0,0,1-.26-.05.66.66,0,0,1-.18-.19,2.93,2.93,0,0,1-.26-1.35l-.05-8.87Zm15.92-37.51,6.68-3.94a7.71,7.71,0,0,1,3.84-1.12,5.51,5.51,0,0,1,2.77.7,5.72,5.72,0,0,1,2,2,7.86,7.86,0,0,1,.94,3.85l.14,26a15.17,15.17,0,0,1-7,12.16l-20.7,12.21a7.87,7.87,0,0,1-3.85,1.13,5.46,5.46,0,0,1-4.79-2.75,7.8,7.8,0,0,1-.93-3.85l0-5.94-6.67,3.94a7.86,7.86,0,0,1-3.84,1.13,5.51,5.51,0,0,1-2.76-.72,5.37,5.37,0,0,1-2-2,7.63,7.63,0,0,1-.94-3.84l-.14-26a15.22,15.22,0,0,1,7-12.16l20.72-12.21a7.9,7.9,0,0,1,3.85-1.13,5.41,5.41,0,0,1,4.78,2.76,7.63,7.63,0,0,1,.94,3.84Z"/><path class="cls-20" d="M588.24,1018.08l-3.26-1.72a5.15,5.15,0,0,0-4.15.73c-39,22.36-77.88,45.5-116.87,67.86a14.68,14.68,0,0,0-6.64,11.5l-.19,154.31a4.91,4.91,0,0,0,1.65,4.08c1.23.91,3.76,2.87,5.76,1.72,39-22.36,77.16-47.49,116.14-69.85a14.66,14.66,0,0,0,6.64-11.5Z"/><path class="cls-19" d="M590.22,1022.37c0-4.22-3-5.93-6.68-3.81-39,22.36-77.88,45.5-116.87,67.87a14.65,14.65,0,0,0-6.64,11.49l-.19,154.32c0,4.22,3,5.93,6.69,3.8,39-22.36,77.88-45.5,116.86-67.86a14.63,14.63,0,0,0,6.64-11.5Z"/><path class="cls-21" d="M489.09,1087.09c-5.32,1.41-10.07,7.7-10.62,14.05s3.31,10.36,8.62,8.95,10.07-7.69,10.62-14S494.4,1085.69,489.09,1087.09Z"/><path class="cls-22" d="M488.63,1092.39c-2.87.76-5.43,4.15-5.73,7.57s1.79,5.59,4.65,4.83,5.43-4.14,5.73-7.57S491.49,1091.63,488.63,1092.39Z"/><path class="cls-21" d="M543.67,1061.06c0-1.34-1-1.87-2.13-1.17L506,1080a4.79,4.79,0,0,0-2.11,3.7v2.66c0,1.35,1,1.87,2.13,1.18l35.5-20.14a4.78,4.78,0,0,0,2.12-3.7Z"/><path class="cls-21" d="M527.39,1080.74c0-.79-.57-1.1-1.26-.69l-21,11.89a2.82,2.82,0,0,0-1.25,2.18v1.57c0,.8.56,1.11,1.26.7l21-11.89a2.82,2.82,0,0,0,1.25-2.19Z"/><polygon class="cls-23" points="564.69 1162.38 536.51 1115.83 522.28 1167.51 507.82 1149.91 489.81 1205.33 564.69 1162.38"/><path class="cls-24" d="M513.44,1119.17c-3.87,1-7.34,5.49-7.74,10.11s2.41,7.59,6.29,6.63,7.33-5.48,7.73-10.11S517.31,1118.22,513.44,1119.17Z"/><path class="cls-25" d="M580.25,1082.71c0-7-5-9.84-11.09-6.32l-90.55,51.35c-6.09,3.52-11,12.07-11,19.07l.27,74.76c0,7,5,9.83,11.08,6.31l90.55-51.34c6.1-3.53,11-12.07,11-19.08Z"/><path class="cls-20" d="M443.64,1102.93l-3.26-1.72a5.12,5.12,0,0,0-4.15.74c-39,22.35-77.88,45.5-116.87,67.86a14.62,14.62,0,0,0-6.63,11.5l-.2,154.31a4.91,4.91,0,0,0,1.65,4.08c1.23.9,3.76,2.87,5.76,1.71,39-22.36,77.17-47.49,116.14-69.84a14.66,14.66,0,0,0,6.64-11.5Z"/><path class="cls-19" d="M445.62,1107.23c0-4.23-3-5.94-6.68-3.81-39,22.36-77.88,45.5-116.86,67.86a14.64,14.64,0,0,0-6.64,11.5l-.19,154.31c0,4.23,3,5.93,6.68,3.81,39-22.36,77.89-45.51,116.86-67.86a14.63,14.63,0,0,0,6.64-11.5Z"/><path class="cls-26" d="M344.49,1172c-5.32,1.4-10.07,7.69-10.62,14s3.31,10.37,8.63,9,10.06-7.69,10.61-14S349.8,1170.54,344.49,1172Z"/><path class="cls-27" d="M344,1177.25c-2.87.76-5.43,4.15-5.73,7.57s1.79,5.59,4.66,4.83,5.42-4.15,5.72-7.57S346.89,1176.49,344,1177.25Z"/><path class="cls-26" d="M399.07,1145.92c0-1.35-1-1.88-2.13-1.18l-35.5,20.14a4.75,4.75,0,0,0-2.12,3.7v2.66c0,1.34,1,1.87,2.13,1.18L397,1152.28a4.79,4.79,0,0,0,2.11-3.7Z"/><path class="cls-26" d="M382.79,1165.6c0-.8-.56-1.11-1.25-.7l-21,11.9a2.8,2.8,0,0,0-1.25,2.18v1.57c0,.79.57,1.11,1.26.7l21-11.9a2.78,2.78,0,0,0,1.24-2.18Z"/><polygon class="cls-28" points="420.1 1247.23 391.92 1200.68 377.69 1252.37 363.22 1234.77 345.21 1290.19 420.1 1247.23"/><path class="cls-24" d="M368.84,1204c-3.87,1-7.33,5.48-7.74,10.1s2.42,7.59,6.29,6.63,7.33-5.48,7.73-10.1S372.71,1203.07,368.84,1204Z"/><path class="cls-29" d="M435.65,1167.56c0-7-5-9.84-11.08-6.31L334,1212.59c-6.1,3.52-11,12.07-11,19.08l.26,74.75c0,7,5,9.84,11.08,6.32l90.55-51.35c6.1-3.52,11-12.07,11-19.07Z"/><path class="cls-20" d="M731.65,935.44l-3.26-1.72a5.15,5.15,0,0,0-4.15.73c-39,22.36-77.89,45.51-116.87,67.87a14.65,14.65,0,0,0-6.64,11.5l-.19,154.31a4.87,4.87,0,0,0,1.65,4.07c1.23.91,3.76,2.88,5.76,1.72,39-22.36,77.16-47.49,116.14-69.85a14.63,14.63,0,0,0,6.64-11.5Z"/><path class="cls-19" d="M733.63,939.73c0-4.22-3-5.93-6.68-3.8-39,22.35-77.89,45.5-116.87,67.86a14.65,14.65,0,0,0-6.64,11.5l-.19,154.31c0,4.22,3,5.93,6.68,3.81,39-22.36,77.89-45.51,116.87-67.87a14.62,14.62,0,0,0,6.64-11.49Z"/><path class="cls-26" d="M632.49,1004.45c-5.31,1.41-10.06,7.7-10.61,14s3.31,10.36,8.62,9,10.07-7.7,10.62-14.05S637.81,1003.05,632.49,1004.45Z"/><path class="cls-30" d="M632,1009.75c-2.86.76-5.42,4.15-5.72,7.58s1.79,5.58,4.65,4.83,5.43-4.15,5.73-7.58S634.9,1009,632,1009.75Z"/><path class="cls-26" d="M687.07,978.43c0-1.35-1-1.88-2.12-1.18l-35.51,20.14a4.73,4.73,0,0,0-2.11,3.7v2.66c0,1.34,1,1.87,2.13,1.17L685,984.78a4.72,4.72,0,0,0,2.11-3.69Z"/><path class="cls-26" d="M670.8,998.11c0-.8-.57-1.11-1.26-.7l-21,11.89a2.77,2.77,0,0,0-1.25,2.19v1.57c0,.79.56,1.1,1.25.69l21-11.89a2.82,2.82,0,0,0,1.25-2.18Z"/><polygon class="cls-31" points="708.1 1079.74 679.92 1033.19 665.69 1084.88 651.23 1067.28 633.21 1122.69 708.1 1079.74"/><path class="cls-24" d="M656.84,1036.54c-3.87,1-7.33,5.48-7.73,10.1s2.41,7.59,6.28,6.63,7.34-5.48,7.74-10.1S660.72,1035.58,656.84,1036.54Z"/><path class="cls-32" d="M723.65,1000.07c0-7-5-9.84-11.08-6.32L622,1045.1c-6.09,3.52-11,12.07-11,19.07l.26,74.76c0,7,5,9.84,11.09,6.32l90.55-51.35c6.1-3.52,11-12.07,11-19.07Z"/><path class="cls-33" d="M744.16,266.44c0-14.4-10.23-20.23-22.77-13C588.54,329.65,456,408.53,323.1,484.73c-12.51,7.23-22.66,24.79-22.62,39.19L300,937.17l.23-.14L300,1141.3c0,14.39,10.24,20.22,22.77,13C455.63,1078.08,588.21,999.21,721.07,923c12.52-7.23,22.66-24.79,22.62-39.18l.47-413.25-.23.13Z"/><path class="cls-5" d="M686.76,365.47c-.12-43-30.59-60.42-68.06-38.78L425.78,435.33c-37.42,21.61-67.73,74.1-67.61,117.11l1.61,422c.13,43,30.63,60.4,68.06,38.78L620.76,904.6c37.47-21.64,67.73-74.1,67.62-117.11Z"/><path class="cls-19" d="M680.15,375.4c-.11-41.28-29.35-58-65.3-37.22L429.72,442.44c-35.91,20.74-65,71.1-64.88,112.38l1.55,409.71c.11,41.27,29.39,58,65.31,37.22L616.82,897.49c36-20.76,65-71.11,64.89-112.38Z"/><path class="cls-34" d="M570.62,679.77c.92,4.2,3.66,14.38,7.41,28.56S587,750,589.1,767.07c1.9,8.21-2,14.95-8,16.72-31.19,16.88-69.19,25.38-95.82,44.77-5.79,4.21-16.54,14.11-20.37,19.39-.56.76-2.25,2.4-2.82,3.29,0,0-5-4.51-5.48-5.14s-2.9-11-2.9-11,13.18-11.58,14.07-12c10.08-4.78,5.28-10.61,15.72-8.77a.79.79,0,0,0,.53.08c14.41-9.88,30.8-30.51,46-39.09,10.18-5.73,18.63-8.38,29.21-11.63-7.5-21.3-16-48.39-21.24-72.23Z"/><path class="cls-35" d="M462.32,851.48a46.61,46.61,0,0,1-4.8,5.68,3.24,3.24,0,0,1-2.55,1.13c-4.1-.57-4.75-14.37-3.53-19.78.78-3.5,3.22-4.9,5.92-7.1,4.06-3.3,4.48-3.72,8.53-7.34l-13.26,5.67-1.19-.69a160.56,160.56,0,0,0,15.43-10.49c1.57-1.27,3.27-2.9,4.19-3.51,5.45-3.57,9.8-2.29,12.83-.58-4,.95-8.05,7-14.51,12C461.55,832.55,458.36,843.8,462.32,851.48Z"/><path class="cls-36" d="M521.78,670.34c-1.94,13-12.78,22.18-13.83,38.57-.79,12.36,5.13,26.21,8.81,38.37,2.28,7.53,4.9,16.29,7.79,26.9.55,2,4,10.05,3.46,11.43C524.7,800.52,518,803,514.39,821c-3.06,15.12-3.56,37.18-6.46,57.24h0a.56.56,0,0,1-.39.43c-9.25,4.51-2.64,6.72-8,16.38C499,895.9,495,913,495,913s8,7,8.74,7.27,7.44,1,7.44,1c0-1.06.38-3.37.39-4.32.07-7.83,5.4-25.62,7.84-34.4,7.7-24.41,17.4-43.14,25.26-62.35,3.45-8.44,7.2-17.24,11.48-27.13a16.39,16.39,0,0,0,2-7.43,82.45,82.45,0,0,0,0-14.4c-1.39-14.92-3.46-32.75-5.67-48,9.52-19.57,16.2-30.4,18.11-40.13a32.3,32.3,0,0,0-3.54-12.08Z"/><path class="cls-35" d="M511.74,913.52c.12,2.3-.07,5.43-.11,7.85a44.68,44.68,0,0,1-.66,7.33,3.23,3.23,0,0,1-1.42,2.39c-3.67,1.92-12.21-8.93-14.37-14.05-1.39-3.3-.21-5.85.71-9.21,1.38-5.05,1.48-5.64,2.67-10.93l-7.49,12.31-1.38.14a160.88,160.88,0,0,0,6.47-17.5c.54-2,1-4.27,1.37-5.3,2.36-6.07,6.65-7.55,10.1-7.92-2.69,3.09-2.9,10.12-5.24,18-2.45,8.21-2.25,18.59.73,20.9,1.26,1,5.19.71,7.34.57C511.27,918,511.6,915.49,511.74,913.52Z"/><path class="cls-17" d="M601,581.69a18.37,18.37,0,0,0,1.62-3.93c.29-1.47-.69-1.68-1.16-3.87a60.11,60.11,0,0,1-.47-6.42c-.23-2.39.59-3.81.89-5.88a2.76,2.76,0,0,1,3.17-2.52,20.56,20.56,0,0,1,2.83.87,11.76,11.76,0,0,1,4.05-2.06,3,3,0,0,1,3.67.77,20.2,20.2,0,0,1,4.15,4.58,34.4,34.4,0,0,1,1.67,7.37c.38,2.61.42,3.63-.68,5.08-2.42,3.18-3.9,3.9-5.62,5.67a32.47,32.47,0,0,0-4.54,6.43c-7.66,17-9.72,33.8-20.16,48.35a6,6,0,0,1-3.78,2.61c-2.5.56-6.42-3-9.24-4.3l2.12-16.24C582,609.87,592.69,593.94,601,581.69Z"/><path class="cls-37" d="M609.82,589.17a14.35,14.35,0,0,1-4.53-1.18c.77-1.17,1.15-2.16,3.62-6.46,1-3.08,4-5.11,6.84-6.28-1.26-.69-1-.21-1.87-1.39-.68,1.06-2.12,1.71-2.51,1.29A2.26,2.26,0,0,1,611,573a4.09,4.09,0,0,1,3.6-2.55c.83,0,3.72,1.72,7,3.66a4.21,4.21,0,0,1-.81,1.61c-2.42,3.18-3.9,3.9-5.62,5.67A37,37,0,0,0,609.82,589.17Z"/><path class="cls-17" d="M605.67,559.21c.55.15,1.22.37,2.23.73a11.76,11.76,0,0,1,4.05-2.06,3,3,0,0,1,3.67.77,20.2,20.2,0,0,1,4.15,4.58,34.4,34.4,0,0,1,1.67,7.37,8.3,8.3,0,0,1,0,3.8c-2.3-1.17-4.91-2.73-7.14-4-1,.38-4.68,2.58-2.88,4.87-1.46-1.63-2.31-5.08-3.17-7.94a58.57,58.57,0,0,1-1.91-7.61Z"/><path class="cls-37" d="M605.67,559.21c.55.15,1.22.37,2.23.73a11.76,11.76,0,0,1,4.05-2.06,4.41,4.41,0,0,1,1.42-.3l1,12.77c-1,.38-4.68,2.58-2.88,4.87-1.46-1.63-2.31-5.08-3.17-7.94a58.57,58.57,0,0,1-1.91-7.61Z"/><path class="cls-17" d="M601,567.47c-.23-2.39.59-3.81.89-5.88a2.76,2.76,0,0,1,3.17-2.52,20.56,20.56,0,0,1,2.83.87c1.12.22,1.18.3,1.66,1a2.66,2.66,0,0,1-.81,2.43C606.57,565.19,601.7,567,601,567.47Z"/><path class="cls-37" d="M609.55,560.94c-.79,1.85-3.47,3.31-6.64,1.78a4.11,4.11,0,0,0,3.79,2.22C608.7,564.83,610.4,563.15,609.55,560.94Z"/><path class="cls-38" d="M599.74,583.19c.25-.49,1.49-2.58,1.68-3a16.36,16.36,0,0,0,10.16,6.23c-.26.43-1.45,2.92-1.72,3.39a11.29,11.29,0,0,0-.35,3.08c-.68,9.13-9.11,29.34-19.07,43.23a6,6,0,0,1-3.78,2.61c-2,.45-7-3-9.32-4.17-7.91-4.1-23.51-20.22-37.14-46.85,1.64-2.3,7.43-5.64,8.5-6.18a12.09,12.09,0,0,1,11.4.42c3.46,2.36,7.34,7.78,11.46,16.32A166.4,166.4,0,0,0,581,614.4a209,209,0,0,1,16.63-29.53C598.16,584.06,599.21,584,599.74,583.19Z"/><path class="cls-39" d="M571.19,682.21c1.24,5.09,3.69,14.19,6.84,26.12,3.53,13.36,11.41,34,18.34,49.61a22.51,22.51,0,0,1-3.66,5.34c-5.32,5.2-15.46-2.63-20.33-.4-3.65,1.66-3.67,8-7.32,10.16-8.54,5.08-11.67.71-19.93-2.43-5.67-2.16-9.31.21-12.15,2.52-5.54,4.51-8.41,2.94-14,.7,1.49-7.85-.22-19.91-2.23-26.55-3.68-12.16-10-26-9.21-38.37.54-8.44,6.29-22.39,10.29-30.48,5.82-18.47-.32-22.24-2.39-27a141.82,141.82,0,0,1-8.11-24c-3-13.25-3.18-19.38,2-24.9,7.13-7.59,23.1-15.65,38.61-19.21,7.83-1.79,11.66-1.39,14,2a10.78,10.78,0,0,1,1.74,3.57,52.49,52.49,0,0,1,1.44,6.53,62.87,62.87,0,0,0,6.45,11.4c4.93,7.19,5.45,19.19-2.86,25.4.21,2.23.62,3.61.83,5.81,1.4,14.88-4.38,20.48.31,38.77A22.22,22.22,0,0,1,571.19,682.21Z"/><path class="cls-40" d="M531.17,774.45c-4.42,2.82-7.24,1.37-12.18-.62,1.49-7.85-.22-19.91-2.23-26.55-3.68-12.16-10-26-9.21-38.37.54-8.44,6.29-22.39,10.29-30.48,5.82-18.47-.32-22.24-2.39-27a141.82,141.82,0,0,1-8.11-24c-3-13.25-3.18-19.38,2-24.9,1.6-1.71,7.57-2.66,9.41-.92,5,4.67,5.82,21,6.11,28.89.64,17.66,17,12.72,21.8,9.67-7.78,8.76-15.44,6.14-17.21,9.87-1.22,2.55,1.88,15.53-1.56,25-5.59,15.38-8.54,28.17-7.89,40.84C520.79,730.91,531.86,751.83,531.17,774.45Z"/><path class="cls-41" d="M482.36,527c-11.1,12.54-20.47,4.32-26.74,3.28-28-4.64-47.78,23-30.7,53.55,10.84,19.4,45,22.74,62.64-4.22,10.89-16.67,16.14-27.72,23.81-26.89,32.49,3.5,31.67-16.22,20.72-27.42C523,516,500,507.07,482.36,527Z"/><path class="cls-42" d="M420.16,550.77c-3,9.34-2,21,4.76,33,10.84,19.4,45,22.74,62.64-4.22,10.89-16.67,16.14-27.72,23.81-26.89C542.21,556,543,538.41,533.67,527c-6.81.29-10.94,6.05-14.86,6.5-5.66.65-14.15,1.4-18.26,3.77-12.34,7.1-17.89,17.2-25.71,26.16C452.41,589.16,419.41,580.67,420.16,550.77Z"/><path class="cls-42" d="M419.38,569.22a50.53,50.53,0,0,0,5.54,14.58c10.84,19.4,45,22.74,62.64-4.22,10.89-16.67,16.14-27.72,23.81-26.89,30.14,3.25,31.62-13.49,22.92-24.87-4.36.41-12,4.27-18.86,11.85-18.32,4.71-24.63,17.68-33.84,32.25C461.38,603.86,425.12,595.35,419.38,569.22Z"/><path class="cls-43" d="M514.12,550.93c3.31-21.36,23.75-25.72,37.71-22.46s17.11,14.64,14.88,26.47c-2,10.69-4.27,24.51-18.11,26.86-7.43,1.26-13.22,1.82-18.18-.14C518.36,576.89,514.24,563.79,514.12,550.93Z"/><path class="cls-44" d="M565.71,559.24c1.07-8.11-1.68-19.67-7.07-23.91,3.14,9.42-13.47,22-16.63,30.16-2.36-3.76-12.57-7.31-12,3.61s-13.48-8.31-15.87-16.47c.22,24.47,15.84,28.84,16.33,29,5,2,10.75,1.4,18.18.14C557,580.37,566.23,565.37,565.71,559.24Z"/><path class="cls-45" d="M543,569.29c-4.36-8.54-14.07-5.35-9.57,4,.92,1.92,2.27,3.65,2.46,6.82.05,1,11.47,1.89,12.68,1.69,7.5-1.28,16.33-17.27,15.75-21.22.7-9.91-.13-15-4.68-21.11C560.48,548.92,543.34,559.16,543,569.29Z"/><path class="cls-46" d="M536.27,570.63a40.24,40.24,0,0,1-2.75,19.54c5.19,5.44,15.12,3.88,17.69-.6-.3-3-.69-5.8-.82-8.89Z"/><path class="cls-17" d="M560.79,543.58a21.85,21.85,0,0,1,2.65,15.17,6.46,6.46,0,0,0,.29,3.6c2.21,6,1.87,7.74.3,12.31s-1.58,6.8-3.21,8.26-4.07,1.71-6.09,1.71c-4.13,0-11-3.15-15-5.64-2.94-1.86-2.75-3-3.85-6-4.06-4-1.11-6.55.34-6.74,4.18-.55,4.55,4.25,6.93,5.45C543.28,563.37,560.07,550.27,560.79,543.58Z"/><path class="cls-37" d="M560.79,543.58c-2.94,10.11-16.82,17-17.62,28.17C547.55,560.4,561,553.29,560.79,543.58Z"/><path class="cls-17" d="M501.26,500.88c-.3-3.87-.52-7.65-.59-11.31-.13-7.06,4.49-5.85,7.3-7.62,1.25-.79,1.65-3,1.81-5.12a23.46,23.46,0,0,0,0-4.79c-.13-.68-4.35-5.83-5.46-7.67a1.8,1.8,0,0,0-2.63.12c-2.23-.11-3.07-.17-6.5-.14-4.76,0-9.38.36-10.1,1.31-1.72,2.29-1.32,6.61-.61,9.25,1.21,4.5,2.94,8.23,3.44,11.47a84.64,84.64,0,0,1,.58,16.23Z"/><path class="cls-37" d="M493.42,499.56c-.13-5.08-.24-9.84-.32-13.92-.12-7.06,4-5.54,7-7.05-.65-1.36-7.89-1.48-5.72-2.19s9.2-2.2,9.25-3.37c-1.19-6-1.8-8.18-8.54-8.15-4.76,0-9.25-.17-10,.78-1.72,2.29-1.32,6.61-.61,9.25,1.21,4.5,3.26,8.2,3.44,11.47l.69,13Z"/><path class="cls-37" d="M502.77,464c1.3,1.62,1.62,3.79,2.13,6.23.35,1.32,1,1.95,2.66,2.76-1,3.76-2.41,4.93-6.1,5.7,2.94-1.55,3.07-1.69,3.48-5.83C503.32,470,500,464.34,502.77,464Z"/><path class="cls-17" d="M504,467.18a3,3,0,0,0-2.28-3c-1.18-.49-4.88-.26-8.38,0-4.22.31-8.08.67-8.29,1.62,3.07,1.25,4.2,2.83,4.34,4.21a30.85,30.85,0,0,1-.8,5.11c2.11.61,5.59-.13,8.53-.59a41.5,41.5,0,0,0,6.78-1.47C504.64,470.34,504.19,469.35,504,467.18Z"/><path class="cls-47" d="M486.67,553.53c.65,6.58,8.71,47.46,10.86,53.34,1.74,4.76,3.66,10.48,8.23,16.12,3.45,5,6.81,5.57,8.58,5.89,4.53.82,7.11-3.52,7.54-9.78.49-7.23-1.15-17.09-4.45-23.05-4.58-19.92-7.37-24.07-11.35-43.92-.46-11.94-1.79-40.92-3.32-52.54a29.24,29.24,0,0,0-1.3-4.61,23.63,23.63,0,0,1-.56-4.42,14.16,14.16,0,0,1-12.8-1.48c.2,1.94,0,3.9,0,5.94a15.77,15.77,0,0,0-1.12,3.45C486,504.47,485.54,542,486.67,553.53Z"/><path class="cls-48" d="M543,632.16c16.39-9.46,29.7-1.86,29.75,17s-13.17,41.75-29.56,51.21-29.69,1.86-29.74-17S526.64,641.61,543,632.16Z"/><polygon class="cls-19" points="535.02 688.22 535.06 654.16 564.44 651.76 535.02 688.22"/><path class="cls-48" d="M366,1084.77c-.05-15.08-10.72-21.19-23.86-13.6l-10.87,6.25c-13.12,7.58-23.74,26-23.7,41.06l.56,8.35c.05,15.07,10.74,21.17,23.86,13.59l10.87-6.25c13.14-7.59,23.75-26,23.71-41.06Z"/><path class="cls-19" d="M321.62,1132.51l15.17-8.76a1.66,1.66,0,0,1,2.66,1.53,4.33,4.33,0,0,1-2,3.45l-16.16,9.33a2.7,2.7,0,0,1-4.34-2.48l0-18.53a4.27,4.27,0,0,1,2-3.45,1.65,1.65,0,0,1,2.66,1.52l.05,17.39Zm30.85-53.43-15.12,8.73a1.67,1.67,0,0,1-2.68-1.53,4.29,4.29,0,0,1,2-3.45l16.12-9.3a2.68,2.68,0,0,1,4.34,2.48l.05,18.56a4.32,4.32,0,0,1-2,3.45,1.68,1.68,0,0,1-2.68-1.53Z"/><path class="cls-48" d="M662,913.89c0-15.08-10.73-21.18-23.86-13.59l-10.87,6.25c-13.12,7.58-23.74,26-23.7,41.05l.56,8.35c.05,15.08,10.74,21.18,23.86,13.6l10.87-6.25c13.14-7.59,23.75-26,23.7-41.06Z"/><path class="cls-19" d="M633.78,938.3c-.87,1.25-1.66,2.56-2.47,3.86-3,4.86-6.73,10.86-11.81,13.79-4.14,2.4-9.4,3.11-11.85-2a11.8,11.8,0,0,1-1-4.8,19,19,0,0,1,.86-5.54,22.76,22.76,0,0,1,10.18-13c4.59-2.66,8.18-1.88,12.79.14.6.26,1.23.56,1.86.78.88-1.25,1.67-2.57,2.48-3.86,3-4.86,6.73-10.84,11.81-13.77,4.11-2.38,9.4-3.15,11.81,1.94a11.28,11.28,0,0,1,1,4.83,18.79,18.79,0,0,1-.88,5.52,22.74,22.74,0,0,1-10.16,13c-4.6,2.66-8.17,1.85-12.79-.16-.6-.26-1.23-.56-1.87-.78Zm-5.29-1.4-.76-.33c-2.91-1.27-5.31-2.23-8.29-.51a14.79,14.79,0,0,0-6.62,8.4,11.63,11.63,0,0,0-.54,3.46,6,6,0,0,0,.46,2.47c1,2.1,3.53,1,5,.11,3.67-2.11,7-7.66,9.2-11.21.5-.8,1-1.6,1.51-2.39Zm9.2-4,.75.32c2.9,1.26,5.31,2.27,8.28.55a14.81,14.81,0,0,0,6.64-8.43,12.1,12.1,0,0,0,.54-3.43,6.18,6.18,0,0,0-.47-2.5c-1-2.09-3.55-.94-5-.08-3.66,2.12-7,7.62-9.18,11.18Z"/><path class="cls-48" d="M730.93,872.76c0-15.08-10.72-21.19-23.86-13.6l-10.87,6.25c-13.12,7.58-23.74,26-23.7,41.06l.57,8.35c0,15.07,10.73,21.17,23.86,13.59l10.86-6.25c13.14-7.59,23.75-26,23.71-41Z"/><path class="cls-19" d="M710.19,878.06l3.81-2.25a6.3,6.3,0,0,1,3.1-.9,4.51,4.51,0,0,1,4,2.31,6.33,6.33,0,0,1,.77,3.1L722,899a10.81,10.81,0,0,1-1.54,5.33,11.18,11.18,0,0,1-3.83,4l-14.91,8.8a6.38,6.38,0,0,1-3.1.9,4.72,4.72,0,0,1-2.32-.6,4.53,4.53,0,0,1-1.7-1.72,6.3,6.3,0,0,1-.77-3.09v-3.12L690,911.75a6.08,6.08,0,0,1-3.1.91,4.69,4.69,0,0,1-2.32-.6,4.6,4.6,0,0,1-1.71-1.71,6.22,6.22,0,0,1-.76-3.1l-.1-18.7a10.84,10.84,0,0,1,1.54-5.33,11.07,11.07,0,0,1,3.82-4l14.92-8.8a6.27,6.27,0,0,1,3.1-.9,4.6,4.6,0,0,1,2.32.61,4.5,4.5,0,0,1,1.7,1.71,6.18,6.18,0,0,1,.76,3.09l0,3.12ZM698.74,906.6l0,6c0,.16,0,.47-.14.48a1.6,1.6,0,0,0,.59-.24l14.92-8.78a6.75,6.75,0,0,0,2.9-5l-.1-18.7a1.79,1.79,0,0,0,0-.44,2.68,2.68,0,0,0-.41.19l-6.27,3.69,0,9.86a10.77,10.77,0,0,1-1.54,5.32,11,11,0,0,1-3.82,4l-6.17,3.64Zm6.45-32.08a2.52,2.52,0,0,0-.4.19l-14.92,8.79a6,6,0,0,0-2,2.19,6.1,6.1,0,0,0-.88,2.84l.1,18.7c0,.16,0,.47-.14.48a1.74,1.74,0,0,0,.6-.23l14.91-8.79a6.77,6.77,0,0,0,2.91-5l-.1-18.7A2.47,2.47,0,0,0,705.19,874.52Z"/><path class="cls-49" d="M900.6,564.46h10l0,19.93h-10l0-19.93Zm-145.12-331,4.37-2.55-5-8.61-4.37,2.55,5,8.61Zm13-7.57,17.23-10-5-8.61-17.23,10,5,8.61Zm25.84-15c5.73-3.33,11.56-6.61,17.24-10l-5-8.62c-5.62,3.43-11.54,6.69-17.24,10l5,8.61Zm25.86-15c5.73-3.35,11.5-6.67,17.25-10l-5-8.63q-8.64,5-17.25,10l5,8.62Zm25.87-15c5.75-3.32,11.5-6.66,17.26-10l-5-8.64-17.28,10,5,8.63ZM871.92,166c5.26-3,11.56-7.14,16.92-9.61l-4.12-9.08c-.91.44-1.77.87-2.66,1.38h0L867,157.33l5,8.64Zm23.57-10.84c4.57.88,5.56,6.18,5.6,10.12v.5h10v-.54c-.06-9-4-18-13.62-19.87l-1.94,9.78Zm5.58,20.59h10l0,19.94-10,0,0-19.93Zm0,29.9h10l0,19.94H901l0-19.94Zm0,29.9,10,0,0,19.93H901l0-19.94Zm0,29.91h10l0,19.94-10,0,0-19.93Zm0,29.9h10l0,19.94h-10l0-19.94Zm0,29.9,10,0,0,19.93h-10l0-19.94Zm0,29.91h10l0,19.93h-10l0-19.93Zm0,29.9h10l0,19.94-10,0,0-19.93Zm0,29.9h10l0,19.94h-10l0-19.94Zm0,29.9,10,0,0,19.93h-10l0-19.94Zm0,29.91h10l0,19.94-10,0,0-19.93Zm0,29.9h10l0,19.94h-10l0-19.94Zm0,29.9,10,0,0,19.93h-10Z"/><path class="cls-49" d="M371.84,302.88h10v10.9c0,9.18-10,8.54-10,2.11v-13Zm-289,604.23-12.38,7.16,5,8.63,12.38-7.17-5-8.62Zm-21,12.15-17.27,10,5,8.63,17.27-10-5-8.62ZM35.93,934.17c-2.94,1.69-11.24,7.32-16.36,8.75L22,952.57a27.92,27.92,0,0,0,7-2.92h0l11.91-6.84-5-8.65Zm-12.08,6.94.09-.05-.09.05Zm-10.11,1.4c-3-1.69-3.74-6.32-3.77-9.44v-4.21l-10,0v4.26c.05,7,2.25,14.07,8.55,17.92h0l5.18-8.52ZM10,918.89H0l0-19.94,10,0,0,19.93ZM10,889l-10,0L.09,869h10L10,889Zm0-29.9-10,0,0-19.93h10l0,19.94Zm0-29.91H.14l0-19.94,10,0,0,19.93Zm0-29.9H.17l0-19.94h10l0,19.94Zm0-29.9-10,0,0-19.93h10l0,19.94Zm0-29.91H.25l0-19.93h10l0,19.93Zm0-29.9H.29l0-19.94,10,0,0,19.93Zm0-29.9-10,0,0-19.93h10l0,19.94Zm0-29.91H.36l0-19.93h10l0,19.93Zm0-29.9H.4l0-19.94,10,0,0,19.93Zm0-29.9H.43L.46,570h10l0,19.94Zm0-29.9-10,0,0-19.93h10l0,19.94Zm0-29.91H.51l0-19.93h10l0,19.93Zm0-29.9H.54l0-19.94,10,0,0,19.93Zm0-29.9-10,0,0-19.93h10l0,19.94Zm0-29.9-10,0v-4.18A44.7,44.7,0,0,1,4.38,419l9.18,3.88a35,35,0,0,0-3,13.35v4.19ZM17.84,415a37,37,0,0,1,11.61-11.44L30.5,403l-4.95-8.64-1.05.6.06,0-.08.05A46.77,46.77,0,0,0,9.57,409.44L17.84,415Zm21.31-17L56.44,388l-5-8.63-17.28,9.94,5,8.64Zm25.92-14.93,17.27-10-5-8.62-17.25,10,5,8.63Zm25.89-15,17.25-10-5-8.62L86,359.46l5,8.63Zm25.87-15c5.75-3.33,11.49-6.69,17.24-10l-5-8.62c-5.76,3.33-11.49,6.69-17.24,10l5,8.61Zm25.86-15,17.22-10-5-8.61-17.22,10,5,8.61ZM168.52,323l17.22-10.05-5-8.61L163.5,314.36l5,8.61Zm25.83-15.08,17.21-10.06-5-8.6-17.21,10,5,8.61Zm25.81-15.09,17.22-10.05-5-8.61L215.14,284.2l5,8.6ZM246,277.72c5.74-3.35,11.47-6.73,17.22-10.05l-5-8.61c-5.76,3.32-11.48,6.7-17.22,10.06l5,8.6Zm25.83-15.07,17.22-10L284,244l-17.22,10,5,8.61ZM301.53,245q8.63-5,17.25-10l-5-8.63-17.27,10,5,8.63Zm25.88-15c5.75-3.32,11.54-6.6,17.27-9.95l-5-8.64c-5.32,3.42-11.72,6.75-17.28,9.95l5,8.64Zm25.91-14.91c1.72-1,3.43-2,5.16-3,2.56-1.41,6.15-2.64,9-1.51h0l3.87-9.18c-6.16-2.57-12.87-.8-18.43,2.39h0l-4.58,2.63,5,8.64Zm17.8-.18,9.41-3.29.05.16a27,27,0,0,1,1.33,8.61v12.7h-10l0-12.66a17.34,17.34,0,0,0-.8-5.41l0-.1Zm.8,28.14h10l0,19.93h-10l0-19.93Zm0,29.9h10l0,19.94-10,0Z"/><path class="cls-49" d="M187.59,989.52h-10l0-19.93h10l0,19.93Zm80.68,261.87-2.79,1.62,5,8.63,2.8-1.63-5-8.62ZM256.85,1258c-5.76,3.28-11.51,6.64-17.25,10l5,8.62c5.74-3.33,11.49-6.69,17.26-10l-5-8.62ZM231,1273c-5.76,3.28-11.56,6.59-17.27,10l5,8.64c5.76-3.3,11.5-6.65,17.28-10l-5-8.64Zm-25.91,14.91-3.85,2.21c-2.84,1.58-6.83,3.23-10,1.64l-4.56,8.87c6.32,3.29,13.67,1.49,19.54-1.87h0l3.84-2.2-5-8.65Zm-17.25-.79-9.57,2.78c-1.82-6.21-1-15.82-1-21.26l10,0c0,2.77-.8,13.56.63,18.46Zm-.62-28.43h-10l0-19.94h10l0,19.94Zm.05-29.9-10,0,0-19.93h10l0,19.94Zm0-29.91h-10l0-19.93h10l0,19.93Zm0-29.9h-10l0-19.94,10,0,0,19.93Zm0-29.9h-10l0-19.94h10l0,19.94Zm0-29.9-10,0,0-19.93h10l0,19.94Zm.05-29.91h-10l0-19.94,10,0,0,19.93Zm0-29.9h-10l0-19.94h10l0,19.94Zm0-29.9-10,0,0-19.93h10Z"/><path class="cls-50" d="M760.92,348.56l-8.14,4.7c-12.21,7.05-22.1,24.18-22.06,38.21l.52,149.81c0,14,10,19.71,22.21,12.66l8.06-4.65L762,549l0-22.9Z"/><path class="cls-4" d="M997.19,215.92c0-4,3.12-7.24,1.73-9.81L996,203.59l-8.93-3.79c-3.76-1.2-8.49-.48-13.62,2.48L764.26,323c-12.22,7.06-22.1,24.18-22.06,38.22l.52,149.8c0,6.88,2.42,11.75,6.3,14.1a47.1,47.1,0,0,0,12.15,5c2.3-.4,2.72-3.94,5.29-5.43L975.65,403.94c12.23-7.06,22.11-24.18,22.07-38.22Z"/><path class="cls-51" d="M1003.87,218.46c0-14-10-19.72-22.21-12.66L772.47,326.54c-12.21,7-22.1,24.18-22.06,38.21l.52,149.81c0,14,10,19.71,22.21,12.66L982.33,406.48c12.23-7.06,22.11-24.18,22.07-38.22Z"/><path class="cls-52" d="M996.72,375.55c0-1.21-.87-1.69-1.93-1.05L762.73,508.76a4.32,4.32,0,0,0-1.91,3.36l0,3.7c0,1.22.87,1.69,1.93,1L994.85,382.62a4.38,4.38,0,0,0,1.92-3.37Z"/><path class="cls-53" d="M858.14,455.83c0-1.17-.83-1.63-1.86-1L762.68,509a4.22,4.22,0,0,0-1.85,3.25l0,3.56c0,1.18.83,1.63,1.86,1l93.6-54.14a4.22,4.22,0,0,0,1.85-3.25Z"/><path class="cls-19" d="M916.1,309.5c0-3.75-2.67-5.27-5.94-3.38L837.79,347.9a13,13,0,0,0-5.9,10.22L832,421c0,3.75,2.67,5.27,5.94,3.38l72.37-41.78a13,13,0,0,0,5.9-10.22Z"/><path class="cls-54" d="M874,339.18c12.53-7.23,22.7-1.42,22.74,13s-10.07,31.92-22.6,39.16-22.7,1.42-22.74-13S861.47,346.41,874,339.18Z"/><polygon class="cls-19" points="867.88 382.04 867.91 356 890.37 354.16 867.88 382.04"/><path class="cls-55" d="M760.93,658.75q-22,12.78-44.09,25.43c-8.42,4.87-15.24,16.67-15.21,26.35l-.44,131.53c0,9.68,6.89,13.58,15.31,8.72l45.92-26.48.13-26.56Z"/><path class="cls-56" d="M1009.76,514.22c0-9.68-6.88-13.6-15.31-8.73C905.14,556.72,816,609.75,726.68,661c-8.42,4.86-15.24,16.67-15.21,26.35L711,818.86c0,9.67,6.9,13.58,15.32,8.72,89.31-51.23,178.46-104.27,267.76-155.49,8.43-4.87,15.24-16.67,15.21-26.35Z"/><path class="cls-48" d="M718.72,706l7.82,8.06,3.94-7.27,4.52,6.82,4.39-10,1.71,8.55,1.73,8,3.93-1.71,2.81-2.53,2.71-8.79,2.82,5,2.8-12.24,2.76-16.4,1.71,5.22.53-8.74,3.88,8.13,3.42,6.42,6.2,7.34,2.15-9.11,2.81.32,3.36-12.28,1.7,3.84,2.78-9.22,6.1-1.58-1.75-23.94,6.79,5,3.95,5.58,1.07,8.37,2.79-5.52,3.43,9.76,2.27,6.3,3.37,1.66,2.71-7.23,1.66-10.47,4.52-.58,2.23-7.49,1.13,3.26,3.83-11.75,3.24-46.06,6.22,4.81,2.27,8.49,7.26-.31,2.85,13.53,2.22-7.48,2.75,6.54,0,12.84,1.71,6.33,2.8-9.23,2.78-12.49,3.94,1.69,6-20.05,2.84,3.34,4.43-22.69,4.46,12.13,5.9,7.23,1.44-5.74,4.21,8.84,3.58-8,3.65,8.23,2.22-10.06.62,20.37L912.7,611l2.62,12.09,2.79-7.43,2.71-7L924.45,585l4.22,7.2,3.3-23.46,6.49,18.91,3-10,7.64,28.62,2.8-4.85,2.51,1.23L958,588.13l1.7,5.3,3-22.16,3.19,13.6,1.28-32.1L972,582.46l1.66-20.38L975.07,587l.84-21.47,4.25,21.59,10.61,4.67,10.39-4-10.38,7.84-10.55,16.84L976.11,639l-1-20.53L973.88,645l-1.76-18.41-4.63,35.14L966,631.21l-3.1,17.14-3.12-18.63L958.15,637l-3.63-10.29-2.5,4-2.81-1.52-7.46,37.31L938.67,660l-6.37,26.43-3.42-19.57-4.16,12L921,659.43l-2.74-3.85-2.82-4.3-2.54,15.06-2-5.71-.5,21-2.27-7.49-3.59,12.44-3.62-3.85-4.15,13.61-1.47-4.05-5.83,14-4.38,17.24L880.55,706l-2.82,6.71-6.14-13-3.92,6.16-2.83-9.28L862,690.72l-1.66,8.18,0,12.92-2.71,9.61-2.26-4.79-2.77,16.65-7.23,8.17-2.21,11-4.77,6.28-4.9-36.57L829.63,715l-1.11,4.6-2.26-4.89-4.51,4.57L820,710.68l-2.75-4-3.35,5.54-2.22,8.86-3.37,13.68-2.81-2.24-1,9.45-3.91,10.13L793.88,765l1.61-25.83-6.09,5.45-2.82-5.94-1.67,5.78-3.43-8.39-2.8,3.56-2.19-6.58-6.14,14.44L767,757.87l-3.82,12.57-.59-8.08-1.66,7.15-2.85-13.24-2.86-9-2.79,8.37-2.75-5.73-2.81.8-3.92,2.8-1.69,10L739.59,774l-4.44-5L730.69,781l-4-2.69L719,795.39c-.14.53-7.84,27.71-8,20.46-.68-44.22,0-83.43.5-128.24C711.59,680.91,716.71,699.44,718.72,706Z"/><path class="cls-48" d="M718.72,725.74l7.82,2.24,3.94-5L735,725.5l4.39-6.56,1.71,4.14,1.73,3.82,3.93-2,2.81-2.1,2.71-5.44,2.82,2,2.8-7.33,2.76-9.54,1.71,2.35.53-4.84,3.88,3.33,3.42,2.55,6.2,2.29,2.15-5.46,2.81-.58,3.36-7.49,1.7,1.61,2.78-5.69,6.1-2.48-1.75-12.4,6.79.9,3.95,2,1.07,4.2,2.79-3.7,3.43,4.33,2.27,2.78h3.37l2.71-4.61,1.66-6.07,4.52-1.51,2.23-4.62,1.13,1.45,3.83-7.33,3.24-25.61,6.22.93,2.27,4,7.26-2.1,2.85,6.51,2.22-4.61,2.75,2.78,0,6.89,1.71,2.95,2.8-5.71,2.78-7.45,3.94-.14,6-12.38,2.84,1,4.43-13.37,4.46,5.33,5.9,2.32,1.44-3.47,4.21,3.63,3.58-5.24,3.65,3.45,2.22-6,.62,10.78,1.92-4.85,2.62,5.8,2.79-4.73,2.71-4.5L924.45,606l4.22,2.74,3.3-13.48,6.49,8.44,3-6.19,7.64,13.35,2.8-3.35h2.51l3.56-8.76,1.7,2.4,3-12.71,3.19,6.46,1.28-17.59L972,592l1.66-11.4,1.42,13,.84-11.76,4.25,10.47,10.61-.31,10.39-4.9-10.38,7L980.23,605.9l-4.12,15.34-1-10.78-1.28,14.6-1.76-9.42-4.63,20.11-1.46-16-3.1,10-3.12-9.18-1.66,4.33-3.63-4.56-2.5,2.82-2.81-.06-7.46,22-3.08-2.69-6.37,15.89-3.42-9.6-4.16,7.55L921,646.9l-2.74-1.34L915.4,644l-2.54,8.77-2-2.55-.5,11.43-2.27-3.43-3.59,7.64-3.62-1.1-4.15,8.42-1.47-1.79-5.83,9.07-4.38,10.42-4.54-8.22L877.73,687l-6.14-5.36L867.67,686l-2.83-4.24L862,679.4l-1.66,4.84,0,6.94-2.71,5.88-2.26-2-2.77,9.69-7.23,6.31-2.21,6.53-4.77,4.64-4.9-18.35L829.63,701l-1.11,2.77-2.26-2-4.51,3.66L820,701.29l-2.75-1.4-3.35,3.87-2.22,5.35-3.37,8.25-2.81-.46-1,5.35-3.91,6.48-6.73,8.71,1.61-14.31-6.09,4.55-2.82-2.44-1.67,3.55-3.43-3.6-2.8,2.66-2.19-3-6.14,9.39L767,740.76l-3.82,7.77-.59-4.19-1.66,4.29-2.85-6.36-2.86-4.06-2.79,5.24-2.75-2.35-2.81,1.18-3.92,2.55-1.69,5.79-1.65,6.07-4.44-1.52-4.46,7.68-4-.39L719,773.69c-.14.32-7.84,17-8,13.11-.68-23.58,0-44.84.5-69C711.59,714.14,716.71,722.74,718.72,725.74Z"/><path class="cls-57" d="M259.86,952.32l19,6.32,72.05-40.89c1.4-.83,1.76-3.25,1.7-4.71h0l17.31-193.7c2.81-11.87-9.94-22-17.81-19.85l-23.81,5.13-30.38-9.89L290,685.68,263.22,737.2Z"/><path class="cls-58" d="M138.67,1023.62,333.4,910.44l-25.09-202c-.22-2.57-1.88-6.12-5.15-4.84l-195.56,110Z"/><path class="cls-59" d="M308.31,708.4C222.44,798.86,124.36,855.12,126.92,933l11.75,90.65L333.46,911.05Z"/><path class="cls-59" d="M150.91,859,137.48,1009.7,111.76,818.15c-.74-6.42-5.87-5.89-5.27-1.35L133,1013.1a28.64,28.64,0,0,0,2,8.07,8.6,8.6,0,0,0,2.57,3.52v0l.15.09.44.29V1025A2.72,2.72,0,0,0,141,1025c.83-.71,1.36-2.3,1.57-4.76L156.1,864.52C156.41,860.31,153.45,856.64,150.91,859Z"/><path class="cls-20" d="M287.18,594.71l-5.69-3c-2-.66-4.5-.29-7.25,1.28-68,39-135.94,79.43-204,118.46-6.41,3.71-11.6,12.7-11.58,20.07l-.34,269.37c0,3.35,1.1,5.79,2.88,7.11,2.14,1.58,6.56,5,10.06,3C139.31,972,206,928.09,274,889.06c6.42-3.7,11.61-12.7,11.58-20.07Z"/><path class="cls-19" d="M290.64,602.2c0-7.37-5.24-10.36-11.67-6.65C210.93,634.58,143,675,75,714c-6.42,3.71-11.61,12.7-11.59,20.07l-.33,269.37c0,7.37,5.25,10.35,11.66,6.64,68.05-39,136-79.43,204-118.46,6.42-3.7,11.61-12.7,11.59-20.07Z"/><path class="cls-60" d="M114.1,715.17c-9.27,2.46-17.57,13.43-18.53,24.52s5.78,18.09,15.05,15.64,17.58-13.43,18.54-24.52S123.38,712.72,114.1,715.17Z"/><path class="cls-61" d="M113.3,724.42c-5,1.33-9.47,7.25-10,13.22s3.11,9.76,8.12,8.43,9.47-7.24,10-13.21S118.3,723.1,113.3,724.42Z"/><path class="cls-62" d="M209.38,669.74c0-2.35-1.67-3.27-3.72-2.06l-62,35.16a8.31,8.31,0,0,0-3.69,6.45v4.64c0,2.35,1.68,3.27,3.72,2.06l62-35.15a8.35,8.35,0,0,0,3.69-6.46Z"/><path class="cls-63" d="M181,704.09c0-1.39-1-1.93-2.19-1.21l-36.6,20.76a4.92,4.92,0,0,0-2.18,3.81v2.74c0,1.39,1,1.93,2.2,1.21l36.6-20.75a4.91,4.91,0,0,0,2.17-3.82Z"/><polygon class="cls-64" points="246.08 846.59 196.89 765.34 172.05 855.56 146.81 824.83 115.36 921.57 246.08 846.59"/><path class="cls-65" d="M156.61,771.18c-6.76,1.67-12.8,9.57-13.5,17.63s4.21,13.25,11,11.58,12.81-9.57,13.51-17.64S163.36,769.5,156.61,771.18Z"/><path class="cls-66" d="M273.23,707.52c0-12.23-8.69-17.18-19.35-11L95.82,786.13c-10.64,6.14-19.25,21.06-19.22,33.29l.46,130.49c0,12.23,8.71,17.17,19.35,11L254.47,871.3c10.65-6.15,19.25-21.06,19.22-33.29Z"/><path class="cls-67" d="M153,861.1c-1.1,13.64-11.55,163.21-12.14,164L338.93,908.27c1.45-.86,1.83-3.37,1.76-4.88h0L354.22,747.7l0,0,2.54-29.19c0-2.24-2.12-4.93-2.66-5.42-6.34,6.76-60,38.37-66.71,42.55-10.78,9.51-8.78,22-24.06,41.77a23.36,23.36,0,0,1-8.05,7.29Z"/><path class="cls-59" d="M150.91,859,137.48,1009.7l-4.49,3.4a28.64,28.64,0,0,0,2,8.07,8.6,8.6,0,0,0,2.57,3.52v0l.15.09.44.29V1025A2.72,2.72,0,0,0,141,1025c.83-.71,1.36-2.3,1.57-4.76L156.1,864.52C156.41,860.31,153.45,856.64,150.91,859Z"/><path class="cls-68" d="M249.28,799.45l-98.53,59.34c2.21-1.09,5.47,3.12,5.35,5.73L256,805.12a41.49,41.49,0,0,0,6.9-4.8c11.39-10.14,14.87-24.59,21.35-36.11a26.47,26.47,0,0,1,6.05-7.38c2.09-1.18,3.2-1.81,2.82-1.63l63.61-36.71c-.05-2.22-1.9-6.28-5.88-6.14l-63.69,36.77c.38-.19-.73.44-2.82,1.62a26.62,26.62,0,0,0-6.05,7.38c-6.85,12.19-9.83,25.81-22.61,37.15A45,45,0,0,1,249.28,799.45Z"/><path class="cls-69" d="M273.14,165.47c-11.58,6.4-18.34,13.88-25.85,24.56.09-1.87.18,5,.12-5.59s6-27.65-2.26-36.2c-3.28-3.39-19.24-9.62-23.07-10.6-7.36-1.89-15.89-.61-25,4.36-13.85,7.58-26.39,22.32-35.49,40s-14.78,47.35-14.77,58,0,3.7.16,5.49c-7.71-2.31-14.63-2.28-26.53,4.3s-26.9,22.83-36.19,40.87-15.18,39.28-15.22,59c0,15.42,3.48,27.66,9.46,36.13s17.67,13.59,25.93,16.33c23.67,8.22,69.31-39.78,93.4-53.41q38.32-21.71,76.28-43.16c13.78-7.8,26.14-22.66,35-40.41s14.16-38.34,14-57.58c-.11-11.24,8.11-28.11-2.53-36.18C304,158.93,286.38,158.14,273.14,165.47Z"/><path class="cls-70" d="M286.53,171.28c-11.58,6.4-18.34,13.89-25.85,24.56.09-1.86.18,5,.12-5.59S255,156.6,245.93,148.92s-21.6-8.67-35.45-1.1-26.39,22.31-35.49,40S160.2,235.2,160.22,245.9s.05,3.69.16,5.49c-7.71-2.32-14.63-2.29-26.53,4.3s-26.9,22.83-36.2,40.87-15.17,39.19-15.22,59S88.17,390.17,97.49,398s22.19,8.48,36.36.46l77.38-43.79,76.27-43.15c13.79-7.8,26.15-22.67,35-40.41s14.15-38.35,14-57.58-5.81-33.54-14.82-41.17S298.1,164.88,286.53,171.28Z"/><polygon class="cls-19" points="259.8 266.61 283.52 252.92 246.22 317.54 208.67 296.14 232.38 282.44 232.32 221.6 259.74 205.77 259.8 266.61"/><polygon class="cls-19" points="177.6 292.97 153.88 306.65 191.19 242.04 228.74 263.44 205.02 277.14 205.09 337.97 177.67 353.81 177.6 292.97"/><path class="cls-3" d="M724.57,1424.44,871,1341c16-7.3,38.82-13.1,55.08-4.64,14.82,7.72,39.24,23.5,50,29.66,8.2,4.67,36.66,21.73,18.93,31.37-52.15,28.35-103.76,60.25-156.71,89-10,5.45-24.67,7.42-40.05,6.14s-31-5.73-43.37-12.92q-13.2-7.67-26-15.11c-11.49-6.69-17.58-14.6-18.18-21.91C710.18,1435.54,714.77,1428.92,724.57,1424.44Z"/><path class="cls-17" d="M905.58,1302.25c1,10,2.83,19.38,6.35,26.25,1.75,1.91,3.93,3.06,5,5.24,5.48,11.67,6.69,22.91,2.87,82.8l-14.06.29-1.8-21.15c-1.74-8.57-6.55-21.12-8.5-28.9-4.24-16.92-4.65-25.41-7.25-37.87Z"/><path class="cls-71" d="M935.07,1374.38c1.53-.2,4.44-.33,4.76-.69.73-.81,2.09-4.78,1.1-5.53C939.16,1367,935.55,1373.23,935.07,1374.38Z"/><path class="cls-72" d="M927.26,1350.44c-1.68,5.35.71,10.51,2.39,16.07,5.88,19.41,9.33,20.5,6.84,29.29a39.31,39.31,0,0,1-8.6,15.42c-3.81,4.34-4.95,7.45-9.85,10.83-7.36,5.09-13.92,7.47-12.31-2.74a48.84,48.84,0,0,1,2.4-9.47c5.22-12.12,11.29-17.43,8-32.56-2.44-11.23-6.33-18.63-1.28-26.2Z"/><path class="cls-35" d="M926.1,1338.33c2.21,10.14,5.51,18.64,14.83,29.83-1.17-.31-4.17,2.75-5.82,6.14-12.15-14-18.06-20.76-21.8-14.74.36,5,2.21,14.19,3.76,21.31.51,2.34,1.07,7.51-.41,11.07-4.77,11.45-13.52,28.18-10.18,33.65-1.18-1.47-2.5-5.51-2.48-10.94,0-7.9,1.36-18.61,1.53-25.19.23-8.89-3.13-16.61-3.67-28.72a98.17,98.17,0,0,1,0-10.15c.51-8.56,1.45-19.92,7.47-23.14,2.15-1.14,7.72-.31,10.61,1.15C924,1330.65,925.25,1334.43,926.1,1338.33Z"/><path class="cls-73" d="M843,1186l-42.87-124.24-1.39-34.12c-.23-5.51,2.71-9.56,4.45-13.87,22.59,6.66,35.24,13.83,59.52,13,7.28,10.83,17.26,31.09,17.63,46.41.72,29.83-1.62,49.73,7.49,99.61,27.09,91.19,13,88,23.41,148.62.87,6.46-19,11.6-25.81,7.57Z"/><path class="cls-74" d="M843,1186l-42.87-124.24-1.39-34.12c-.23-5.51,2.71-9.56,4.45-13.87,4.56,1.35,8.72,2.71,12.66,4l25.21,40.3c9.68,19.74,12.13,45.21,19.12,51.1-8,19.29-4.52,58.08-1.67,79.38,8.15-2.73,15.65-3.88,23.66-6.87-5.5,4.58-15.64,9.16-21.28,14.94,10.27,36.85,15.21,74.49,18.65,112.47Z"/><path class="cls-17" d="M826.3,1352.18c.34,9.53,9.4,18.75,10.46,24.94,2.43,14.2-7.86,6.82-19.51,25.08-4.67,0-14.94,16.77-28.84,17.65-3.2.21-8.9-7.54-2.59-13,2.81-1.64,5.32-.42,7.63-2.44,4.83-4.26,10.51-39.27,9.38-49.35Z"/><path class="cls-35" d="M831.61,1366.22c-11.29,1.39-21.83,29-30.56,40.93-4.24,5.82-13.23-.18-9.58-1.74-1.86.13-8.69-.68-13.73.13-7.08,1.14-4.6,8.24.21,11.56,10.72,7.4,20.23,11.57,29.95,6.67a46.64,46.64,0,0,0,6-4,28.38,28.38,0,0,0,4-3.21c3.15-3.77,4.36-9.84,7.23-15,1-1.71,1.72-2.08,2.34-1.61,1.18,1.65,0,26.43-.63,31.39.32,1.42,5.15,2.55,6.12,1.47l9-44a15.71,15.71,0,0,0-1.18-11.27C838,1372.38,832.81,1368.39,831.61,1366.22Z"/><path class="cls-72" d="M802.15,1425.69a20.49,20.49,0,0,0,5.75-1.92,46.64,46.64,0,0,0,6-4,28.38,28.38,0,0,0,4-3.21c3.41-4.08,5.07-11.66,8.86-16.86-1.27-.78-4.56-.7-7.87,4.75-5,9.13-8.38,15.85-14.93,20.28A10.69,10.69,0,0,1,802.15,1425.69Z"/><path class="cls-75" d="M768.48,1159.7c-6.32-32.91-6.17-51.9-4.06-76.12.82-13.87-.62-20.68,3.94-34.12a81.36,81.36,0,0,1,6.62-13.87c21.56,6.65,37.64,13.19,62.06,12.33,5.58,10.83,10.43,25.32,8.4,40.64-3.94,29.83-14.19,54.23-17.5,105.38,8.39,59.61,2.24,99.83,1,157.6-.14,6.47-20.85,11.61-27,7.58C789.11,1291.41,781.2,1225.87,768.48,1159.7Z"/><path class="cls-76" d="M881.77,953.26l-43,9.83c-8.64,3.87-2.1,22.2,6.45,24.35l60.1-7.77c15.31-3.26,18.67-13.35,15.35-21.22-.07-.16-.15-.32-.23-.48-1-4.87-31.65-48.88-36.06-54.85-6.14-8.29-12.55-13.63-15.21-15.23-5.2-3.12-12.08-2.3-16.59.46-6.19,3.79-8.26,10.09-5.84,15.88C851.09,914.8,867.82,935.5,881.77,953.26Z"/><path class="cls-77" d="M858,882.72c25.24-2.86,25.3,38.75,16.52,58.34-22.84,51-8.07,58.84-10.16,82.07l.47,9.35c-21.7,32.32-84.6,29.79-92.23,6.44.41-1.45.72-7.59,1.27-9.11-1.48-20.49,8.34-36.63,6.44-50.58-3.2-23.45-16-31.69-9.09-51.74,5-6.9,18.62-18,32.76-25.71C823.85,890.89,846.06,884.06,858,882.72Z"/><path class="cls-78" d="M686.33,824.07c-6.89-9.91-14.8-26.43-23-31.46-4.27-5.23-10.4-13.43-14.42-18.49-2.93-3.7-7.46,2.18-5.13,5.8s8.59,12.69,8.62,12.71l.31.31a20,20,0,0,0-7.11,11c-1.18,4.93,6.33,15.19,10.78,22.2,4,6.22,11.91,6.38,14.39,11C678.47,837,682.84,829.94,686.33,824.07Z"/><path class="cls-79" d="M792.44,913.05c-5.65-4.32-16.68-5.13-24.73-8.43-13.27-5.45-29.09-13.7-42.54-17.43-1.66-7-19.92-38.55-31-54.92-1.23-1.8-3.81-2.9-4.79-4.3-1.22-1.72-2.22-3.1-2.94-4-4.68.39-12.76,6-17.5,11.14.87,1.83,1.71,3.74,2.53,5.69.63,1.51.2,5.57.81,7.13,6.61,16.94,13.14,34.13,21.1,47.21,1.15,1.88,2.45,7.47,5.53,11.67,2.95,4,14.34,11.84,18.87,14.64,9.94,6.14,33,21.86,51,29,13.27,5.23,19,2.22,23.82-2.57C803.93,936.69,803.69,921.65,792.44,913.05Z"/><path class="cls-80" d="M858,882.72c25.24-2.86,25.3,38.75,16.52,58.34-22.84,51-8.07,58.84-10.16,82.07l.47,9.35c-21.7,32.32-84.6,29.79-92.23,6.44.37-1.33.67-6.6,1.14-8.64,22.89,21.89,56,16.1,75.62,4.42,1.81-8.59.7-12.4-.46-15.93-15.76-17-54.7-10.87-64.17-57.45-2.75-13.52,6.18-25.41,14.86-36.14,4.16-5.14,7.25-7.83,12.83-15.6,9.11,2.15,26.06-.86,28.09-4.58.71-1.3-2.89-12.68-2.3-14.07C853.8,884.06,848.82,883.75,858,882.72Z"/><path class="cls-81" d="M849.9,894.2c2,8.29-28.31,17.24-38.68,12.73l-.22-2c-2.68-12.37-5.3-22.88-7.15-31.57-4.82,2.06-16.66,2.66-17.71,1,31.91-25.48,69.22-44.32,74-31.46-3.17,9.32-11.33,15.94-15.42,22-1.08,1.62-1.93,5-2.14,8.34h0C843.78,879.83,846.27,886.13,849.9,894.2Z"/><path class="cls-17" d="M786.32,874.51c2.75,1.79,22.28-4.7,23.86-4.62,15.2.75,31.55-.49,34.56-5,4.09-6.07,12.25-12.69,15.42-22,5.05-14.89,4.06-31.69-9.55-43.39-23.69-20.33-60.83-5.43-66.15,17.6-2.18,9.45.52,10.23.07,16.56-.82,11.66-2.14,7.26-1.07,25.71C783.87,866.42,784.5,873.32,786.32,874.51Z"/><path class="cls-68" d="M845.52,883.08c-.83,7.55-22.06,12.87-34.94,9.86-1.38-.32-2.23-.58-2.73-1.45-1.89,1-7.05,8.48-7.63,12.19,11.13,10.73,46.3,4.44,50.57-8.13C851.81,892.54,852.75,886.87,845.52,883.08Z"/><path class="cls-82" d="M904.14,858.08c20.24,16.93,31.64,47.42,22.43,64.72-8.34,15.67-28.7,24.89-22.44,34.81,5.18,8.21,17.37,16.43,2.87,29.67-7.47,6.82-25.7,25.11-62.92,15.64-36.27-9.24-74.34-40.58-43.78-74.84,32.16-36.06,13.35-44-5.1-72.39-9.76-15-18.48-44.62-10.12-55.64,14.33-18.91,23.85-5.29,37.65-12,26.3-12.74,47.88-3.63,60.25,16.29C894.06,822.21,888,844.62,904.14,858.08Z"/></g></g></g></svg>